<svg width="20" height="20" viewBox="0 0 20 20" fill="none" xmlns="http://www.w3.org/2000/svg">
<g clip-path="url(#clip0)">
<path d="M18.5361 1.8182H3.63635V1.94864L3.44992 1.30948C3.2253 0.538424 2.50756 0 1.70455 0H0.45456C0.20331 0 0 0.20331 0 0.45456C0 0.70581 0.20331 0.90912 0.45456 0.90912H1.70455C2.10627 0.90912 2.46494 1.17814 2.57723 1.56388L5.40661 11.2642L3.95685 13.0762C3.75 13.335 3.63635 13.6595 3.63635 13.9906C3.63635 14.7981 4.29286 15.4546 5.1003 15.4546H17.7273C17.9785 15.4546 18.1818 15.2513 18.1818 15C18.1818 14.7488 17.9785 14.5455 17.7273 14.5455H5.1003C4.79446 14.5455 4.54543 14.2964 4.54543 13.9906C4.54543 13.865 4.58847 13.7415 4.66705 13.6439L6.1278 11.8182H15.0435C15.7444 11.8182 16.3902 11.4084 16.689 10.7741L19.8611 4.03364C19.9521 3.83966 20 3.62438 20 3.41084V3.2821C20 2.4747 19.3435 1.8182 18.5361 1.8182ZM19.0909 3.41088C19.0909 3.4921 19.0727 3.5738 19.0381 3.64705L15.8665 10.3871C15.7169 10.704 15.3942 10.9091 15.0435 10.9091H6.25002L3.86348 2.72727H18.5361C18.8419 2.72727 19.0909 2.97631 19.0909 3.28215V3.41088Z" fill="black"/>
<path d="M5.45443 16.3636C4.45169 16.3636 3.63623 17.1791 3.63623 18.1818C3.63623 19.1846 4.45164 20 5.45443 20C6.45721 20 7.27262 19.1846 7.27262 18.1818C7.27262 17.1791 6.45717 16.3636 5.45443 16.3636ZM5.45443 19.0909C4.95329 19.0909 4.54535 18.683 4.54535 18.1818C4.54535 17.6807 4.95329 17.2728 5.45443 17.2728C5.95556 17.2728 6.3635 17.6807 6.3635 18.1818C6.3635 18.683 5.95556 19.0909 5.45443 19.0909Z" fill="black"/>
<path d="M16.3636 16.3636C15.3609 16.3636 14.5454 17.1791 14.5454 18.1818C14.5454 19.1846 15.3608 20 16.3636 20C17.3664 20 18.1818 19.1846 18.1818 18.1818C18.1818 17.1791 17.3663 16.3636 16.3636 16.3636ZM16.3636 19.0909C15.8625 19.0909 15.4545 18.683 15.4545 18.1818C15.4545 17.6807 15.8625 17.2728 16.3636 17.2728C16.8647 17.2728 17.2727 17.6807 17.2727 18.1818C17.2727 18.683 16.8647 19.0909 16.3636 19.0909Z" fill="black"/>
</g>
<defs>
<clipPath id="clip0">
<rect width="20" height="20" fill="white"/>
</clipPath>
</defs>
</svg>
