<svg width="20" height="20" viewBox="0 0 20 20" fill="none" xmlns="http://www.w3.org/2000/svg">
<path d="M19.8768 4.16714C19.756 4.00157 19.5632 3.9036 19.3583 3.9036H6.95193C6.59745 3.9036 6.31023 4.19081 6.31023 4.5453C6.31023 4.89979 6.59745 5.187 6.95193 5.187H18.4789L18.0162 6.63086H8.36008C8.00559 6.63086 7.71838 6.91808 7.71838 7.27257C7.71838 7.62705 8.00559 7.91427 8.36008 7.91427H17.6046L17.0734 9.57203H9.10876C8.75427 9.57203 8.46705 9.85925 8.46705 10.2139C8.46705 10.5684 8.75427 10.8556 9.10876 10.8556H16.6621L16.2166 12.2459H7.72943L4.24284 2.19602C4.18125 2.01886 4.04563 1.87765 3.87135 1.80904L0.876647 0.632606C0.546598 0.503388 0.174163 0.665503 0.0445425 0.995149C-0.0848542 1.32497 0.0772162 1.69763 0.407086 1.82725L3.12697 2.89573L6.45615 12.4919C6.3092 12.5431 6.18469 12.6558 6.12798 12.8136L5.1654 15.4874C5.10641 15.6514 5.13071 15.8335 5.23111 15.976C5.33137 16.1184 5.49442 16.2033 5.66853 16.2033H6.16284C5.85652 16.5441 5.66853 16.9931 5.66853 17.4867C5.66853 18.5483 6.53228 19.4119 7.59368 19.4119C8.65508 19.4119 9.51883 18.5483 9.51883 17.4867C9.51883 16.9931 9.33085 16.5441 9.02452 16.2033H13.2218C12.9153 16.5441 12.7273 16.9931 12.7273 17.4867C12.7273 18.5483 13.5909 19.4119 14.6525 19.4119C15.7141 19.4119 16.5776 18.5483 16.5776 17.4867C16.5776 16.9931 16.3897 16.5441 16.0834 16.2033H16.6846C16.98 16.2033 17.2193 15.9639 17.2193 15.6685C17.2193 15.3731 16.9799 15.1338 16.6846 15.1338H6.42942L7.02556 13.4779C7.10255 13.5103 7.18571 13.5294 7.27276 13.5294H16.6845C16.9635 13.5294 17.2104 13.3492 17.2954 13.0837L19.9693 4.7413C20.032 4.54597 19.9975 4.3327 19.8768 4.16714ZM7.59368 18.3423C7.12179 18.3423 6.73808 17.9586 6.73808 17.4867C6.73808 17.0148 7.12179 16.6311 7.59368 16.6311C8.06557 16.6311 8.44928 17.0148 8.44928 17.4867C8.44928 17.9586 8.06557 18.3423 7.59368 18.3423ZM14.6524 18.3423C14.1806 18.3423 13.7968 17.9586 13.7968 17.4867C13.7968 17.0148 14.1806 16.6311 14.6524 16.6311C15.1243 16.6311 15.508 17.0148 15.508 17.4867C15.508 17.9586 15.1243 18.3423 14.6524 18.3423Z" fill="#182D78"/>
</svg>
