<svg width="20" height="18" viewBox="0 0 20 18" fill="none" xmlns="http://www.w3.org/2000/svg">
<path d="M7.47131 14.4028C6.54874 14.4028 5.80078 15.1504 5.80078 16.0726C5.80078 16.9955 6.54874 17.7431 7.47131 17.7431C8.39351 17.7431 9.14147 16.9955 9.14147 16.0726C9.14147 15.1505 8.39351 14.4028 7.47131 14.4028Z" fill="#182D78"/>
<path d="M14.7604 14.4028C13.8374 14.4028 13.0898 15.1504 13.0898 16.0726C13.0898 16.9955 13.8374 17.7431 14.7604 17.7431C15.6826 17.7431 16.4309 16.9955 16.4309 16.0726C16.4309 15.1505 15.6826 14.4028 14.7604 14.4028Z" fill="#182D78"/>
<path d="M18.9567 5.24684L9.7039 5.24608C9.24124 5.24608 8.86619 5.62113 8.86619 6.08378C8.86619 6.54644 9.24124 6.92149 9.7039 6.92149L17.8903 6.92108L17.371 8.67857L9.04786 8.68035C8.61868 8.68035 8.27072 9.02831 8.27072 9.45749C8.27072 9.88672 8.61868 10.2346 9.04786 10.2346L16.9109 10.2377L16.4227 11.8814H7.04298L6.42066 6.92036L5.82643 2.08722C5.77807 1.70478 5.5008 1.39078 5.12724 1.2955L1.17085 0.286216C0.668553 0.157997 0.157492 0.461387 0.0293535 0.963688C-0.0987852 1.46599 0.204525 1.97709 0.706825 2.10519L4.0442 2.95658L5.34384 12.7099C5.34384 12.7099 5.38804 13.8477 6.42135 13.8477H16.7891C17.6578 13.8477 17.8258 12.9419 17.8258 12.9419L19.8805 6.83937C19.8805 6.83857 20.4897 5.24684 18.9567 5.24684Z" fill="#182D78"/>
</svg>
