<svg width="146" height="125" viewBox="0 0 146 125" fill="none" xmlns="http://www.w3.org/2000/svg">
<path d="M33.6953 113.385C33.6953 116.508 32.5954 119.172 30.4037 121.379C28.2119 123.588 25.5638 124.693 22.4611 124.693C19.3631 124.693 16.715 123.588 14.5232 121.379C12.3293 119.172 11.2316 116.508 11.2316 113.385C11.2316 110.263 12.3281 107.599 14.5232 105.39C16.715 103.183 19.3631 102.078 22.4611 102.078C25.5638 102.078 28.2119 103.183 30.4037 105.39C32.5954 107.599 33.6953 110.263 33.6953 113.385Z" fill="#D3D3D3"/>
<path d="M1.6675 13.2923C2.77936 12.1731 4.09465 11.6134 5.61586 11.6134H110.991C111.051 11.2015 111.182 10.4512 111.387 9.36174C111.592 8.27166 111.752 7.40344 111.869 6.7549C111.987 6.10914 112.205 5.32817 112.527 4.41539C112.849 3.50198 113.229 2.7798 113.668 2.25101C114.106 1.71942 114.691 1.26427 115.422 0.880283C116.153 0.49877 116.987 0.306931 117.922 0.306931H140.384C141.905 0.306931 143.221 0.867596 144.333 1.98521C145.444 3.10407 146 4.42993 146 5.96093C146 7.49193 145.444 8.81717 144.333 9.93603C143.22 11.0552 141.904 11.6143 140.384 11.6143H122.486L106.957 84.3202C107.073 84.5553 107.673 85.6732 108.756 87.6767C109.838 89.6802 110.7 91.4315 111.343 92.9331C111.986 94.4366 112.308 95.5991 112.308 96.4231C112.308 97.9541 111.752 99.2796 110.641 100.4C109.529 101.516 108.213 102.078 106.692 102.078H101.077H22.4613H16.8494C15.3288 102.078 14.0123 101.516 12.9014 100.4C11.7889 99.2799 11.2336 97.9544 11.2336 96.4231C11.2336 94.8917 11.7889 93.5662 12.9014 92.448C14.012 91.3297 15.3285 90.7684 16.8494 90.7684H97.5685C96.1641 87.941 95.4622 86.0585 95.4622 85.116C95.4622 84.5253 95.5353 83.8771 95.6819 83.1719C95.8285 82.4667 96.0037 81.6852 96.2084 80.8299C96.4133 79.9784 96.5443 79.345 96.6026 78.9323L4.99939 68.1549C3.53873 67.977 2.33865 67.3461 1.40289 66.2551C0.466812 65.1666 0 63.9153 0 62.5009V17.2692C0.000610352 15.7382 0.555023 14.413 1.6675 13.2923Z" fill="#D3D3D3"/>
<path d="M112.309 113.385C112.309 116.508 111.212 119.172 109.018 121.379C106.824 123.588 104.178 124.693 101.077 124.693C97.9779 124.693 95.3307 123.588 93.1377 121.379C90.9438 119.172 89.8464 116.508 89.8464 113.385C89.8464 110.263 90.9429 107.599 93.1377 105.39C95.331 103.183 97.9779 102.078 101.077 102.078C104.178 102.078 106.825 103.183 109.018 105.39C111.211 107.599 112.309 110.263 112.309 113.385Z" fill="#D3D3D3"/>
</svg>
