<svg width="18" height="18" viewBox="0 0 18 18" fill="none" xmlns="http://www.w3.org/2000/svg">
<path d="M17.7476 1.59834L16.5042 0.369716C16.1678 0.0332673 15.6119 0.0332673 15.2608 0.369716L9.05848 6.57193L2.73924 0.25269C2.40265 -0.0839046 1.84677 -0.0839046 1.49584 0.25269L0.252446 1.49609C-0.0841487 1.83254 -0.0841487 2.38841 0.252446 2.73948L6.5572 9.04424L0.369472 15.2612C0.0330232 15.5977 0.0330232 16.1535 0.369472 16.5046L1.61287 17.748C1.94932 18.0845 2.50519 18.0845 2.85627 17.748L9.05848 11.5457L15.2608 17.748C15.5973 18.0845 16.1532 18.0845 16.5042 17.748L17.7476 16.5046C18.0841 16.1682 18.0841 15.6123 17.7476 15.2612L11.5306 9.05887L17.733 2.85666C18.0841 2.50529 18.0841 1.94942 17.7476 1.59834Z" fill="black"/>
</svg>
