<svg width="12" height="13" viewBox="0 0 12 13" fill="none" xmlns="http://www.w3.org/2000/svg">
<path fill-rule="evenodd" clip-rule="evenodd" d="M4.848 5.816C4.878 5.618 4.944 5.444 5.028 5.294C5.112 5.144 5.232 5.018 5.382 4.922C5.526 4.832 5.706 4.79 5.928 4.784C6.066 4.79 6.192 4.814 6.306 4.862C6.426 4.916 6.534 4.988 6.618 5.078C6.702 5.168 6.768 5.276 6.822 5.396C6.876 5.516 6.9 5.648 6.906 5.78H7.98C7.968 5.498 7.914 5.24 7.812 5.006C7.71 4.772 7.572 4.568 7.392 4.4C7.212 4.232 6.996 4.1 6.744 4.004C6.492 3.908 6.216 3.866 5.91 3.866C5.52 3.866 5.178 3.932 4.89 4.07C4.602 4.208 4.362 4.388 4.17 4.622C3.978 4.856 3.834 5.126 3.744 5.438C3.654 5.75 3.6 6.074 3.6 6.422V6.584C3.6 6.932 3.648 7.256 3.738 7.568C3.828 7.88 3.972 8.15 4.164 8.378C4.356 8.606 4.596 8.792 4.884 8.924C5.172 9.056 5.514 9.128 5.904 9.128C6.186 9.128 6.45 9.08 6.696 8.99C6.942 8.9 7.158 8.774 7.344 8.612C7.53 8.45 7.68 8.264 7.788 8.048C7.896 7.832 7.962 7.604 7.968 7.358H6.894C6.888 7.484 6.858 7.598 6.804 7.706C6.75 7.814 6.678 7.904 6.588 7.982C6.498 8.06 6.396 8.12 6.276 8.162C6.162 8.204 6.042 8.216 5.916 8.222C5.7 8.216 5.52 8.174 5.382 8.084C5.232 7.988 5.112 7.862 5.028 7.712C4.944 7.562 4.878 7.382 4.848 7.184C4.818 6.986 4.8 6.782 4.8 6.584V6.422C4.8 6.212 4.818 6.014 4.848 5.816ZM6 0.5C2.688 0.5 0 3.188 0 6.5C0 9.812 2.688 12.5 6 12.5C9.312 12.5 12 9.812 12 6.5C12 3.188 9.312 0.5 6 0.5ZM6 11.3C3.354 11.3 1.2 9.146 1.2 6.5C1.2 3.854 3.354 1.7 6 1.7C8.646 1.7 10.8 3.854 10.8 6.5C10.8 9.146 8.646 11.3 6 11.3Z" fill="white"/>
</svg>
