<svg width="14" height="14" viewBox="0 0 14 14" fill="none" xmlns="http://www.w3.org/2000/svg">
<path fill-rule="evenodd" clip-rule="evenodd" d="M7 0C3.13401 0 0 3.13401 0 7C0 10.866 3.13401 14 7 14C10.866 14 14 10.866 14 7C14 3.13401 10.866 0 7 0ZM9.31738 6.10693C9.61458 5.75602 9.76318 5.33708 9.76318 4.8501C9.76318 4.28434 9.53223 3.84033 9.07031 3.51807C8.6084 3.1958 7.97103 3.03467 7.1582 3.03467C6.59603 3.03467 6.09652 3.09554 5.65967 3.21729C5.2264 3.33903 4.80208 3.54313 4.38672 3.82959L5.26758 5.24756C5.80469 4.91097 6.32389 4.74268 6.8252 4.74268C7.09375 4.74268 7.3068 4.79281 7.46436 4.89307C7.62549 4.99333 7.70605 5.1473 7.70605 5.35498C7.70605 5.90641 7.16715 6.18213 6.08936 6.18213H5.59521V7.77734H6.07861C6.47607 7.77734 6.79834 7.80778 7.04541 7.86865C7.29248 7.92594 7.47152 8.01367 7.58252 8.13184C7.69352 8.24642 7.74902 8.41113 7.74902 8.62598C7.74902 8.90527 7.6416 9.11117 7.42676 9.24365C7.21549 9.37256 6.87712 9.43701 6.41162 9.43701C6.11084 9.43701 5.78141 9.39583 5.42334 9.31348C5.06885 9.22754 4.71973 9.09684 4.37598 8.92139V10.6831C4.79492 10.8442 5.18343 10.9552 5.5415 11.0161C5.90316 11.077 6.29525 11.1074 6.71777 11.1074C7.74544 11.1074 8.54753 10.8979 9.12402 10.479C9.7041 10.0601 9.99414 9.48535 9.99414 8.75488C9.99414 7.68066 9.33887 7.0612 8.02832 6.89648V6.86426C8.5905 6.70671 9.02018 6.45426 9.31738 6.10693Z" fill="#182D78"/>
</svg>
