<svg width="14" height="15" viewBox="0 0 14 15" fill="none" xmlns="http://www.w3.org/2000/svg">
<path fill-rule="evenodd" clip-rule="evenodd" d="M7 0.5C3.13401 0.5 0 3.63401 0 7.5C0 11.366 3.13401 14.5 7 14.5C10.866 14.5 14 11.366 14 7.5C14 3.63401 10.866 0.5 7 0.5ZM4.08594 11.4653H9.78467V9.71436H6.81445V9.66064C7.68457 8.88005 8.25212 8.3501 8.51709 8.0708C8.78564 7.7915 9.00049 7.52653 9.16162 7.27588C9.32275 7.02165 9.44092 6.76383 9.51611 6.50244C9.59489 6.24105 9.63428 5.95638 9.63428 5.64844C9.63428 5.23665 9.52327 4.86605 9.30127 4.53662C9.08284 4.20361 8.77311 3.94759 8.37207 3.76855C7.97461 3.58952 7.52165 3.5 7.01318 3.5C6.60856 3.5 6.24333 3.54118 5.91748 3.62354C5.59521 3.70589 5.29622 3.82585 5.02051 3.9834C4.74479 4.13737 4.40462 4.39518 4 4.75684L5.16553 6.12109C5.48421 5.84538 5.76888 5.6377 6.01953 5.49805C6.27376 5.35482 6.52441 5.2832 6.77148 5.2832C7.01139 5.2832 7.19759 5.34229 7.33008 5.46045C7.46256 5.57861 7.52881 5.73975 7.52881 5.94385C7.52881 6.10856 7.49479 6.26611 7.42676 6.4165C7.3623 6.56689 7.24593 6.74772 7.07764 6.95898C6.90934 7.16667 6.55127 7.55697 6.00342 8.12988L4.08594 10.0688V11.4653Z" fill="#182D78"/>
</svg>
