<svg width="12" height="16" viewBox="0 0 12 16" fill="none" xmlns="http://www.w3.org/2000/svg">
<path d="M11.7551 2.22804C11.7551 1.60046 11.244 1.08974 10.6168 1.08974H8.27607C8.25103 0.484538 7.74979 0 7.1389 0H4.8623C4.25103 0 3.75055 0.484538 3.72513 1.08974H1.3844C0.756813 1.08974 0.246094 1.60046 0.246094 2.22804V2.65604C0.246094 3.28363 0.756813 3.79435 1.3844 3.79435H10.6172C11.2448 3.79435 11.7555 3.28363 11.7555 2.65604L11.7551 2.22804ZM10.9962 2.65642C10.9962 2.86549 10.8259 3.03586 10.6168 3.03586H1.38402C1.17495 3.03586 1.00458 2.86549 1.00458 2.65642V2.22842C1.00458 2.01935 1.17495 1.84899 1.38402 1.84899H4.10343C4.31287 1.84899 4.48286 1.679 4.48286 1.46955V1.13868C4.48286 0.929615 4.65323 0.759249 4.8623 0.759249H7.1389C7.34797 0.759249 7.51834 0.929615 7.51834 1.13868V1.46955C7.51834 1.679 7.68832 1.84899 7.89777 1.84899H10.6172C10.8262 1.84899 10.9966 2.01935 10.9966 2.22842L10.9962 2.65642Z" fill="black"/>
<path d="M10.6162 4.36389H1.38342C0.755836 4.36389 0.245117 4.87461 0.245117 5.5022V14.8617C0.245117 15.4893 0.755836 16 1.38342 16H10.6162C11.2434 16 11.7545 15.4893 11.7545 14.8617V5.5022C11.7545 4.87423 11.2434 4.36389 10.6162 4.36389ZM10.9956 14.8613C10.9956 15.0704 10.8253 15.2408 10.6162 15.2408H1.38342C1.17435 15.2408 1.00399 15.0704 1.00399 14.8613V5.5022C1.00399 5.29313 1.17435 5.12276 1.38342 5.12276H10.6162C10.8253 5.12276 10.9956 5.29313 10.9956 5.5022V14.8613Z" fill="black"/>
<path d="M5.99955 6.26106C5.7901 6.26106 5.62012 6.43105 5.62012 6.6405V13.8498C5.62012 14.0592 5.7901 14.2292 5.99955 14.2292C6.209 14.2292 6.37899 14.0592 6.37899 13.8498V6.6405C6.37899 6.43067 6.209 6.26106 5.99955 6.26106Z" fill="black"/>
<path d="M4.48197 6.26106C4.27253 6.26106 4.10254 6.43105 4.10254 6.6405V13.8498C4.10254 14.0592 4.27253 14.2292 4.48197 14.2292C4.69142 14.2292 4.86141 14.0592 4.86141 13.8498V6.6405C4.86141 6.43067 4.69142 6.26106 4.48197 6.26106Z" fill="black"/>
<path d="M2.9644 6.26106C2.75495 6.26106 2.58496 6.43105 2.58496 6.6405V13.8498C2.58496 14.0592 2.75495 14.2292 2.9644 14.2292C3.17384 14.2292 3.34383 14.0592 3.34383 13.8498V6.6405C3.34383 6.43067 3.17384 6.26106 2.9644 6.26106Z" fill="black"/>
<path d="M7.51811 6.26106C7.30866 6.26106 7.13867 6.43105 7.13867 6.6405V13.8498C7.13867 14.0592 7.30866 14.2292 7.51811 14.2292C7.72755 14.2292 7.89754 14.0592 7.89754 13.8498V6.6405C7.89754 6.43067 7.72755 6.26106 7.51811 6.26106Z" fill="black"/>
<path d="M9.03568 6.26106C8.82624 6.26106 8.65625 6.43105 8.65625 6.6405V13.8498C8.65625 14.0592 8.82624 14.2292 9.03568 14.2292C9.24513 14.2292 9.41512 14.0592 9.41512 13.8498V6.6405C9.41512 6.43067 9.24513 6.26106 9.03568 6.26106Z" fill="black"/>
</svg>
