<svg width="15" height="10" viewBox="0 0 15 10" fill="none" xmlns="http://www.w3.org/2000/svg">
<path d="M9.95215 5.07175L14.6719 8.0555V1.96201L9.95215 5.07175Z" fill="#182D78"/>
<path d="M0.671875 1.96201V8.0555L5.39162 5.07175L0.671875 1.96201Z" fill="#182D78"/>
<path d="M13.7969 0.1875H1.54687C1.11025 0.1875 0.763745 0.513 0.69812 0.932125L7.67187 5.52675L14.6456 0.932125C14.58 0.513 14.2335 0.1875 13.7969 0.1875Z" fill="#182D78"/>
<path d="M9.15064 5.60024L7.91252 6.41574C7.83902 6.46386 7.75589 6.48749 7.67189 6.48749C7.58789 6.48749 7.50477 6.46386 7.43127 6.41574L6.19314 5.59937L0.69989 9.07399C0.767265 9.48961 1.11202 9.81249 1.54689 9.81249H13.7969C14.2318 9.81249 14.5765 9.48961 14.6439 9.07399L9.15064 5.60024Z" fill="#182D78"/>
</svg>
