<svg width="12" height="9" viewBox="0 0 12 9" fill="none" xmlns="http://www.w3.org/2000/svg">
<path d="M0.382668 0.9645L5.38267 3.98625C5.55067 4.0875 5.768 4.1355 5.98667 4.1355C6.20533 4.1355 6.42267 4.0875 6.59067 3.98625L11.5907 0.9645C11.9167 0.76725 12.2247 0 11.6267 0H0.347334C-0.250666 0 0.0573344 0.76725 0.382668 0.9645ZM11.742 2.61675L6.59067 5.637C6.364 5.7705 6.20533 5.78625 5.98667 5.78625C5.768 5.78625 5.60933 5.7705 5.38267 5.637C5.156 5.5035 0.627334 2.83275 0.257334 2.616C-0.00266556 2.463 1.07737e-06 2.64225 1.07737e-06 2.78025V8.25C1.07737e-06 8.565 0.377334 9 0.666668 9H11.3333C11.6227 9 12 8.565 12 8.25V2.781C12 2.643 12.0027 2.46375 11.742 2.61675Z" fill="#182D78"/>
</svg>
