<svg width="20" height="20" viewBox="0 0 20 20" fill="none" xmlns="http://www.w3.org/2000/svg">
<path d="M14.4677 16.7264C14.6724 16.2814 15.037 15.9553 15.4777 15.8016V14.1406C15.4777 13.1714 16.2662 12.3828 17.2355 12.3828H18.2422C18.4476 12.3828 18.6447 12.4186 18.8281 12.4836V1.75781C18.8281 0.788555 18.0396 0 17.0703 0H5.35156C4.3823 0 3.59375 0.788555 3.59375 1.75781V2.61719H13.6719C14.9642 2.61719 16.0156 3.66859 16.0156 4.96094V10.4297C16.0156 11.722 14.9642 12.7734 13.6719 12.7734H3.59375V18.2422C3.59375 19.2114 4.3823 20 5.35156 20H15.9259L14.7301 18.6049C14.278 18.0774 14.1774 17.3576 14.4677 16.7264Z" fill="white"/>
<path d="M19.4129 16.875H18.8281V14.1406C18.8281 13.817 18.5658 13.5547 18.2422 13.5547H17.2355C16.9119 13.5547 16.6495 13.817 16.6495 14.1406V16.875H16.0647C15.5641 16.875 15.2941 17.4622 15.6198 17.8423L17.2939 19.7954C17.5278 20.0682 17.9498 20.0682 18.1837 19.7954L19.8578 17.8423C20.1836 17.4622 19.9135 16.875 19.4129 16.875Z" fill="white"/>
<path d="M7.50046 6.13281H6.78546C6.78628 6.61019 6.78757 7.3907 6.78757 7.69098C6.78757 8.04891 6.78984 8.79558 6.79132 9.2559C7.04507 9.25445 7.35863 9.25219 7.52601 9.24926C8.3239 9.23531 8.6873 8.43394 8.6873 7.69531C8.6873 6.93996 8.37554 6.13281 7.50046 6.13281Z" fill="white"/>
<path d="M3.7077 6.13281H3.01184C3.01258 6.39141 3.0134 6.70699 3.0134 6.84453C3.0134 7.00672 3.01481 7.31074 3.01606 7.55891C3.25688 7.55762 3.54899 7.55629 3.7077 7.55629C4.1052 7.55629 4.44102 7.23035 4.44102 6.84457C4.44102 6.45879 4.1052 6.13281 3.7077 6.13281Z" fill="white"/>
<path d="M14.8438 10.4297V4.96094C14.8438 4.31371 14.3191 3.78906 13.6719 3.78906H1.17188C0.524648 3.78906 0 4.31371 0 4.96094V10.4297C0 11.0769 0.524648 11.6016 1.17188 11.6016H13.6719C14.3191 11.6016 14.8438 11.0769 14.8438 10.4297ZM3.7077 8.3375C3.54828 8.3375 3.25223 8.33887 3.01066 8.34016V9.64844C3.01066 9.86418 2.83578 10.0391 2.62004 10.0391C2.4043 10.0391 2.22941 9.86418 2.22941 9.64844V5.74344C2.2291 5.63961 2.27012 5.53996 2.34336 5.46645C2.41664 5.39293 2.51621 5.3516 2.62004 5.3516H3.7077C4.54281 5.3516 5.22227 6.02137 5.22227 6.84457C5.22227 7.66777 4.54285 8.3375 3.7077 8.3375ZM8.9709 9.30254C8.61891 9.76191 8.11066 10.0204 7.53969 10.0304C7.22516 10.0359 6.43695 10.0389 6.40355 10.0391C6.40305 10.0391 6.40258 10.0391 6.40207 10.0391C6.29898 10.0391 6.20008 9.99832 6.12688 9.92566C6.05336 9.85266 6.01184 9.75344 6.01145 9.64984C6.01141 9.63566 6.00637 8.22801 6.00637 7.69098C6.00637 7.24559 6.00355 5.74293 6.00355 5.74289C6.00336 5.63918 6.04441 5.53961 6.1177 5.46621C6.19098 5.39281 6.29043 5.35156 6.39414 5.35156H7.50047C8.67766 5.35156 9.46855 6.29344 9.46855 7.69531C9.46855 8.31289 9.29184 8.88367 8.9709 9.30254ZM12.2237 6.13281H11.0311V7.26769H12.0979C12.3136 7.26769 12.4885 7.44258 12.4885 7.65832C12.4885 7.87406 12.3136 8.04894 12.0979 8.04894H11.0311V9.64844C11.0311 9.86418 10.8562 10.0391 10.6404 10.0391C10.4247 10.0391 10.2498 9.86418 10.2498 9.64844V5.74219C10.2498 5.63859 10.291 5.53922 10.3642 5.46598C10.4375 5.39273 10.5368 5.35156 10.6404 5.35156H12.2237C12.4394 5.35156 12.6143 5.52645 12.6143 5.74219C12.6143 5.95793 12.4394 6.13281 12.2237 6.13281Z" fill="white"/>
</svg>
