<svg width="15" height="14" viewBox="0 0 15 14" fill="none" xmlns="http://www.w3.org/2000/svg">
<g clip-path="url(#clip0)">
<path d="M13.7559 9.96C12.6739 9.861 11.6189 9.586 10.6219 9.142C10.1319 8.921 9.55888 9.121 9.31787 9.597L8.63788 10.947C6.57588 9.804 4.86588 8.093 3.72487 6.033L5.07387 5.354C5.54987 5.115 5.75087 4.542 5.53088 4.05C5.08588 3.054 4.80988 2 4.71187 0.916C4.66387 0.394 4.23887 0 3.72187 0H1.17188C0.895875 0 0.671875 0.224 0.671875 0.5C0.671875 2.536 1.11588 4.499 1.99088 6.337C3.31988 9.099 5.57288 11.352 8.33687 12.682C10.1739 13.557 12.1369 14 14.1719 14C14.4479 14 14.6719 13.776 14.6719 13.5V10.95C14.6719 10.433 14.2779 10.007 13.7559 9.96Z" fill="#182D78"/>
</g>
<defs>
<clipPath id="clip0">
<rect width="14" height="14" fill="white" transform="translate(0.671875)"/>
</clipPath>
</defs>
</svg>
