<svg width="18" height="18" viewBox="0 0 18 18" fill="none" xmlns="http://www.w3.org/2000/svg">
<path d="M16.8223 12.8057C15.4311 12.6784 14.0747 12.3249 12.7929 11.754C12.1629 11.4699 11.4261 11.727 11.1163 12.339L10.242 14.0747C7.59086 12.6051 5.39229 10.4053 3.92529 7.75671L5.65971 6.88371C6.27171 6.57643 6.53014 5.83971 6.24729 5.20714C5.67514 3.92657 5.32029 2.57143 5.19429 1.17771C5.13257 0.506571 4.58614 0 3.92143 0H0.642857C0.288 0 0 0.288 0 0.642857C0 3.26057 0.570857 5.78443 1.69586 8.14757C3.40457 11.6987 6.30129 14.5954 9.855 16.3054C12.2169 17.4304 14.7407 18 17.3571 18C17.712 18 18 17.712 18 17.3571V14.0786C18 13.4139 17.4934 12.8661 16.8223 12.8057Z" fill="#182D78"/>
</svg>
