<svg width="16" height="16" viewBox="0 0 16 16" fill="none" xmlns="http://www.w3.org/2000/svg">
<path d="M15.8609 15.184L11.9726 11.2958C13.0156 10.0967 13.6471 8.53215 13.6471 6.82217C13.6471 3.05809 10.5855 0 6.82495 0C3.06087 0 0.0027771 3.06164 0.0027771 6.82217C0.0027771 10.5827 3.06442 13.6443 6.82495 13.6443C8.53492 13.6443 10.0994 13.0129 11.2986 11.9698L15.1868 15.8581C15.279 15.9503 15.4032 16 15.5238 16C15.6445 16 15.7686 15.9539 15.8609 15.8581C16.0453 15.6736 16.0453 15.3685 15.8609 15.184ZM0.9571 6.82217C0.9571 3.5867 3.58947 0.957871 6.8214 0.957871C10.0569 0.957871 12.6857 3.59024 12.6857 6.82217C12.6857 10.0541 10.0569 12.69 6.8214 12.69C3.58947 12.69 0.9571 10.0576 0.9571 6.82217Z" fill="black" fill-opacity="0.3"/>
</svg>
