<svg width="16" height="16" viewBox="0 0 16 16" fill="none" xmlns="http://www.w3.org/2000/svg">
<path fill-rule="evenodd" clip-rule="evenodd" d="M1.6981 11.3202L1.29522 11.7248C1.2467 11.7759 1.24684 11.8397 1.24698 11.904L1.24699 11.9069C1.24713 11.977 1.24688 12.047 1.24662 12.1171C1.2461 12.2611 1.24558 12.4052 1.24851 12.5492C1.25046 12.6453 1.22741 12.6857 1.11821 12.6823C0.92531 12.6763 0.7322 12.6773 0.53908 12.6783C0.448087 12.6788 0.357092 12.6793 0.266116 12.679L0.259239 12.679C0.204128 12.6787 0.150141 12.6785 0.107068 12.7215C0.0264004 12.7933 -0.000504411 12.8832 7.1373e-06 12.9905C0.00174723 13.355 0.00159846 13.7196 0.00144969 14.0841C0.00136482 14.2921 0.00127996 14.5001 0.00154572 14.708C0.00182012 14.9231 0.0872692 15.0113 0.300687 15.0153L0.343476 15.0161H0.343494H0.343511C0.486605 15.0189 0.629972 15.0217 0.77262 15.0138C0.88441 15.0077 0.928717 15.0373 0.922197 15.1577C0.912054 15.3451 0.91594 15.5335 0.92093 15.7213C0.925828 15.9056 1.01669 15.995 1.19906 15.9957C1.69298 15.9976 2.1869 15.9977 2.68081 15.9959C2.87007 15.9952 2.96095 15.9036 2.96454 15.713C2.96628 15.6207 2.96588 15.5284 2.96549 15.4361V15.436C2.96518 15.3623 2.96486 15.2885 2.96563 15.2148C2.96595 15.185 2.96556 15.1596 2.96523 15.138C2.96434 15.0794 2.96388 15.0487 2.97899 15.0327C2.99562 15.0151 3.03108 15.0154 3.10556 15.0161C3.1212 15.0162 3.13857 15.0163 3.15785 15.0163C6.38798 15.0161 9.61811 15.016 12.8482 15.016C12.8581 15.016 12.868 15.0163 12.8779 15.0166C12.8987 15.0171 12.9194 15.0177 12.94 15.0157C13.0136 15.0088 13.0399 15.0391 13.0383 15.1137C13.0349 15.2706 13.0358 15.4277 13.0367 15.5848L13.0372 15.6774C13.0384 15.91 13.1227 15.996 13.3515 15.9963C13.8236 15.997 14.2956 15.997 14.7677 15.9963C14.998 15.996 15.0809 15.912 15.0826 15.6782L15.0827 15.6555V15.6554V15.6553C15.084 15.475 15.0852 15.2947 15.0818 15.1145C15.0804 15.0404 15.1075 15.0138 15.1809 15.0152C15.3557 15.0184 15.5306 15.0179 15.7054 15.0151C15.8027 15.0136 15.8994 15.0036 15.9534 14.9029C15.9705 14.8664 15.985 14.8288 15.9967 14.7902L15.9981 14.2861C15.9994 13.8381 16.0008 13.3901 15.9994 12.942C15.9989 12.7772 15.9031 12.6902 15.7302 12.6884C15.5303 12.6862 15.3303 12.6867 15.1304 12.6871C15.0506 12.6873 14.9708 12.6875 14.8911 12.6875C14.8287 12.6875 14.7664 12.6871 14.704 12.6867C14.5565 12.6858 14.4091 12.6849 14.2618 12.6891C14.0586 12.6949 13.9477 12.8816 14.0451 13.0439C14.1011 13.1373 14.1901 13.1613 14.2922 13.161C14.4111 13.1607 14.53 13.1611 14.6488 13.1615C14.8884 13.1623 15.1279 13.1632 15.3673 13.158C15.4889 13.1553 15.5342 13.1812 15.5304 13.3135C15.524 13.54 15.525 13.7667 15.5261 13.9934C15.5267 14.1119 15.5272 14.2305 15.5267 14.3491C15.5266 14.3749 15.527 14.3973 15.5273 14.4165C15.5283 14.4743 15.5288 14.5045 15.514 14.5203C15.4976 14.5376 15.4626 14.5373 15.3889 14.5367C15.3733 14.5365 15.3561 14.5364 15.3369 14.5364L0.665302 14.5367C0.655625 14.5367 0.645927 14.5364 0.63623 14.5362L0.636115 14.5362C0.615192 14.5357 0.594271 14.5351 0.573564 14.537C0.50172 14.5435 0.473335 14.517 0.47393 14.4407C0.477418 14.0474 0.477342 13.6541 0.473702 13.2608C0.472919 13.1763 0.507573 13.1571 0.582803 13.1597C0.64391 13.1618 0.705109 13.1613 0.766308 13.1607H0.766374C0.827562 13.1602 0.888749 13.1596 0.949846 13.1618C0.9821 13.1629 1.01584 13.1596 1.04955 13.1562C1.12423 13.1489 1.19873 13.1416 1.25649 13.1825C1.29796 13.2118 1.30379 13.2692 1.30977 13.3281C1.31322 13.3622 1.31673 13.3967 1.32721 13.4267C1.54587 14.0521 2.08291 14.4086 2.6811 14.3912C3.34938 14.3718 3.87199 13.9275 4.00376 13.2924C4.02635 13.1836 4.07186 13.1577 4.17808 13.1582C4.8779 13.1616 5.57774 13.1613 6.27759 13.161H6.27812L6.90522 13.1608C9.05984 13.1602 11.2145 13.1604 13.3691 13.1615C13.4946 13.1616 13.6071 13.1432 13.6661 13.0165C13.7211 12.8985 13.6687 12.806 13.5865 12.7233C13.5407 12.6738 13.4831 12.6763 13.426 12.6787L13.4032 12.6795L13.3893 12.6797L4.20512 12.6794C4.05595 12.6793 4.05428 12.6792 4.054 12.5313C4.05358 12.0816 4.05356 11.6318 4.05393 11.1821C4.05394 11.1761 4.05369 11.1701 4.05344 11.1641V11.164C4.05245 11.1397 4.05144 11.1151 4.06694 11.0931L4.93138 10.267L4.94202 10.3668L4.94202 10.3668L4.94202 10.3668C4.95051 10.4457 4.95952 10.5294 4.96727 10.6132C4.99006 10.8595 5.10078 10.9442 5.34376 10.8979L5.42019 10.8833L5.42035 10.8833L5.42037 10.8833C5.5879 10.8514 5.75545 10.8195 5.92229 10.7844C6.00243 10.7675 6.0491 10.7812 6.0807 10.8678C6.15027 11.0585 6.22961 11.2458 6.30887 11.4329L6.31632 11.4505C6.39971 11.6473 6.51887 11.6915 6.71353 11.5961C6.90597 11.5024 7.09636 11.4048 7.2847 11.3034C7.34709 11.2698 7.38324 11.2757 7.42651 11.3326C7.51402 11.4476 7.60447 11.5604 7.69492 11.6731C7.73024 11.7172 7.76557 11.7612 7.80072 11.8054C7.96705 12.0144 8.08651 12.0249 8.27788 11.8454L8.33935 11.7879L8.33936 11.7878C8.46561 11.6696 8.59188 11.5514 8.71437 11.4294C8.76841 11.3756 8.80791 11.3723 8.86961 11.4181C9.04148 11.5456 9.21672 11.6687 9.39356 11.7893C9.57058 11.91 9.69702 11.8802 9.80725 11.6953L9.84367 11.6343C9.93903 11.4746 10.0344 11.3149 10.1232 11.1516C10.163 11.0784 10.2028 11.0659 10.2783 11.0939C10.4746 11.1666 10.673 11.2342 10.8721 11.2993C11.0788 11.367 11.1994 11.2975 11.2515 11.0876C11.2663 11.0279 11.2815 10.9683 11.2966 10.9087C11.3332 10.7652 11.3697 10.6217 11.4009 10.4771C11.4175 10.4001 11.4501 10.3784 11.5249 10.3829C11.7299 10.3955 11.9352 10.4033 12.1405 10.4099C12.3862 10.4179 12.471 10.3305 12.4617 10.0805L12.4581 9.97946C12.4522 9.81224 12.4463 9.64497 12.4334 9.47826C12.4268 9.39266 12.4623 9.36269 12.5366 9.34567C12.7365 9.29982 12.9362 9.25244 13.1348 9.2009C13.3591 9.14268 13.4196 9.03021 13.3474 8.81253L13.3109 8.70153L13.3109 8.70149L13.3109 8.70145C13.2619 8.55179 13.2128 8.40207 13.1552 8.25574C13.1179 8.16082 13.1283 8.10944 13.2226 8.05981C13.3955 7.96875 13.5632 7.86747 13.7306 7.76634L13.7442 7.75814C13.9326 7.64435 13.9604 7.51274 13.8359 7.33348C13.7187 7.16487 13.6013 6.99631 13.4782 6.83203C13.4277 6.7646 13.4229 6.7197 13.4877 6.65596C13.6199 6.52597 13.7458 6.38959 13.8717 6.2533L13.9122 6.20945C14.0689 6.03997 14.0605 5.9173 13.8799 5.7691C13.7212 5.63882 13.561 5.51013 13.3969 5.3869C13.3329 5.33888 13.3183 5.30052 13.359 5.22656C13.43 5.09747 13.4961 4.96566 13.5622 4.83385C13.5881 4.7822 13.614 4.73055 13.6402 4.67906C13.7468 4.46975 13.7002 4.34368 13.4824 4.25545L13.3902 4.21801L13.3902 4.218L13.3901 4.21799C13.2349 4.15492 13.0797 4.09185 12.9229 4.03277C12.846 4.00379 12.8146 3.9705 12.8356 3.87972C12.8665 3.74581 12.8896 3.61007 12.9127 3.47433C12.9218 3.42063 12.9309 3.36693 12.9405 3.31334C12.9907 3.034 12.9267 2.94813 12.6455 2.91555C12.6126 2.91174 12.5794 2.90977 12.5458 2.90777L12.5458 2.90777C12.4631 2.90286 12.3781 2.89781 12.2899 2.86481L12.3266 2.82562L12.3267 2.82557C12.3489 2.80175 12.3681 2.78107 12.3881 2.7611C12.7685 2.38137 13.1485 2.00122 13.5281 1.62066C13.6932 1.45506 13.6938 1.3399 13.5288 1.17344C13.3195 0.962469 13.1092 0.752544 12.8979 0.543665C12.7449 0.392546 12.6249 0.394013 12.4687 0.547202C12.3695 0.644535 12.2714 0.743039 12.1733 0.841541L12.1731 0.841692L12.1253 0.889768L12.1244 0.890661C11.9545 1.06113 11.9539 1.06174 11.7465 0.934557C10.9132 0.422686 9.97185 0.112546 8.9975 0.0288578C7.96156 -0.0626404 6.91895 0.100219 5.96026 0.503284C5.00157 0.906349 4.15581 1.53743 3.49647 2.34168C2.91703 3.0509 2.49669 3.87631 2.26389 4.76206C2.0311 5.64781 1.99127 6.57323 2.14712 7.4757C2.28696 8.30058 2.59215 9.08868 3.04433 9.79261C3.10124 9.88098 3.08977 9.92838 3.01786 9.99974C2.57618 10.4381 2.13718 10.8791 1.69819 11.3201L1.69813 11.3202L1.6981 11.3202ZM11.5202 1.3462C10.5734 0.776862 9.54815 0.487367 8.39783 0.476349C7.43919 0.48304 6.49661 0.723241 5.65168 1.17617C4.64606 1.71356 3.85776 2.47836 3.29812 3.46696C2.66379 4.58752 2.42145 5.79575 2.57026 7.07805C2.66888 7.93149 2.95418 8.75276 3.4059 9.48354C3.44481 9.54715 3.46844 9.54882 3.51827 9.49721C3.61432 9.39775 3.71251 9.30035 3.8107 9.20294L3.81078 9.20286L3.81088 9.20277C3.85227 9.16171 3.89366 9.12064 3.9349 9.07943C4.40411 8.60902 4.8741 8.13939 5.34487 7.67054C5.4815 7.53446 5.61773 7.51925 5.72348 7.62191C5.83299 7.72821 5.81614 7.86856 5.676 8.01108C5.63502 8.05276 5.59356 8.09398 5.55211 8.13519L5.49055 8.19651C4.26951 9.41712 3.04863 10.6379 1.82789 11.8588L1.81463 11.8719C1.77331 11.9124 1.73334 11.9516 1.73418 12.0222C1.73567 12.1484 1.73467 12.2747 1.73368 12.401C1.73213 12.5983 1.73057 12.7955 1.73849 12.9923C1.76501 13.6519 2.33367 14.062 2.94218 13.8705C3.31418 13.7534 3.56416 13.401 3.56623 12.9776C3.56873 12.3483 3.5686 11.7189 3.56584 11.0895C3.5637 11.033 3.5736 10.9767 3.59488 10.9243C3.61616 10.872 3.64834 10.8247 3.68928 10.7857C6.41924 8.05778 9.14888 5.32953 11.8782 2.60095C11.9779 2.50131 12.0774 2.40155 12.1769 2.30179L12.1771 2.30162C12.4511 2.02706 12.725 1.7525 13.0015 1.48058C13.0678 1.41537 13.0705 1.37556 13.0002 1.31608C12.9257 1.25512 12.8573 1.18706 12.796 1.11288C12.7178 1.01491 12.6663 1.01704 12.5745 1.10914C10.5268 3.15968 8.47817 5.20932 6.42865 7.25805C6.39578 7.29307 6.36018 7.32543 6.3222 7.35483C6.27691 7.39012 6.22026 7.40758 6.16296 7.40392C6.10566 7.40025 6.0517 7.37571 6.01128 7.33494C5.97185 7.29603 5.94816 7.24396 5.94472 7.18868C5.94127 7.1334 5.95833 7.07879 5.99262 7.0353C6.03854 6.97701 6.08888 6.92235 6.14321 6.87181C7.9383 5.07571 9.73439 3.2806 11.5315 1.48649C11.5914 1.4267 11.6058 1.39767 11.5202 1.3462ZM9.46648 6.35334C9.45565 7.13487 8.68091 7.62964 8.00837 7.32871C7.92335 7.29066 7.87701 7.26528 7.97168 7.17271C8.39349 6.76019 8.8107 6.34299 9.22329 5.9211C9.30632 5.83643 9.33316 5.86379 9.37165 5.95197C9.428 6.07868 9.46016 6.21481 9.46648 6.35334ZM3.40853 12.9185C3.40775 13.1193 3.32844 13.3119 3.18756 13.4551C3.04667 13.5982 2.85539 13.6806 2.65458 13.6846C2.24279 13.6891 1.8961 13.3462 1.89089 12.9291C1.88948 12.7278 1.96808 12.5343 2.1094 12.391C2.25071 12.2477 2.44316 12.1664 2.64441 12.165C2.84567 12.1636 3.03923 12.2422 3.18253 12.3835C3.32583 12.5248 3.40713 12.7172 3.40853 12.9185ZM2.64608 12.6427C2.72098 12.6434 2.79269 12.6731 2.84612 12.7256C2.89956 12.7781 2.93056 12.8493 2.93261 12.9241C2.93004 12.999 2.89888 13.07 2.84554 13.1226C2.7922 13.1752 2.72073 13.2054 2.64584 13.2069C2.57314 13.2045 2.50405 13.1747 2.45254 13.1233C2.40102 13.072 2.37092 13.003 2.36832 12.9303C2.36719 12.8554 2.39578 12.7831 2.44784 12.7292C2.49989 12.6753 2.57117 12.6442 2.64608 12.6427Z" fill="#182D78"/>
</svg>
