<svg width="16" height="12" viewBox="0 0 16 12" fill="none" xmlns="http://www.w3.org/2000/svg">
<path fill-rule="evenodd" clip-rule="evenodd" d="M3.30457 0.764652C3.29868 0.774172 3.27142 0.78196 3.24399 0.78196C3.21656 0.78196 3.1893 0.789749 3.18341 0.799268C3.17753 0.808788 3.15371 0.816576 3.13047 0.816576C3.10722 0.816576 3.08822 0.823517 3.08822 0.832015C3.08822 0.840496 3.06875 0.852335 3.04495 0.858306C3.02115 0.864277 3.00168 0.876808 3.00168 0.886137C3.00168 0.895484 2.99121 0.903116 2.9784 0.903116C2.96559 0.903116 2.94101 0.918694 2.92379 0.937732C2.90657 0.956771 2.88279 0.972349 2.87099 0.972349C2.85916 0.972349 2.82726 0.999557 2.80011 1.03282C2.67118 1.19065 2.65552 1.21203 2.65552 1.23001C2.65552 1.24389 2.422 1.24928 1.82028 1.24928H0.985069L0.500669 1.7339L0.0162696 2.21853L1.98928 2.21879C3.07442 2.21894 3.97222 2.22538 3.98441 2.2331C4.00108 2.24367 4.00533 2.30867 4.00172 2.49679L3.99689 2.74642L3.24832 2.75094L2.49975 2.75544V2.99758V3.2397L1.79444 3.2432C1.40654 3.24512 1.06642 3.24692 1.03864 3.24718C0.995955 3.24759 0.911821 3.32326 0.494075 3.73696L0 4.22626H2.24322C4.02275 4.22626 4.48783 4.23072 4.49309 4.24789C4.49674 4.2598 4.49884 4.37467 4.49775 4.50318L4.49578 4.73684L3.50209 4.7455L2.5084 4.75415L2.50361 5.00079L2.49879 5.24743H1.74193H0.985069L0.501448 5.73127C0.174413 6.05847 0.0259448 6.2182 0.0428893 6.22461C0.0566838 6.22982 0.951976 6.23601 2.03243 6.23837L3.99689 6.24264V6.49361V6.74457L3.24832 6.74909L2.49975 6.75359L2.50101 7.11256C2.50215 7.43705 2.50549 7.47649 2.53583 7.52343C2.55428 7.55199 2.5741 7.589 2.57985 7.60565C2.58561 7.6223 2.60015 7.63594 2.61214 7.63594C2.62416 7.63594 2.64354 7.64746 2.65522 7.66153C2.72362 7.74396 2.51129 7.73978 6.63068 7.73978H10.4794L10.4747 4.59774C10.4708 1.94719 10.4663 1.45339 10.4462 1.44093C10.433 1.43281 10.4211 1.41168 10.4196 1.39397C10.4155 1.34366 10.3468 1.2086 10.307 1.1726C10.2872 1.15471 10.271 1.1344 10.271 1.12748C10.271 1.1114 10.1325 0.972349 10.1165 0.972349C10.1099 0.972349 10.0824 0.949363 10.0555 0.921272C10.0286 0.893164 9.98437 0.865316 9.95727 0.859362C9.93016 0.853408 9.90353 0.841344 9.89809 0.832552C9.89268 0.823759 9.86967 0.816576 9.847 0.816576C9.82433 0.816576 9.80096 0.808788 9.79508 0.799268C9.78919 0.789749 9.76193 0.78196 9.7345 0.78196C9.70706 0.78196 9.6798 0.774172 9.67392 0.764652C9.6591 0.740681 3.31938 0.740681 3.30457 0.764652ZM11.3441 2.76774C11.3203 2.77212 11.2946 2.78664 11.287 2.80001C11.2794 2.81337 11.2636 2.82431 11.2518 2.82431C11.2059 2.82431 11.0523 3.00803 11.0419 3.07527C11.0405 3.08479 11.0338 3.10426 11.0272 3.11854C11.0206 3.13282 11.0132 4.29332 11.0109 5.69744L11.0066 8.25037L8.95693 8.25477L6.90725 8.25916L6.98815 8.33669C7.03265 8.37933 7.06913 8.42018 7.06922 8.42748C7.06929 8.43479 7.09655 8.46944 7.1298 8.5045C7.16303 8.53957 7.19022 8.57401 7.19022 8.58104C7.19022 8.58805 7.20131 8.6061 7.21487 8.62113C7.25812 8.66907 7.41432 8.98941 7.42583 9.05376C7.43192 9.08787 7.44759 9.12804 7.46064 9.14305C7.47367 9.15804 7.48941 9.21865 7.49558 9.27772C7.50176 9.33679 7.51346 9.38924 7.5216 9.39426C7.52973 9.39928 7.53638 9.47692 7.53638 9.5668V9.73021H9.23045C10.565 9.73021 10.9281 9.72562 10.9416 9.70857C10.951 9.69668 10.9633 9.58968 10.969 9.47083C10.9771 9.3022 10.9854 9.25032 11.0068 9.23468C11.0253 9.22113 11.0307 9.20065 11.0233 9.17142C11.0173 9.14724 11.0207 9.12311 11.0312 9.11664C11.0415 9.11029 11.0499 9.08607 11.0499 9.06283C11.0499 9.03958 11.0577 9.02058 11.0672 9.02058C11.0767 9.02058 11.0845 9.01194 11.0845 9.0014C11.0845 8.96467 11.2481 8.6483 11.2787 8.62583C11.2957 8.61341 11.3095 8.59335 11.3095 8.58126C11.3095 8.56918 11.329 8.54101 11.3528 8.51864C11.3766 8.49628 11.3961 8.46911 11.3961 8.45824C11.3961 8.42021 11.8001 8.05133 11.8418 8.05133C11.8507 8.05133 11.8721 8.03575 11.8893 8.01671C11.9066 7.99767 11.9285 7.9821 11.938 7.9821C11.9475 7.9821 11.9808 7.96263 12.012 7.93883C12.0432 7.91503 12.0796 7.89556 12.093 7.89556C12.1062 7.89556 12.1555 7.87612 12.2023 7.85236C12.2491 7.82859 12.2985 7.80912 12.312 7.80909C12.3256 7.80905 12.3493 7.79752 12.3648 7.7835C12.3808 7.76903 12.4473 7.75294 12.5182 7.74634C12.587 7.73994 12.6474 7.72807 12.6525 7.71993C12.6575 7.71181 12.7258 7.70517 12.8042 7.70517C12.8937 7.70517 12.9548 7.69726 12.9681 7.68397C12.9848 7.66723 12.9964 7.66723 13.0232 7.68397C13.0438 7.69683 13.1219 7.70517 13.2218 7.70517C13.3124 7.70517 13.3865 7.71206 13.3865 7.72047C13.3865 7.72886 13.4366 7.74112 13.4979 7.74768C13.5601 7.75434 13.6184 7.77054 13.6299 7.78432C13.6411 7.7979 13.6661 7.80902 13.6855 7.80902C13.7175 7.80902 13.8774 7.87539 13.9403 7.91479C13.9546 7.92372 13.9999 7.94698 14.0409 7.96649C14.0819 7.98597 14.1197 8.01304 14.125 8.02663C14.1302 8.04022 14.146 8.05133 14.1601 8.05133C14.1919 8.05133 14.2512 8.10292 14.4506 8.30403C14.6553 8.51049 14.695 8.55622 14.7095 8.60181C14.7161 8.6227 14.729 8.6398 14.7381 8.6398C14.7472 8.6398 14.7625 8.66121 14.772 8.6874C14.7935 8.74671 14.8625 8.88779 14.8757 8.89942C14.8966 8.91792 14.9442 9.03628 14.9442 9.06977C14.9442 9.08919 14.952 9.10989 14.9615 9.11577C14.971 9.12166 14.9788 9.14892 14.9788 9.17635C14.9788 9.20378 14.9866 9.23104 14.9961 9.23693C15.0057 9.24281 15.0134 9.27786 15.0134 9.31481C15.0134 9.35177 15.0212 9.38682 15.0308 9.3927C15.0403 9.39862 15.0481 9.47685 15.0481 9.56777V9.73214L15.4102 9.72685C15.7582 9.72176 15.7739 9.72005 15.8137 9.68261C15.8365 9.6612 15.8643 9.64367 15.8756 9.64367C15.8869 9.64367 15.8962 9.6332 15.8962 9.62039C15.8962 9.60758 15.9115 9.58318 15.9304 9.56614C15.9492 9.54913 15.9604 9.5284 15.9552 9.52007C15.9501 9.51176 15.9581 9.50029 15.9729 9.49457C15.9966 9.48551 16 9.42406 16 9.00973V8.53526L15.9564 8.46624C15.8634 8.31893 15.763 8.25902 15.6089 8.25902C15.5089 8.25902 15.4979 8.25544 15.4897 8.22008C15.4847 8.19867 15.4788 7.53922 15.4764 6.75466C15.473 5.63194 15.4675 5.32665 15.4505 5.32099C15.4386 5.31703 15.4288 5.29928 15.4288 5.28156C15.4288 5.23298 15.3152 5.01735 15.2743 4.98831C15.2546 4.97431 15.2384 4.95222 15.2384 4.93924C15.2384 4.92624 15.2112 4.89149 15.1779 4.862C15.1446 4.83249 15.1173 4.79969 15.1173 4.7891C15.1173 4.7785 15.0865 4.73972 15.0488 4.70292C15.0111 4.66612 14.9835 4.63076 14.9875 4.62434C14.9914 4.61792 14.9639 4.58256 14.9262 4.54576C14.8885 4.50897 14.8577 4.47028 14.8577 4.45979C14.8577 4.44932 14.8304 4.41433 14.7971 4.38203C14.7638 4.34973 14.7365 4.31339 14.7365 4.30127C14.7365 4.28914 14.7132 4.262 14.6848 4.24095C14.6563 4.21992 14.6285 4.18833 14.6229 4.17077C14.6173 4.15322 14.5861 4.11294 14.5535 4.08128C14.5209 4.04963 14.4942 4.01453 14.4942 4.00329C14.4942 3.99208 14.4669 3.95895 14.4336 3.9297C14.4003 3.90045 14.373 3.86722 14.373 3.85585C14.373 3.84449 14.3419 3.80477 14.3038 3.76759C14.2657 3.73042 14.2346 3.6927 14.2346 3.68381C14.2346 3.67491 14.2054 3.63375 14.1697 3.59235C14.0395 3.44142 13.9923 3.38235 13.9923 3.37057C13.9923 3.36395 13.965 3.33282 13.9317 3.3014C13.8984 3.26997 13.8711 3.2374 13.871 3.229C13.871 3.22061 13.8437 3.18409 13.8104 3.14786C13.7772 3.11164 13.75 3.07636 13.75 3.06947C13.75 3.04029 13.5294 2.84276 13.4846 2.83182C13.4577 2.82524 13.4314 2.80894 13.4263 2.79561C13.4209 2.78138 13.4041 2.77543 13.3859 2.78123C13.3688 2.78666 13.3498 2.78299 13.3437 2.77309C13.3326 2.75521 11.4397 2.75016 11.3441 2.76774ZM12.9927 3.76327C13.0402 3.79002 13.2134 3.96051 13.2134 3.98053C13.2134 3.98858 13.2444 4.02574 13.2823 4.06311C13.3203 4.10048 13.3514 4.13927 13.3516 4.1493C13.3517 4.15933 13.3791 4.19396 13.4125 4.22626C13.4458 4.25855 13.473 4.2936 13.473 4.30414C13.473 4.31468 13.5003 4.34973 13.5336 4.38203C13.5669 4.41433 13.5942 4.44809 13.5942 4.45709C13.5942 4.47352 13.6683 4.56413 13.7889 4.69506C13.8246 4.73383 13.8538 4.77118 13.8538 4.77809C13.8538 4.78499 13.8811 4.81705 13.9144 4.84934C13.9477 4.88164 13.975 4.91676 13.975 4.92739C13.975 4.93801 13.9986 4.96939 14.0275 4.9971C14.1176 5.0834 14.1535 5.18316 14.11 5.22666C14.0772 5.25941 12.0481 5.25636 12.0209 5.22354C12.0067 5.20644 12.001 4.99894 12.001 4.49453C12.001 3.99012 12.0067 3.78262 12.0209 3.76552C12.0483 3.73246 12.9343 3.7304 12.9927 3.76327ZM2.70568 8.30235C2.67333 8.32616 2.63395 8.35025 2.61817 8.35586C2.6024 8.36147 2.58454 8.37899 2.57848 8.39475C2.5569 8.45099 2.52595 8.50134 2.51295 8.50134C2.50568 8.50134 2.49975 8.71822 2.49975 8.9833C2.49975 9.38702 2.50416 9.47413 2.52697 9.51985C2.54196 9.54987 2.56143 9.57443 2.57024 9.57443C2.57907 9.57443 2.58629 9.59001 2.58629 9.60905C2.58629 9.62809 2.5965 9.64367 2.60898 9.64367C2.62147 9.64367 2.65048 9.6612 2.67345 9.68261C2.71343 9.71991 2.72989 9.72178 3.06181 9.72673L3.40842 9.7319L3.42827 9.68346C3.43919 9.65682 3.45295 9.5537 3.45887 9.4543C3.46616 9.3315 3.47782 9.26452 3.49527 9.24525C3.50937 9.22966 3.52092 9.19532 3.52092 9.16894C3.52092 9.1162 3.53629 9.07806 3.66207 8.81871C3.70899 8.72198 3.75873 8.6334 3.77261 8.62189C3.78649 8.61038 3.79785 8.59174 3.79785 8.5805C3.79785 8.56925 3.82511 8.53363 3.85842 8.50134C3.89174 8.46904 3.919 8.4347 3.919 8.42504C3.919 8.41537 3.95178 8.37405 3.99184 8.33324L4.06467 8.25902H3.41458H2.76449L2.70568 8.30235ZM5.24424 8.27443C5.23564 8.28834 5.19824 8.29695 5.05886 8.31709C5.03369 8.32073 4.99496 8.33641 4.97278 8.35195C4.95061 8.36748 4.91568 8.38018 4.89517 8.38018C4.87466 8.38018 4.84786 8.39224 4.83562 8.40701C4.82338 8.42175 4.78153 8.44915 4.74262 8.46788C4.70373 8.48663 4.6571 8.51155 4.63902 8.52328C4.58218 8.56013 4.29187 8.85816 4.26636 8.90583C4.25296 8.93087 4.23616 8.95135 4.22899 8.95135C4.22184 8.95135 4.21104 8.9739 4.20498 9.00147C4.19893 9.02904 4.17883 9.0653 4.16033 9.08204C4.14183 9.09879 4.1267 9.1301 4.1267 9.15163C4.1267 9.17317 4.11841 9.19354 4.10827 9.19691C4.09814 9.20029 4.08544 9.23793 4.08004 9.28058C4.07464 9.32321 4.05859 9.37146 4.04436 9.3878C4.03016 9.40416 4.02266 9.43336 4.02771 9.45269C4.03277 9.47204 4.02984 9.49222 4.02122 9.49755C4.00002 9.51065 4.00103 9.95038 4.02228 9.96352C4.03149 9.96921 4.03438 9.99713 4.02868 10.0256C4.02192 10.0594 4.02732 10.0876 4.04428 10.1071C4.05854 10.1235 4.07455 10.1712 4.07985 10.213C4.08513 10.2548 4.09625 10.2938 4.10456 10.2995C4.12274 10.3122 4.21324 10.4967 4.21324 10.5211C4.21324 10.5306 4.22882 10.5524 4.24786 10.5696C4.26689 10.5869 4.28258 10.6095 4.28271 10.6199C4.28337 10.6702 4.71292 11.0456 4.76976 11.0456C4.77861 11.0456 4.80258 11.0612 4.823 11.0802C4.84344 11.0993 4.86949 11.1148 4.88088 11.1148C4.89228 11.1148 4.92391 11.1265 4.95118 11.1407C4.97844 11.1549 5.02161 11.1666 5.04712 11.1667C5.07262 11.1667 5.10516 11.1785 5.11943 11.1927C5.13401 11.2073 5.17631 11.2187 5.21588 11.2187C5.25463 11.2187 5.28634 11.2265 5.28634 11.236C5.28634 11.2466 5.36711 11.2533 5.49403 11.2533C5.62095 11.2533 5.70173 11.2466 5.70173 11.236C5.70173 11.2265 5.73193 11.2187 5.76885 11.2187C5.80575 11.2187 5.84509 11.2077 5.85626 11.1942C5.86742 11.1808 5.9151 11.1645 5.96221 11.158C6.00934 11.1515 6.04789 11.1392 6.04789 11.1305C6.04789 11.1219 6.06347 11.1148 6.08251 11.1148C6.10154 11.1148 6.11712 11.1066 6.11712 11.0965C6.11712 11.0864 6.12403 11.0825 6.13247 11.0877C6.1409 11.0929 6.15681 11.0863 6.1678 11.0731C6.17879 11.0598 6.20821 11.0439 6.23319 11.0376C6.25816 11.0314 6.30128 11.0092 6.32901 10.9883C6.41589 10.923 6.70559 10.627 6.70559 10.6036C6.70559 10.5912 6.71267 10.5786 6.72134 10.5754C6.74359 10.5673 6.87867 10.3014 6.87867 10.2658C6.87867 10.2496 6.88987 10.2271 6.90355 10.2157C6.91722 10.2044 6.93318 10.1509 6.93901 10.0968C6.94483 10.0427 6.95701 9.98496 6.96606 9.96843C6.98654 9.93105 6.98803 9.53982 6.96771 9.53982C6.95955 9.53982 6.94782 9.48542 6.94164 9.41892C6.93486 9.34588 6.91677 9.27566 6.89595 9.24151C6.877 9.21043 6.86116 9.16943 6.86073 9.15039C6.86031 9.13135 6.83691 9.08881 6.80873 9.05585C6.78057 9.0229 6.75752 8.98176 6.75752 8.96443C6.75752 8.94712 6.74584 8.92846 6.73156 8.92299C6.71728 8.91751 6.70559 8.90359 6.70559 8.89207C6.70559 8.87076 6.42351 8.58355 6.33939 8.51922C6.3141 8.49987 6.28165 8.48403 6.26729 8.48403C6.25292 8.48403 6.23857 8.4779 6.23539 8.47041C6.22857 8.45429 6.04375 8.36287 6.018 8.36287C6.0082 8.36287 5.99056 8.35126 5.9788 8.33708C5.96568 8.32128 5.94212 8.31512 5.91799 8.32118C5.89632 8.32661 5.87339 8.32265 5.86702 8.31235C5.86067 8.30205 5.82522 8.29364 5.78827 8.29364C5.75132 8.29364 5.71627 8.28585 5.71038 8.27633C5.69704 8.25473 5.25754 8.25293 5.24424 8.27443ZM12.7461 8.27445C12.7461 8.2908 12.6467 8.31155 12.5709 8.31105C12.5459 8.31088 12.5159 8.32227 12.5042 8.33634C12.4926 8.35043 12.4568 8.36687 12.4248 8.37288C12.3927 8.37888 12.3572 8.39505 12.3458 8.40881C12.3344 8.42257 12.2932 8.4495 12.2543 8.46868C12.1225 8.5336 12.1009 8.55009 11.9466 8.70322C11.7932 8.85541 11.776 8.87806 11.711 9.01402C11.6923 9.05324 11.6683 9.09071 11.6576 9.09725C11.647 9.10379 11.6384 9.12816 11.6384 9.15141C11.6384 9.17465 11.6325 9.19373 11.6254 9.1938C11.6047 9.194 11.5691 9.28271 11.5691 9.33413C11.5691 9.36001 11.5594 9.38441 11.5475 9.38839C11.5312 9.39384 11.5259 9.48137 11.5259 9.74753C11.5259 10.0137 11.5312 10.1012 11.5475 10.1067C11.5594 10.1106 11.5691 10.1353 11.5691 10.1614C11.5691 10.1876 11.5886 10.2473 11.6123 10.2941C11.6361 10.3409 11.6556 10.389 11.6556 10.4009C11.6557 10.4128 11.6626 10.4225 11.6711 10.4225C11.6796 10.4225 11.6984 10.4522 11.7129 10.4884C11.7274 10.5246 11.7516 10.5645 11.7667 10.5771C11.7818 10.5896 11.7942 10.6088 11.7942 10.6197C11.7942 10.6448 12.1085 10.9591 12.1336 10.9591C12.1439 10.9591 12.1659 10.9742 12.1827 10.9927C12.1994 11.0112 12.2361 11.0314 12.2641 11.0375C12.2921 11.0437 12.3243 11.0636 12.3357 11.0818C12.347 11.1 12.3691 11.1148 12.3848 11.1148C12.4005 11.1148 12.4356 11.1265 12.4629 11.1407C12.4901 11.1549 12.5324 11.1666 12.5567 11.1667C12.5811 11.1667 12.6161 11.1782 12.6346 11.1922C12.6531 11.2062 12.6974 11.2178 12.7331 11.2181C12.7688 11.2185 12.798 11.2265 12.798 11.236C12.798 11.2466 12.8788 11.2533 13.0057 11.2533C13.1326 11.2533 13.2134 11.2466 13.2134 11.236C13.2134 11.2265 13.2436 11.2187 13.2805 11.2187C13.3181 11.2187 13.3568 11.2076 13.3685 11.1936C13.3799 11.1798 13.4257 11.1631 13.4701 11.1566C13.5146 11.15 13.5548 11.1394 13.5596 11.1331C13.5643 11.1267 13.6195 11.097 13.6822 11.0671C13.745 11.0372 13.8063 11.0006 13.8185 10.9859C13.8307 10.9711 13.8497 10.9591 13.8606 10.9591C13.8832 10.9591 14.2068 10.6352 14.2237 10.5956C14.2298 10.5813 14.2542 10.5385 14.2779 10.5004C14.3425 10.3967 14.3904 10.2904 14.3904 10.2504C14.3904 10.2308 14.3981 10.2148 14.4077 10.2148C14.4172 10.2148 14.425 10.1958 14.425 10.1726C14.425 10.1493 14.4328 10.1255 14.4423 10.1196C14.4518 10.1138 14.4596 10.0744 14.4596 10.0321C14.4596 9.98979 14.4674 9.95521 14.4769 9.95521C14.4875 9.95521 14.4942 9.87443 14.4942 9.74751C14.4942 9.6206 14.4875 9.53982 14.4769 9.53982C14.4674 9.53982 14.4596 9.50524 14.4596 9.46295C14.4596 9.42067 14.4518 9.38128 14.4423 9.37539C14.4328 9.36951 14.425 9.34657 14.425 9.32442C14.425 9.30228 14.4133 9.26185 14.3991 9.23457C14.3849 9.20731 14.3732 9.17034 14.3731 9.15241C14.3731 9.1345 14.359 9.10724 14.3419 9.09184C14.3247 9.07645 14.2969 9.03659 14.28 9.00327C14.2632 8.96995 14.2389 8.92405 14.2262 8.90126C14.1953 8.84622 13.9065 8.55473 13.8625 8.53424C13.8434 8.52538 13.8045 8.50279 13.7759 8.48403C13.7135 8.44304 13.5505 8.36287 13.5295 8.36287C13.5213 8.36287 13.5048 8.35315 13.493 8.34124C13.481 8.32935 13.4503 8.31753 13.4246 8.315C13.2758 8.30034 13.2134 8.2884 13.2134 8.27458C13.2134 8.26603 13.1083 8.25902 12.9798 8.25902C12.8512 8.25902 12.7461 8.26597 12.7461 8.27445ZM5.58923 9.22827C5.59511 9.23779 5.61893 9.24558 5.64217 9.24558C5.66542 9.24558 5.68442 9.25147 5.68442 9.25867C5.68442 9.26587 5.70973 9.2825 5.74067 9.29564C5.81845 9.32868 5.91609 9.42529 5.94427 9.49714C5.95721 9.53013 5.97414 9.55713 5.98189 9.55713C5.98963 9.55713 5.99597 9.57613 5.99597 9.59937C5.99597 9.62262 6.00375 9.64644 6.01327 9.65232C6.02279 9.6582 6.03058 9.70104 6.03058 9.74751C6.03058 9.79399 6.02279 9.83682 6.01327 9.84271C6.00375 9.84859 5.99597 9.86829 5.99597 9.88648C5.99597 10.0084 5.75313 10.2494 5.63026 10.2494C5.61358 10.2494 5.59511 10.2572 5.58923 10.2668C5.58334 10.2763 5.5405 10.2841 5.49403 10.2841C5.44756 10.2841 5.40472 10.2763 5.39884 10.2668C5.39295 10.2572 5.37449 10.2494 5.3578 10.2494C5.30922 10.2494 5.18787 10.1843 5.12871 10.1265C5.06607 10.0653 4.9921 9.93453 4.9921 9.88506C4.9921 9.86652 4.98431 9.85136 4.97479 9.85136C4.96527 9.85136 4.95748 9.80899 4.95748 9.75719C4.95748 9.70539 4.96527 9.6582 4.97479 9.65232C4.98431 9.64644 4.9921 9.62691 4.9921 9.60895C4.9921 9.48703 5.23324 9.24558 5.35501 9.24558C5.37324 9.24558 5.39295 9.23779 5.39884 9.22827C5.40472 9.21875 5.44756 9.21097 5.49403 9.21097C5.5405 9.21097 5.58334 9.21875 5.58923 9.22827ZM13.1055 9.22639C13.122 9.23485 13.1745 9.2597 13.2221 9.28162C13.3711 9.35019 13.43 9.42221 13.5225 9.64881C13.5469 9.70852 13.5484 9.82822 13.525 9.84271C13.5154 9.84859 13.5076 9.87241 13.5076 9.89565C13.5076 9.9189 13.5013 9.9379 13.4936 9.9379C13.4858 9.9379 13.4686 9.96572 13.4553 9.99969C13.4267 10.0725 13.3035 10.1916 13.2404 10.2075C13.216 10.2136 13.1961 10.2255 13.1961 10.234C13.1961 10.2425 13.1771 10.2494 13.1539 10.2494C13.1306 10.2494 13.1068 10.2572 13.1009 10.2668C13.095 10.2763 13.0478 10.2841 12.996 10.2841C12.9442 10.2841 12.9019 10.2763 12.9019 10.2668C12.9019 10.2572 12.8878 10.2494 12.8705 10.2494C12.8204 10.2494 12.6905 10.1813 12.6279 10.1221C12.5708 10.0682 12.5038 9.94637 12.5038 9.89661C12.5038 9.88236 12.496 9.8659 12.4865 9.86002C12.4632 9.84567 12.4643 9.66605 12.4876 9.65159C12.4978 9.64531 12.502 9.62944 12.497 9.61632C12.4841 9.58264 12.5534 9.45636 12.6242 9.38448C12.6882 9.31961 12.8187 9.24558 12.8692 9.24558C12.886 9.24558 12.9046 9.23779 12.9105 9.22827C12.9238 9.20681 13.0646 9.20544 13.1055 9.22639Z" fill="#182D78"/>
</svg>
