<svg width="18" height="10" viewBox="0 0 18 10" fill="none" xmlns="http://www.w3.org/2000/svg">
<path fill-rule="evenodd" clip-rule="evenodd" d="M10.7751 9.85443L13.3073 0.404357L12.3414 0.145538L9.80922 9.59562L10.7751 9.85443ZM4.50179 8.1868H0.066879V7.10001L1.55912 5.59105C1.98547 5.1452 2.26413 4.84145 2.3951 4.67983C2.52607 4.51542 2.61664 4.37469 2.6668 4.25766C2.71975 4.14062 2.74622 4.01801 2.74622 3.88982C2.74622 3.73098 2.69467 3.60559 2.59156 3.51363C2.48846 3.42167 2.34355 3.37569 2.15685 3.37569C1.96457 3.37569 1.76951 3.43142 1.57166 3.54289C1.37659 3.65156 1.15506 3.81319 0.907046 4.02776L0 2.96605C0.314889 2.68461 0.579618 2.48397 0.794188 2.36414C1.00876 2.24153 1.24144 2.14818 1.49224 2.08409C1.74582 2.02 2.03006 1.98795 2.34494 1.98795C2.74064 1.98795 3.09315 2.05762 3.40247 2.19695C3.71457 2.33628 3.95561 2.53552 4.1256 2.79468C4.29837 3.05105 4.38475 3.33946 4.38475 3.65992C4.38475 3.89957 4.3541 4.12111 4.29279 4.32453C4.23428 4.52796 4.14232 4.72859 4.01692 4.92645C3.89152 5.12151 3.72432 5.32772 3.51533 5.54508C3.30912 5.76243 2.86744 6.17485 2.19029 6.78234V6.82414H4.50179V8.1868ZM9.97099 7.00387H9.29802V8.1868H7.66784V7.00387H5.23094V5.79169L7.77234 2.07573H9.29802V5.77079H9.97099V7.00387ZM7.66784 5.77079V5.0602C7.66784 4.92645 7.67202 4.74671 7.68038 4.52099C7.69153 4.29249 7.69989 4.17266 7.70546 4.16152H7.65948C7.56474 4.37609 7.45745 4.57672 7.33763 4.76343L6.66048 5.77079H7.66784ZM14.1378 8.18679L16.2361 3.45092H13.5902V2.08408H18V3.05801L15.8474 8.18679H14.1378Z" fill="#182D78"/>
</svg>
