<svg width="16" height="17" viewBox="0 0 16 17" fill="none" xmlns="http://www.w3.org/2000/svg">
<path d="M8 16.5C12.4193 16.5 16 12.9193 16 8.5C16 4.08067 12.4193 0.5 8 0.5C3.58067 0.5 0 4.08067 0 8.5C0 12.9193 3.58067 16.5 8 16.5ZM3.66067 8.32667L11.374 5.35267C11.732 5.22333 12.0447 5.44 11.9287 5.98133L11.9293 5.98067L10.616 12.168C10.5187 12.6067 10.258 12.7133 9.89333 12.5067L7.89333 11.0327L6.92867 11.962C6.822 12.0687 6.732 12.1587 6.52533 12.1587L6.66733 10.1233L10.374 6.77467C10.5353 6.63267 10.338 6.55267 10.1253 6.694L5.54467 9.578L3.57 8.962C3.14133 8.826 3.132 8.53333 3.66067 8.32667Z" fill="white"/>
</svg>
