<svg width="16" height="17" viewBox="0 0 16 17" fill="none" xmlns="http://www.w3.org/2000/svg">
<path d="M8.002 0.5H7.998C3.587 0.5 0 4.088 0 8.5C0 10.25 0.564 11.872 1.523 13.189L0.526 16.161L3.601 15.178C4.866 16.016 6.375 16.5 8.002 16.5C12.413 16.5 16 12.911 16 8.5C16 4.089 12.413 0.5 8.002 0.5ZM12.657 11.797C12.464 12.342 11.698 12.794 11.087 12.926C10.669 13.015 10.123 13.086 8.285 12.324C5.934 11.35 4.42 8.961 4.302 8.806C4.189 8.651 3.352 7.541 3.352 6.393C3.352 5.245 3.935 4.686 4.17 4.446C4.363 4.249 4.682 4.159 4.988 4.159C5.087 4.159 5.176 4.164 5.256 4.168C5.491 4.178 5.609 4.192 5.764 4.563C5.957 5.028 6.427 6.176 6.483 6.294C6.54 6.412 6.597 6.572 6.517 6.727C6.442 6.887 6.376 6.958 6.258 7.094C6.14 7.23 6.028 7.334 5.91 7.48C5.802 7.607 5.68 7.743 5.816 7.978C5.952 8.208 6.422 8.975 7.114 9.591C8.007 10.386 8.731 10.64 8.99 10.748C9.183 10.828 9.413 10.809 9.554 10.659C9.733 10.466 9.954 10.146 10.179 9.831C10.339 9.605 10.541 9.577 10.753 9.657C10.969 9.732 12.112 10.297 12.347 10.414C12.582 10.532 12.737 10.588 12.794 10.687C12.85 10.786 12.85 11.251 12.657 11.797Z" fill="white"/>
</svg>
