<svg width="17" height="17" viewBox="0 0 17 17" fill="none" xmlns="http://www.w3.org/2000/svg">
<path fill-rule="evenodd" clip-rule="evenodd" d="M8.5 16.5C12.9183 16.5 16.5 12.9183 16.5 8.5C16.5 4.08172 12.9183 0.5 8.5 0.5C4.08172 0.5 0.5 4.08172 0.5 8.5C0.5 12.9183 4.08172 16.5 8.5 16.5ZM7.98556 7.82187L3.81889 5.30375C3.54778 5.13937 3.29111 4.5 3.78945 4.5H13.1889C13.6872 4.5 13.4306 5.13937 13.1589 5.30375L8.99222 7.82187C8.85222 7.90625 8.67111 7.94625 8.48889 7.94625C8.30667 7.94625 8.12556 7.90625 7.98556 7.82187ZM8.99222 9.1975L13.285 6.68062C13.5 6.5544 13.5 6.69954 13.5 6.81404V6.8175V11.375C13.5 11.6375 13.1856 12 12.9444 12H4.05556C3.81445 12 3.5 11.6375 3.5 11.375V6.81687L3.5 6.81341C3.49998 6.69891 3.49995 6.55378 3.71445 6.68C3.94668 6.81605 6.14495 8.11223 7.29659 8.79129C7.67395 9.0138 7.93894 9.17004 7.98556 9.1975C8.17445 9.30875 8.30667 9.32187 8.48889 9.32187C8.67111 9.32187 8.80333 9.30875 8.99222 9.1975Z" fill="white"/>
</svg>
