<svg width="44" height="44" viewBox="0 0 44 44" fill="none" xmlns="http://www.w3.org/2000/svg">
<path d="M37.5563 6.44359C33.4011 2.28843 27.8764 0 22 0C16.1235 0 10.5988 2.28843 6.44359 6.44359C2.28834 10.5988 0 16.1236 0 22C0 27.8764 2.28834 33.4011 6.44359 37.5563C10.5988 41.7116 16.1235 44 22 44C27.8764 44 33.4011 41.7116 37.5563 37.5563C41.7116 33.4011 44 27.8764 44 22C44 16.1236 41.7116 10.5989 37.5563 6.44359ZM22 41.4219C11.2907 41.4219 2.57812 32.7093 2.57812 22C2.57812 11.2907 11.2907 2.57812 22 2.57812C32.7093 2.57812 41.4219 11.2907 41.4219 22C41.4219 32.7093 32.7093 41.4219 22 41.4219Z" fill="#2950D9"/>
<path d="M32.5106 14.941C32.0073 14.4377 31.1911 14.4377 30.6877 14.9411L19.3045 26.3242L13.3124 20.3321C12.809 19.8287 11.9928 19.8287 11.4894 20.3321C10.986 20.8354 10.986 21.6516 11.4894 22.1551L18.393 29.0587C18.6447 29.3104 18.9746 29.4362 19.3044 29.4362C19.6343 29.4362 19.9643 29.3103 20.2159 29.0587L32.5106 16.764C33.014 16.2606 33.014 15.4444 32.5106 14.941Z" fill="#2950D9"/>
</svg>
