<svg width="14" height="13" viewBox="0 0 14 13" fill="none" xmlns="http://www.w3.org/2000/svg">
<path d="M7.17188 0C3.58763 0 0.671875 2.91576 0.671875 6.5C0.671875 10.0842 3.58763 13 7.17188 13C10.7561 13 13.6719 10.0842 13.6719 6.5C13.6719 2.91576 10.7561 0 7.17188 0ZM10.2632 9.86208C10.1576 9.9677 10.0189 10.0209 9.88024 10.0209C9.74158 10.0209 9.60283 9.9677 9.4973 9.86208L6.78893 7.15381C6.68707 7.05254 6.63024 6.91488 6.63024 6.77087V3.25C6.63024 2.95047 6.87284 2.70837 7.17188 2.70837C7.47091 2.70837 7.71351 2.95047 7.71351 3.25V6.54662L10.2632 9.09619C10.4749 9.30804 10.4749 9.65032 10.2632 9.86208Z" fill="#182D78"/>
</svg>
