<svg width="16" height="15" viewBox="0 0 16 15" fill="none" xmlns="http://www.w3.org/2000/svg">
<path d="M7.53084 10.5213C7.79016 10.78 8.20924 10.78 8.46801 10.5213L12.1724 6.81683C12.3619 6.62681 12.4187 6.34202 12.3167 6.09525C12.2136 5.84741 11.9725 5.68595 11.7044 5.68595H10.0851V0.88248C10.0851 0.395143 9.68997 0 9.20316 0H6.79569C6.30888 0 5.9137 0.395143 5.9137 0.88248V5.68592H4.29503C4.0269 5.68592 3.78636 5.84738 3.68325 6.09522C3.58069 6.34198 3.63746 6.62681 3.827 6.8168L7.53084 10.5213Z" fill="white"/>
<path d="M15.2045 6.83034C14.7655 6.83034 14.4094 7.18648 14.4094 7.62588V10.9518C14.4094 11.9483 13.5982 12.7595 12.6017 12.7595H3.39824C2.40172 12.7595 1.59111 11.9483 1.59111 10.9518V7.62588C1.59111 7.18648 1.23445 6.83034 0.79554 6.83034C0.356144 6.83034 0 7.18648 0 7.62588V10.9518C0 12.8261 1.52446 14.35 3.39824 14.35H12.6017C14.4755 14.35 16 12.8261 16 10.9518V7.62588C16 7.18648 15.6439 6.83034 15.2045 6.83034Z" fill="white"/>
</svg>
