<svg width="20" height="20" viewBox="0 0 20 20" fill="none" xmlns="http://www.w3.org/2000/svg">
<g clip-path="url(#clip0_1806_15417)">
<path d="M14.4677 16.7264C14.5648 16.512 14.7043 16.3194 14.8779 16.1605C15.0515 16.0015 15.2556 15.8794 15.4777 15.8016V14.1406C15.4782 13.6746 15.6636 13.2278 15.9931 12.8982C16.3227 12.5687 16.7695 12.3833 17.2355 12.3828H18.2422C18.4418 12.3827 18.64 12.4168 18.8281 12.4836V1.75781C18.8276 1.29177 18.6422 0.844968 18.3127 0.515427C17.9831 0.185886 17.5363 0.000521426 17.0703 0H5.35156C4.88552 0.000529345 4.43872 0.185897 4.10919 0.515435C3.77965 0.844974 3.59428 1.29177 3.59375 1.75781V2.61719H13.6719C14.2933 2.6179 14.889 2.86506 15.3284 3.30445C15.7678 3.74383 16.0149 4.33956 16.0156 4.96094V10.4297C16.0149 11.0511 15.7677 11.6468 15.3284 12.0862C14.889 12.5255 14.2933 12.7727 13.6719 12.7734H3.59375V18.2422C3.59429 18.7082 3.77966 19.155 4.10919 19.4846C4.43873 19.8141 4.88553 19.9995 5.35156 20H15.9259L14.7301 18.6049C14.5094 18.3507 14.3671 18.038 14.3205 17.7045C14.2739 17.3711 14.3251 17.0313 14.4677 16.7264Z" fill="white"/>
<path d="M19.4131 16.875H18.8283V14.1406C18.8283 14.0636 18.8132 13.9875 18.7837 13.9164C18.7543 13.8453 18.7111 13.7807 18.6567 13.7263C18.6023 13.6719 18.5377 13.6287 18.4666 13.5993C18.3956 13.5698 18.3194 13.5547 18.2424 13.5547H17.2357C17.0803 13.5547 16.9313 13.6164 16.8214 13.7263C16.7115 13.8362 16.6498 13.9852 16.6497 14.1406V16.875H16.0649C15.9529 16.875 15.8432 16.9071 15.7488 16.9676C15.6545 17.0281 15.5794 17.1143 15.5326 17.2161C15.4858 17.3179 15.4691 17.431 15.4846 17.542C15.5001 17.653 15.5471 17.7572 15.62 17.8423L17.2941 19.7954C17.3491 19.8596 17.4174 19.9111 17.4942 19.9464C17.571 19.9817 17.6545 20 17.739 20C17.8236 20 17.9071 19.9817 17.9839 19.9464C18.0607 19.9111 18.1289 19.8596 18.1839 19.7954L19.858 17.8423C19.9309 17.7572 19.9779 17.653 19.9934 17.542C20.0089 17.431 19.9923 17.3179 19.9454 17.2161C19.8986 17.1143 19.8236 17.0281 19.7292 16.9676C19.6349 16.9071 19.5252 16.875 19.4131 16.875Z" fill="white"/>
<path fill-rule="evenodd" clip-rule="evenodd" d="M14.8438 4.96094V10.4297C14.8438 10.7405 14.7203 11.0386 14.5005 11.2584C14.2808 11.4781 13.9827 11.6016 13.6719 11.6016H1.17188C1.01799 11.6016 0.865598 11.5713 0.723418 11.5124C0.581238 11.4535 0.452051 11.3672 0.343232 11.2584C0.234412 11.1495 0.148093 11.0203 0.089201 10.8782C0.0303092 10.736 1.70674e-10 10.5836 1.70674e-10 10.4297V4.96094C-2.62627e-06 4.80705 0.0303078 4.65466 0.0892006 4.51248C0.148093 4.37029 0.234415 4.24111 0.343237 4.13229C0.452059 4.02347 0.581249 3.93715 0.723432 3.87826C0.865614 3.81936 1.018 3.78906 1.1719 3.78906H13.6719C13.8258 3.78906 13.9782 3.81937 14.1204 3.87826C14.2625 3.93716 14.3917 4.02348 14.5006 4.13229C14.6094 4.24111 14.6957 4.3703 14.7546 4.51248C14.8135 4.65466 14.8438 4.80705 14.8438 4.96094ZM3.22845 7.76181L2.26751 9.16513C2.14649 9.31751 2.07221 9.50169 2.05366 9.6954C2.04996 9.74703 2.05737 9.79884 2.0754 9.84736C2.09342 9.89588 2.12164 9.93997 2.15815 9.97665C2.22928 10.0421 2.32331 10.0768 2.41987 10.0734C2.481 10.0747 2.54177 10.0637 2.59858 10.0411C2.64782 10.0207 2.6926 9.9908 2.73042 9.95322C2.76561 9.91802 2.79764 9.87978 2.82612 9.83896L2.84608 9.80832C2.8725 9.76782 2.91042 9.70968 2.95893 9.63388L3.76165 8.40927L4.51752 9.59868C4.61322 9.74517 4.67865 9.8438 4.71381 9.89458C4.74983 9.94651 4.79684 9.98987 4.8515 10.0216C4.91476 10.0577 4.98673 10.0756 5.0595 10.0734C5.13099 10.0745 5.20158 10.0574 5.26458 10.0236C5.32297 9.99241 5.37163 9.94577 5.4052 9.88876C5.43847 9.83192 5.45568 9.76712 5.45501 9.70126C5.45314 9.62135 5.43416 9.54276 5.39934 9.4708C5.34735 9.36467 5.28762 9.2625 5.22063 9.16513L4.3095 7.76181L5.15618 6.49623C5.27861 6.3424 5.35663 6.15801 5.38177 5.96302C5.38187 5.91908 5.3726 5.87562 5.35458 5.83554C5.33656 5.79547 5.31021 5.75969 5.27727 5.7306C5.20461 5.66367 5.10842 5.62821 5.0097 5.63197C4.95482 5.63115 4.90033 5.64143 4.84952 5.6622C4.80235 5.68444 4.76017 5.716 4.72552 5.75497C4.68261 5.80349 4.64374 5.85543 4.60931 5.91029L4.57036 5.97118L4.57034 5.97121L4.57029 5.97129C4.53913 6.02004 4.50406 6.0749 4.46477 6.13587L3.7763 7.17887L3.13177 6.13587C3.05056 5.99518 2.95675 5.86214 2.85149 5.73841C2.81453 5.7019 2.7703 5.67355 2.72169 5.65522C2.67307 5.63688 2.62114 5.62896 2.56927 5.63197C2.47052 5.62976 2.37458 5.66498 2.30071 5.73056C2.26757 5.75722 2.24062 5.79076 2.22173 5.82887C2.20285 5.86698 2.19248 5.90874 2.19134 5.95126C2.19298 6.03759 2.21225 6.12266 2.24798 6.20126C2.29789 6.30932 2.35532 6.41374 2.41985 6.51376L3.22845 7.76181ZM6.95019 6.1592V9.2852H8.71386C8.83069 9.27734 8.94617 9.31397 9.0371 9.38774C9.07361 9.41988 9.10266 9.4596 9.12223 9.50413C9.1418 9.54866 9.1514 9.59693 9.15038 9.64555C9.15202 9.69394 9.14289 9.74209 9.12363 9.78651C9.10438 9.83093 9.07549 9.87051 9.03905 9.90239C8.94627 9.97368 8.83056 10.0084 8.71386 10H6.61327C6.54028 10.007 6.46663 9.99951 6.39656 9.97788C6.3265 9.95626 6.26142 9.92096 6.20507 9.87404C6.11125 9.76014 6.06632 9.61374 6.08007 9.46681V6.1592C6.06895 6.01711 6.11146 5.87601 6.19921 5.76369C6.23824 5.72016 6.28639 5.68577 6.34024 5.66299C6.39409 5.64021 6.45231 5.62959 6.51073 5.6319C6.56982 5.62978 6.62868 5.64027 6.68341 5.66266C6.73813 5.68506 6.78746 5.71885 6.82811 5.76178C6.91758 5.87406 6.9612 6.01606 6.95019 6.1592ZM12.6035 9.41113C12.738 9.20257 12.8079 8.95904 12.8047 8.71094C12.8104 8.52143 12.7709 8.33328 12.6895 8.16206C12.6134 8.01431 12.5028 7.88704 12.3672 7.79097C12.2123 7.68489 12.0434 7.60107 11.8652 7.54197C11.6496 7.46789 11.4302 7.4053 11.208 7.35447C11.0146 7.30565 10.876 7.26854 10.792 7.24315C10.7055 7.21672 10.6221 7.18137 10.543 7.13768C10.4677 7.09845 10.4018 7.0435 10.3496 6.97654C10.3021 6.91218 10.2774 6.83385 10.2793 6.75389C10.2812 6.68202 10.3011 6.61177 10.3373 6.54964C10.3735 6.48751 10.4247 6.4355 10.4863 6.39842C10.6471 6.29277 10.8372 6.2408 11.0293 6.24998C11.2156 6.23383 11.4017 6.28209 11.5566 6.3867C11.6768 6.49112 11.7727 6.62041 11.8379 6.76561C11.8812 6.85501 11.9379 6.93732 12.0059 7.00975C12.037 7.03665 12.0731 7.05714 12.1122 7.07005C12.1512 7.08295 12.1924 7.08801 12.2334 7.08494C12.2855 7.08584 12.3371 7.07518 12.3846 7.05374C12.432 7.0323 12.4741 7.0006 12.5078 6.96094C12.5779 6.88436 12.6169 6.78444 12.6172 6.68067C12.6152 6.55923 12.5851 6.43991 12.5293 6.33203C12.4605 6.20052 12.3659 6.08426 12.251 5.99024C12.1089 5.8744 11.9462 5.78628 11.7715 5.73047C11.5506 5.66057 11.3196 5.62725 11.0879 5.63184C10.7941 5.62578 10.5017 5.67582 10.2266 5.7793C10.0028 5.86304 9.80827 6.01035 9.66703 6.20313C9.53786 6.3875 9.47019 6.60793 9.47365 6.83301C9.46546 7.05468 9.52956 7.27301 9.65627 7.45508C9.78477 7.62772 9.95564 7.76429 10.1524 7.85156C10.4014 7.96142 10.6609 8.04615 10.9268 8.10449C11.1131 8.14504 11.2972 8.19491 11.4785 8.25391C11.6055 8.29437 11.7212 8.36393 11.8164 8.45703C11.86 8.50352 11.8939 8.55818 11.9162 8.61786C11.9385 8.67753 11.9487 8.74103 11.9463 8.80469C11.946 8.89361 11.9239 8.9811 11.8818 9.05944C11.8398 9.13779 11.7791 9.20457 11.7051 9.25391C11.5209 9.38143 11.3 9.44491 11.0762 9.43457C10.9199 9.44119 10.7643 9.41074 10.6221 9.34571C10.5152 9.2932 10.4229 9.21503 10.3535 9.11817C10.2821 9.0108 10.2228 8.89584 10.1768 8.77539C10.1427 8.67734 10.0869 8.58822 10.0137 8.51465C9.95065 8.45615 9.86724 8.42461 9.78127 8.42676C9.73025 8.42551 9.6795 8.43453 9.63205 8.4533C9.58459 8.47207 9.5414 8.5002 9.50504 8.53601C9.46868 8.57182 9.4399 8.61458 9.42041 8.66175C9.40093 8.70892 9.39114 8.75952 9.39162 8.81055C9.39729 9.01108 9.4607 9.20571 9.57424 9.3711C9.6935 9.56126 9.85701 9.71974 10.0508 9.83301C10.373 10.0045 10.7349 10.0874 11.0996 10.0733C11.4143 10.0809 11.7271 10.021 12.0166 9.89746C12.2555 9.796 12.4595 9.62696 12.6035 9.41113Z" fill="white"/>
</g>
<defs>
<clipPath id="clip0_1806_15417">
<rect width="20" height="20" fill="white"/>
</clipPath>
</defs>
</svg>
