<?xml version="1.0" standalone="no"?>
<!DOCTYPE svg PUBLIC "-//W3C//DTD SVG 20010904//EN"
 "http://www.w3.org/TR/2001/REC-SVG-20010904/DTD/svg10.dtd">
<svg version="1.0" xmlns="http://www.w3.org/2000/svg"
 width="744.000000pt" height="744.000000pt" viewBox="0 0 744.000000 744.000000"
 preserveAspectRatio="xMidYMid meet">
<metadata>
Created by potrace 1.14, written by Peter Selinger 2001-2017
</metadata>
<g transform="translate(0.000000,744.000000) scale(0.100000,-0.100000)"
fill="#000000" stroke="none">
<path d="M0 3715 l0 -3685 630 0 c593 0 630 1 630 18 0 9 1 1216 1 2681 l0
2665 1244 -1244 1244 -1244 1845 1846 1846 1845 0 402 0 401 -408 0 -409 0
-1437 -1437 -1437 -1437 -1437 1437 -1437 1437 -438 0 -437 0 0 -3685z"/>
<path d="M5593 4035 l-1831 -1833 -1005 1004 c-552 552 -1007 1004 -1009 1004
-3 0 -5 -389 -6 -863 l0 -864 1009 -1008 c555 -555 1011 -1006 1014 -1004 2 2
499 499 1104 1104 605 605 1153 1153 1218 1217 64 64 119 115 121 113 3 -2 4
-650 4 -1440 l0 -1435 614 0 614 0 0 2920 c0 1606 -3 2920 -7 2919 -5 0 -832
-826 -1840 -1834z"/>
</g>
</svg>
