<svg width="131" height="13" viewBox="0 0 131 13" fill="none" xmlns="http://www.w3.org/2000/svg">
<path d="M6.7002 11H0.964844V10.0088L4.78613 4.66992H1.19727V3.43945H6.59082V4.56055L2.85156 9.76953H6.7002V11ZM13.0781 11L12.7568 9.94727H12.7021C12.3376 10.4076 11.9707 10.722 11.6016 10.8906C11.2324 11.0547 10.7585 11.1367 10.1797 11.1367C9.43685 11.1367 8.85579 10.9362 8.43652 10.5352C8.02181 10.1341 7.81445 9.56673 7.81445 8.83301C7.81445 8.05371 8.10384 7.46582 8.68262 7.06934C9.26139 6.67285 10.1432 6.45638 11.3281 6.41992L12.6338 6.37891V5.97559C12.6338 5.49251 12.5199 5.13249 12.292 4.89551C12.0687 4.65397 11.7201 4.5332 11.2461 4.5332C10.8587 4.5332 10.4873 4.59017 10.1318 4.7041C9.77637 4.81803 9.43457 4.95247 9.10645 5.10742L8.58691 3.95898C8.99707 3.74479 9.44596 3.58301 9.93359 3.47363C10.4212 3.3597 10.8815 3.30273 11.3145 3.30273C12.276 3.30273 13.0007 3.51237 13.4883 3.93164C13.9805 4.35091 14.2266 5.00944 14.2266 5.90723V11H13.0781ZM10.6855 9.90625C11.2689 9.90625 11.736 9.74447 12.0869 9.4209C12.4424 9.09277 12.6201 8.63477 12.6201 8.04688V7.39062L11.6494 7.43164C10.8929 7.45898 10.3415 7.58659 9.99512 7.81445C9.65332 8.03776 9.48242 8.38184 9.48242 8.84668C9.48242 9.18392 9.58268 9.44596 9.7832 9.63281C9.98372 9.8151 10.2845 9.90625 10.6855 9.90625ZM18.0205 7.00781L18.9297 5.87305L21.2129 3.43945H23.0654L20.0234 6.68652L23.2568 11H21.3701L18.9434 7.68457L18.0615 8.40918V11H16.4688V0.363281H18.0615V5.55176L17.9795 7.00781H18.0205ZM29.2109 11L28.8896 9.94727H28.835C28.4704 10.4076 28.1035 10.722 27.7344 10.8906C27.3652 11.0547 26.8913 11.1367 26.3125 11.1367C25.5697 11.1367 24.9886 10.9362 24.5693 10.5352C24.1546 10.1341 23.9473 9.56673 23.9473 8.83301C23.9473 8.05371 24.2367 7.46582 24.8154 7.06934C25.3942 6.67285 26.276 6.45638 27.4609 6.41992L28.7666 6.37891V5.97559C28.7666 5.49251 28.6527 5.13249 28.4248 4.89551C28.2015 4.65397 27.8529 4.5332 27.3789 4.5332C26.9915 4.5332 26.6201 4.59017 26.2646 4.7041C25.9092 4.81803 25.5674 4.95247 25.2393 5.10742L24.7197 3.95898C25.1299 3.74479 25.5788 3.58301 26.0664 3.47363C26.554 3.3597 27.0143 3.30273 27.4473 3.30273C28.4089 3.30273 29.1335 3.51237 29.6211 3.93164C30.1133 4.35091 30.3594 5.00944 30.3594 5.90723V11H29.2109ZM26.8184 9.90625C27.4017 9.90625 27.8688 9.74447 28.2197 9.4209C28.5752 9.09277 28.7529 8.63477 28.7529 8.04688V7.39062L27.7822 7.43164C27.0257 7.45898 26.4743 7.58659 26.1279 7.81445C25.7861 8.03776 25.6152 8.38184 25.6152 8.84668C25.6152 9.18392 25.7155 9.44596 25.916 9.63281C26.1165 9.8151 26.4173 9.90625 26.8184 9.90625ZM37.6533 11H31.918V10.0088L35.7393 4.66992H32.1504V3.43945H37.5439V4.56055L33.8047 9.76953H37.6533V11ZM49.9512 5.94824C49.9512 6.59993 49.8486 7.19694 49.6436 7.73926C49.4385 8.27702 49.1491 8.69629 48.7754 8.99707C48.4062 9.29785 47.9779 9.44824 47.4902 9.44824C47.1302 9.44824 46.818 9.35254 46.5537 9.16113C46.2894 8.96973 46.1117 8.70996 46.0205 8.38184H45.9385C45.7152 8.7373 45.4395 9.00391 45.1113 9.18164C44.7832 9.35938 44.4141 9.44824 44.0039 9.44824C43.2611 9.44824 42.6755 9.20898 42.2471 8.73047C41.8232 8.25195 41.6113 7.60482 41.6113 6.78906C41.6113 5.85026 41.8939 5.08919 42.459 4.50586C43.0241 3.91797 43.7829 3.62402 44.7354 3.62402C45.0817 3.62402 45.4645 3.65592 45.8838 3.71973C46.3076 3.77897 46.6836 3.86328 47.0117 3.97266L46.8613 7.15137V7.31543C46.8613 8.0446 47.0983 8.40918 47.5723 8.40918C47.9323 8.40918 48.2171 8.17676 48.4268 7.71191C48.641 7.24707 48.748 6.65462 48.748 5.93457C48.748 5.15527 48.5885 4.47168 48.2695 3.88379C47.9505 3.29134 47.4971 2.83561 46.9092 2.5166C46.3213 2.19759 45.6468 2.03809 44.8857 2.03809C43.915 2.03809 43.0697 2.23861 42.3496 2.63965C41.6341 3.04069 41.0872 3.61491 40.709 4.3623C40.3307 5.10514 40.1416 5.96875 40.1416 6.95312C40.1416 8.27474 40.4948 9.29102 41.2012 10.002C41.9076 10.7129 42.9215 11.0684 44.2432 11.0684C45.2503 11.0684 46.3008 10.8633 47.3945 10.4531V11.5742C46.4375 11.9661 45.3962 12.1621 44.2705 12.1621C42.5843 12.1621 41.2695 11.7087 40.3262 10.8018C39.3828 9.8903 38.9111 8.62109 38.9111 6.99414C38.9111 5.80469 39.1663 4.7474 39.6768 3.82227C40.1872 2.89258 40.8936 2.18164 41.7959 1.68945C42.7028 1.19727 43.7282 0.951172 44.8721 0.951172C45.861 0.951172 46.7406 1.15625 47.5107 1.56641C48.2855 1.97656 48.8848 2.56217 49.3086 3.32324C49.737 4.07975 49.9512 4.95475 49.9512 5.94824ZM42.9238 6.81641C42.9238 7.87826 43.3408 8.40918 44.1748 8.40918C45.0544 8.40918 45.5352 7.74154 45.6172 6.40625L45.6992 4.77246C45.4121 4.69499 45.1045 4.65625 44.7764 4.65625C44.193 4.65625 43.7373 4.84993 43.4092 5.2373C43.0856 5.62467 42.9238 6.15104 42.9238 6.81641ZM58.25 11H56.6367V6.33789C56.6367 5.75911 56.5273 5.32845 56.3086 5.0459C56.0898 4.75879 55.748 4.61523 55.2832 4.61523C54.6634 4.61523 54.2077 4.81803 53.916 5.22363C53.6289 5.62467 53.4854 6.2946 53.4854 7.2334V11H51.8789V3.43945H53.1367L53.3623 4.43066H53.4443C53.654 4.07064 53.957 3.79264 54.3535 3.59668C54.7546 3.40072 55.1943 3.30273 55.6729 3.30273C56.835 3.30273 57.6051 3.69922 57.9834 4.49219H58.0928C58.3161 4.11849 58.6305 3.82682 59.0361 3.61719C59.4417 3.40755 59.9066 3.30273 60.4307 3.30273C61.333 3.30273 61.9893 3.5306 62.3994 3.98633C62.8141 4.44206 63.0215 5.13704 63.0215 6.07129V11H61.415V6.33789C61.415 5.75911 61.3034 5.32845 61.0801 5.0459C60.8613 4.75879 60.5195 4.61523 60.0547 4.61523C59.4303 4.61523 58.9723 4.8112 58.6807 5.20312C58.3936 5.59049 58.25 6.1875 58.25 6.99414V11ZM68.5654 11.1367C67.3896 11.1367 66.4691 10.7949 65.8037 10.1113C65.1429 9.42318 64.8125 8.47754 64.8125 7.27441C64.8125 6.03939 65.1201 5.06868 65.7354 4.3623C66.3506 3.65592 67.196 3.30273 68.2715 3.30273C69.2695 3.30273 70.0579 3.60579 70.6367 4.21191C71.2155 4.81803 71.5049 5.65202 71.5049 6.71387V7.58203H66.4668C66.4896 8.31576 66.6878 8.88086 67.0615 9.27734C67.4352 9.66927 67.9616 9.86523 68.6406 9.86523C69.0872 9.86523 69.502 9.82422 69.8848 9.74219C70.2721 9.6556 70.6868 9.51432 71.1289 9.31836V10.624C70.737 10.8109 70.3405 10.943 69.9395 11.0205C69.5384 11.098 69.0804 11.1367 68.5654 11.1367ZM68.2715 4.51953C67.7611 4.51953 67.3509 4.68132 67.041 5.00488C66.7357 5.32845 66.5534 5.80013 66.4941 6.41992H69.9258C69.9167 5.79557 69.7663 5.32389 69.4746 5.00488C69.1829 4.68132 68.7819 4.51953 68.2715 4.51953ZM76.1465 9.83789C76.5384 9.83789 76.9303 9.77637 77.3223 9.65332V10.8633C77.1445 10.9408 76.9144 11.0046 76.6318 11.0547C76.3538 11.1094 76.0645 11.1367 75.7637 11.1367C74.2415 11.1367 73.4805 10.3346 73.4805 8.73047V4.65625H72.4482V3.94531L73.5557 3.35742L74.1025 1.75781H75.0938V3.43945H77.2471V4.65625H75.0938V8.70312C75.0938 9.09049 75.1895 9.3776 75.3809 9.56445C75.5768 9.74674 75.832 9.83789 76.1465 9.83789ZM78.6006 10.1455C78.6006 9.81283 78.6872 9.55762 78.8604 9.37988C79.0335 9.20215 79.2842 9.11328 79.6123 9.11328C79.945 9.11328 80.1979 9.20671 80.3711 9.39355C80.5443 9.57585 80.6309 9.8265 80.6309 10.1455C80.6309 10.4691 80.542 10.7266 80.3643 10.918C80.1911 11.1048 79.9404 11.1982 79.6123 11.1982C79.2842 11.1982 79.0335 11.1048 78.8604 10.918C78.6872 10.7311 78.6006 10.4736 78.6006 10.1455ZM89.0664 11H87.4531V6.33789C87.4531 5.75911 87.3438 5.32845 87.125 5.0459C86.9062 4.75879 86.5645 4.61523 86.0996 4.61523C85.4798 4.61523 85.0241 4.81803 84.7324 5.22363C84.4453 5.62467 84.3018 6.2946 84.3018 7.2334V11H82.6953V3.43945H83.9531L84.1787 4.43066H84.2607C84.4704 4.07064 84.7734 3.79264 85.1699 3.59668C85.571 3.40072 86.0107 3.30273 86.4893 3.30273C87.6514 3.30273 88.4215 3.69922 88.7998 4.49219H88.9092C89.1325 4.11849 89.4469 3.82682 89.8525 3.61719C90.2581 3.40755 90.723 3.30273 91.2471 3.30273C92.1494 3.30273 92.8057 3.5306 93.2158 3.98633C93.6305 4.44206 93.8379 5.13704 93.8379 6.07129V11H92.2314V6.33789C92.2314 5.75911 92.1198 5.32845 91.8965 5.0459C91.6777 4.75879 91.3359 4.61523 90.8711 4.61523C90.2467 4.61523 89.7887 4.8112 89.4971 5.20312C89.21 5.59049 89.0664 6.1875 89.0664 6.99414V11ZM100.811 11L100.489 9.94727H100.435C100.07 10.4076 99.7031 10.722 99.334 10.8906C98.9648 11.0547 98.4909 11.1367 97.9121 11.1367C97.1693 11.1367 96.5882 10.9362 96.1689 10.5352C95.7542 10.1341 95.5469 9.56673 95.5469 8.83301C95.5469 8.05371 95.8363 7.46582 96.415 7.06934C96.9938 6.67285 97.8757 6.45638 99.0605 6.41992L100.366 6.37891V5.97559C100.366 5.49251 100.252 5.13249 100.024 4.89551C99.8011 4.65397 99.4525 4.5332 98.9785 4.5332C98.5911 4.5332 98.2197 4.59017 97.8643 4.7041C97.5088 4.81803 97.167 4.95247 96.8389 5.10742L96.3193 3.95898C96.7295 3.74479 97.1784 3.58301 97.666 3.47363C98.1536 3.3597 98.6139 3.30273 99.0469 3.30273C100.008 3.30273 100.733 3.51237 101.221 3.93164C101.713 4.35091 101.959 5.00944 101.959 5.90723V11H100.811ZM98.418 9.90625C99.0013 9.90625 99.4684 9.74447 99.8193 9.4209C100.175 9.09277 100.353 8.63477 100.353 8.04688V7.39062L99.3818 7.43164C98.6253 7.45898 98.0739 7.58659 97.7275 7.81445C97.3857 8.03776 97.2148 8.38184 97.2148 8.84668C97.2148 9.18392 97.3151 9.44596 97.5156 9.63281C97.7161 9.8151 98.0169 9.90625 98.418 9.90625ZM108.036 3.30273C108.36 3.30273 108.626 3.32552 108.836 3.37109L108.679 4.86816C108.451 4.81348 108.214 4.78613 107.968 4.78613C107.325 4.78613 106.803 4.99577 106.402 5.41504C106.006 5.83431 105.808 6.37891 105.808 7.04883V11H104.201V3.43945H105.459L105.671 4.77246H105.753C106.004 4.32129 106.329 3.96354 106.73 3.69922C107.136 3.4349 107.571 3.30273 108.036 3.30273ZM111.796 7.00781L112.705 5.87305L114.988 3.43945H116.841L113.799 6.68652L117.032 11H115.146L112.719 7.68457L111.837 8.40918V11H110.244V0.363281H111.837V5.55176L111.755 7.00781H111.796ZM121.558 11.1367C120.382 11.1367 119.461 10.7949 118.796 10.1113C118.135 9.42318 117.805 8.47754 117.805 7.27441C117.805 6.03939 118.112 5.06868 118.728 4.3623C119.343 3.65592 120.188 3.30273 121.264 3.30273C122.262 3.30273 123.05 3.60579 123.629 4.21191C124.208 4.81803 124.497 5.65202 124.497 6.71387V7.58203H119.459C119.482 8.31576 119.68 8.88086 120.054 9.27734C120.427 9.66927 120.954 9.86523 121.633 9.86523C122.079 9.86523 122.494 9.82422 122.877 9.74219C123.264 9.6556 123.679 9.51432 124.121 9.31836V10.624C123.729 10.8109 123.333 10.943 122.932 11.0205C122.531 11.098 122.073 11.1367 121.558 11.1367ZM121.264 4.51953C120.753 4.51953 120.343 4.68132 120.033 5.00488C119.728 5.32845 119.546 5.80013 119.486 6.41992H122.918C122.909 5.79557 122.758 5.32389 122.467 5.00488C122.175 4.68132 121.774 4.51953 121.264 4.51953ZM129.139 9.83789C129.531 9.83789 129.923 9.77637 130.314 9.65332V10.8633C130.137 10.9408 129.907 11.0046 129.624 11.0547C129.346 11.1094 129.057 11.1367 128.756 11.1367C127.234 11.1367 126.473 10.3346 126.473 8.73047V4.65625H125.44V3.94531L126.548 3.35742L127.095 1.75781H128.086V3.43945H130.239V4.65625H128.086V8.70312C128.086 9.09049 128.182 9.3776 128.373 9.56445C128.569 9.74674 128.824 9.83789 129.139 9.83789Z" fill="white"/>
</svg>
