<svg width="130" height="13" viewBox="0 0 130 13" fill="none" xmlns="http://www.w3.org/2000/svg">
<path d="M5.9502 11H0.214844V10.0088L4.03613 4.66992H0.447266V3.43945H5.84082V4.56055L2.10156 9.76953H5.9502V11ZM12.3281 11L12.0068 9.94727H11.9521C11.5876 10.4076 11.2207 10.722 10.8516 10.8906C10.4824 11.0547 10.0085 11.1367 9.42969 11.1367C8.68685 11.1367 8.10579 10.9362 7.68652 10.5352C7.27181 10.1341 7.06445 9.56673 7.06445 8.83301C7.06445 8.05371 7.35384 7.46582 7.93262 7.06934C8.51139 6.67285 9.39323 6.45638 10.5781 6.41992L11.8838 6.37891V5.97559C11.8838 5.49251 11.7699 5.13249 11.542 4.89551C11.3187 4.65397 10.9701 4.5332 10.4961 4.5332C10.1087 4.5332 9.7373 4.59017 9.38184 4.7041C9.02637 4.81803 8.68457 4.95247 8.35645 5.10742L7.83691 3.95898C8.24707 3.74479 8.69596 3.58301 9.18359 3.47363C9.67122 3.3597 10.1315 3.30273 10.5645 3.30273C11.526 3.30273 12.2507 3.51237 12.7383 3.93164C13.2305 4.35091 13.4766 5.00944 13.4766 5.90723V11H12.3281ZM9.93555 9.90625C10.5189 9.90625 10.986 9.74447 11.3369 9.4209C11.6924 9.09277 11.8701 8.63477 11.8701 8.04688V7.39062L10.8994 7.43164C10.1429 7.45898 9.59147 7.58659 9.24512 7.81445C8.90332 8.03776 8.73242 8.38184 8.73242 8.84668C8.73242 9.18392 8.83268 9.44596 9.0332 9.63281C9.23372 9.8151 9.53451 9.90625 9.93555 9.90625ZM17.2705 7.00781L18.1797 5.87305L20.4629 3.43945H22.3154L19.2734 6.68652L22.5068 11H20.6201L18.1934 7.68457L17.3115 8.40918V11H15.7188V0.363281H17.3115V5.55176L17.2295 7.00781H17.2705ZM28.4609 11L28.1396 9.94727H28.085C27.7204 10.4076 27.3535 10.722 26.9844 10.8906C26.6152 11.0547 26.1413 11.1367 25.5625 11.1367C24.8197 11.1367 24.2386 10.9362 23.8193 10.5352C23.4046 10.1341 23.1973 9.56673 23.1973 8.83301C23.1973 8.05371 23.4867 7.46582 24.0654 7.06934C24.6442 6.67285 25.526 6.45638 26.7109 6.41992L28.0166 6.37891V5.97559C28.0166 5.49251 27.9027 5.13249 27.6748 4.89551C27.4515 4.65397 27.1029 4.5332 26.6289 4.5332C26.2415 4.5332 25.8701 4.59017 25.5146 4.7041C25.1592 4.81803 24.8174 4.95247 24.4893 5.10742L23.9697 3.95898C24.3799 3.74479 24.8288 3.58301 25.3164 3.47363C25.804 3.3597 26.2643 3.30273 26.6973 3.30273C27.6589 3.30273 28.3835 3.51237 28.8711 3.93164C29.3633 4.35091 29.6094 5.00944 29.6094 5.90723V11H28.4609ZM26.0684 9.90625C26.6517 9.90625 27.1188 9.74447 27.4697 9.4209C27.8252 9.09277 28.0029 8.63477 28.0029 8.04688V7.39062L27.0322 7.43164C26.2757 7.45898 25.7243 7.58659 25.3779 7.81445C25.0361 8.03776 24.8652 8.38184 24.8652 8.84668C24.8652 9.18392 24.9655 9.44596 25.166 9.63281C25.3665 9.8151 25.6673 9.90625 26.0684 9.90625ZM36.9033 11H31.168V10.0088L34.9893 4.66992H31.4004V3.43945H36.7939V4.56055L33.0547 9.76953H36.9033V11ZM49.2012 5.94824C49.2012 6.59993 49.0986 7.19694 48.8936 7.73926C48.6885 8.27702 48.3991 8.69629 48.0254 8.99707C47.6562 9.29785 47.2279 9.44824 46.7402 9.44824C46.3802 9.44824 46.068 9.35254 45.8037 9.16113C45.5394 8.96973 45.3617 8.70996 45.2705 8.38184H45.1885C44.9652 8.7373 44.6895 9.00391 44.3613 9.18164C44.0332 9.35938 43.6641 9.44824 43.2539 9.44824C42.5111 9.44824 41.9255 9.20898 41.4971 8.73047C41.0732 8.25195 40.8613 7.60482 40.8613 6.78906C40.8613 5.85026 41.1439 5.08919 41.709 4.50586C42.2741 3.91797 43.0329 3.62402 43.9854 3.62402C44.3317 3.62402 44.7145 3.65592 45.1338 3.71973C45.5576 3.77897 45.9336 3.86328 46.2617 3.97266L46.1113 7.15137V7.31543C46.1113 8.0446 46.3483 8.40918 46.8223 8.40918C47.1823 8.40918 47.4671 8.17676 47.6768 7.71191C47.891 7.24707 47.998 6.65462 47.998 5.93457C47.998 5.15527 47.8385 4.47168 47.5195 3.88379C47.2005 3.29134 46.7471 2.83561 46.1592 2.5166C45.5713 2.19759 44.8968 2.03809 44.1357 2.03809C43.165 2.03809 42.3197 2.23861 41.5996 2.63965C40.8841 3.04069 40.3372 3.61491 39.959 4.3623C39.5807 5.10514 39.3916 5.96875 39.3916 6.95312C39.3916 8.27474 39.7448 9.29102 40.4512 10.002C41.1576 10.7129 42.1715 11.0684 43.4932 11.0684C44.5003 11.0684 45.5508 10.8633 46.6445 10.4531V11.5742C45.6875 11.9661 44.6462 12.1621 43.5205 12.1621C41.8343 12.1621 40.5195 11.7087 39.5762 10.8018C38.6328 9.8903 38.1611 8.62109 38.1611 6.99414C38.1611 5.80469 38.4163 4.7474 38.9268 3.82227C39.4372 2.89258 40.1436 2.18164 41.0459 1.68945C41.9528 1.19727 42.9782 0.951172 44.1221 0.951172C45.111 0.951172 45.9906 1.15625 46.7607 1.56641C47.5355 1.97656 48.1348 2.56217 48.5586 3.32324C48.987 4.07975 49.2012 4.95475 49.2012 5.94824ZM42.1738 6.81641C42.1738 7.87826 42.5908 8.40918 43.4248 8.40918C44.3044 8.40918 44.7852 7.74154 44.8672 6.40625L44.9492 4.77246C44.6621 4.69499 44.3545 4.65625 44.0264 4.65625C43.443 4.65625 42.9873 4.84993 42.6592 5.2373C42.3356 5.62467 42.1738 6.15104 42.1738 6.81641ZM57.5 11H55.8867V6.33789C55.8867 5.75911 55.7773 5.32845 55.5586 5.0459C55.3398 4.75879 54.998 4.61523 54.5332 4.61523C53.9134 4.61523 53.4577 4.81803 53.166 5.22363C52.8789 5.62467 52.7354 6.2946 52.7354 7.2334V11H51.1289V3.43945H52.3867L52.6123 4.43066H52.6943C52.904 4.07064 53.207 3.79264 53.6035 3.59668C54.0046 3.40072 54.4443 3.30273 54.9229 3.30273C56.085 3.30273 56.8551 3.69922 57.2334 4.49219H57.3428C57.5661 4.11849 57.8805 3.82682 58.2861 3.61719C58.6917 3.40755 59.1566 3.30273 59.6807 3.30273C60.583 3.30273 61.2393 3.5306 61.6494 3.98633C62.0641 4.44206 62.2715 5.13704 62.2715 6.07129V11H60.665V6.33789C60.665 5.75911 60.5534 5.32845 60.3301 5.0459C60.1113 4.75879 59.7695 4.61523 59.3047 4.61523C58.6803 4.61523 58.2223 4.8112 57.9307 5.20312C57.6436 5.59049 57.5 6.1875 57.5 6.99414V11ZM67.8154 11.1367C66.6396 11.1367 65.7191 10.7949 65.0537 10.1113C64.3929 9.42318 64.0625 8.47754 64.0625 7.27441C64.0625 6.03939 64.3701 5.06868 64.9854 4.3623C65.6006 3.65592 66.446 3.30273 67.5215 3.30273C68.5195 3.30273 69.3079 3.60579 69.8867 4.21191C70.4655 4.81803 70.7549 5.65202 70.7549 6.71387V7.58203H65.7168C65.7396 8.31576 65.9378 8.88086 66.3115 9.27734C66.6852 9.66927 67.2116 9.86523 67.8906 9.86523C68.3372 9.86523 68.752 9.82422 69.1348 9.74219C69.5221 9.6556 69.9368 9.51432 70.3789 9.31836V10.624C69.987 10.8109 69.5905 10.943 69.1895 11.0205C68.7884 11.098 68.3304 11.1367 67.8154 11.1367ZM67.5215 4.51953C67.0111 4.51953 66.6009 4.68132 66.291 5.00488C65.9857 5.32845 65.8034 5.80013 65.7441 6.41992H69.1758C69.1667 5.79557 69.0163 5.32389 68.7246 5.00488C68.4329 4.68132 68.0319 4.51953 67.5215 4.51953ZM75.3965 9.83789C75.7884 9.83789 76.1803 9.77637 76.5723 9.65332V10.8633C76.3945 10.9408 76.1644 11.0046 75.8818 11.0547C75.6038 11.1094 75.3145 11.1367 75.0137 11.1367C73.4915 11.1367 72.7305 10.3346 72.7305 8.73047V4.65625H71.6982V3.94531L72.8057 3.35742L73.3525 1.75781H74.3438V3.43945H76.4971V4.65625H74.3438V8.70312C74.3438 9.09049 74.4395 9.3776 74.6309 9.56445C74.8268 9.74674 75.082 9.83789 75.3965 9.83789ZM77.8506 10.1455C77.8506 9.81283 77.9372 9.55762 78.1104 9.37988C78.2835 9.20215 78.5342 9.11328 78.8623 9.11328C79.195 9.11328 79.4479 9.20671 79.6211 9.39355C79.7943 9.57585 79.8809 9.8265 79.8809 10.1455C79.8809 10.4691 79.792 10.7266 79.6143 10.918C79.4411 11.1048 79.1904 11.1982 78.8623 11.1982C78.5342 11.1982 78.2835 11.1048 78.1104 10.918C77.9372 10.7311 77.8506 10.4736 77.8506 10.1455ZM88.3164 11H86.7031V6.33789C86.7031 5.75911 86.5938 5.32845 86.375 5.0459C86.1562 4.75879 85.8145 4.61523 85.3496 4.61523C84.7298 4.61523 84.2741 4.81803 83.9824 5.22363C83.6953 5.62467 83.5518 6.2946 83.5518 7.2334V11H81.9453V3.43945H83.2031L83.4287 4.43066H83.5107C83.7204 4.07064 84.0234 3.79264 84.4199 3.59668C84.821 3.40072 85.2607 3.30273 85.7393 3.30273C86.9014 3.30273 87.6715 3.69922 88.0498 4.49219H88.1592C88.3825 4.11849 88.6969 3.82682 89.1025 3.61719C89.5081 3.40755 89.973 3.30273 90.4971 3.30273C91.3994 3.30273 92.0557 3.5306 92.4658 3.98633C92.8805 4.44206 93.0879 5.13704 93.0879 6.07129V11H91.4814V6.33789C91.4814 5.75911 91.3698 5.32845 91.1465 5.0459C90.9277 4.75879 90.5859 4.61523 90.1211 4.61523C89.4967 4.61523 89.0387 4.8112 88.7471 5.20312C88.46 5.59049 88.3164 6.1875 88.3164 6.99414V11ZM100.061 11L99.7393 9.94727H99.6846C99.32 10.4076 98.9531 10.722 98.584 10.8906C98.2148 11.0547 97.7409 11.1367 97.1621 11.1367C96.4193 11.1367 95.8382 10.9362 95.4189 10.5352C95.0042 10.1341 94.7969 9.56673 94.7969 8.83301C94.7969 8.05371 95.0863 7.46582 95.665 7.06934C96.2438 6.67285 97.1257 6.45638 98.3105 6.41992L99.6162 6.37891V5.97559C99.6162 5.49251 99.5023 5.13249 99.2744 4.89551C99.0511 4.65397 98.7025 4.5332 98.2285 4.5332C97.8411 4.5332 97.4697 4.59017 97.1143 4.7041C96.7588 4.81803 96.417 4.95247 96.0889 5.10742L95.5693 3.95898C95.9795 3.74479 96.4284 3.58301 96.916 3.47363C97.4036 3.3597 97.8639 3.30273 98.2969 3.30273C99.2585 3.30273 99.9831 3.51237 100.471 3.93164C100.963 4.35091 101.209 5.00944 101.209 5.90723V11H100.061ZM97.668 9.90625C98.2513 9.90625 98.7184 9.74447 99.0693 9.4209C99.4248 9.09277 99.6025 8.63477 99.6025 8.04688V7.39062L98.6318 7.43164C97.8753 7.45898 97.3239 7.58659 96.9775 7.81445C96.6357 8.03776 96.4648 8.38184 96.4648 8.84668C96.4648 9.18392 96.5651 9.44596 96.7656 9.63281C96.9661 9.8151 97.2669 9.90625 97.668 9.90625ZM107.286 3.30273C107.61 3.30273 107.876 3.32552 108.086 3.37109L107.929 4.86816C107.701 4.81348 107.464 4.78613 107.218 4.78613C106.575 4.78613 106.053 4.99577 105.652 5.41504C105.256 5.83431 105.058 6.37891 105.058 7.04883V11H103.451V3.43945H104.709L104.921 4.77246H105.003C105.254 4.32129 105.579 3.96354 105.98 3.69922C106.386 3.4349 106.821 3.30273 107.286 3.30273ZM111.046 7.00781L111.955 5.87305L114.238 3.43945H116.091L113.049 6.68652L116.282 11H114.396L111.969 7.68457L111.087 8.40918V11H109.494V0.363281H111.087V5.55176L111.005 7.00781H111.046ZM120.808 11.1367C119.632 11.1367 118.711 10.7949 118.046 10.1113C117.385 9.42318 117.055 8.47754 117.055 7.27441C117.055 6.03939 117.362 5.06868 117.978 4.3623C118.593 3.65592 119.438 3.30273 120.514 3.30273C121.512 3.30273 122.3 3.60579 122.879 4.21191C123.458 4.81803 123.747 5.65202 123.747 6.71387V7.58203H118.709C118.732 8.31576 118.93 8.88086 119.304 9.27734C119.677 9.66927 120.204 9.86523 120.883 9.86523C121.329 9.86523 121.744 9.82422 122.127 9.74219C122.514 9.6556 122.929 9.51432 123.371 9.31836V10.624C122.979 10.8109 122.583 10.943 122.182 11.0205C121.781 11.098 121.323 11.1367 120.808 11.1367ZM120.514 4.51953C120.003 4.51953 119.593 4.68132 119.283 5.00488C118.978 5.32845 118.796 5.80013 118.736 6.41992H122.168C122.159 5.79557 122.008 5.32389 121.717 5.00488C121.425 4.68132 121.024 4.51953 120.514 4.51953ZM128.389 9.83789C128.781 9.83789 129.173 9.77637 129.564 9.65332V10.8633C129.387 10.9408 129.157 11.0046 128.874 11.0547C128.596 11.1094 128.307 11.1367 128.006 11.1367C126.484 11.1367 125.723 10.3346 125.723 8.73047V4.65625H124.69V3.94531L125.798 3.35742L126.345 1.75781H127.336V3.43945H129.489V4.65625H127.336V8.70312C127.336 9.09049 127.432 9.3776 127.623 9.56445C127.819 9.74674 128.074 9.83789 128.389 9.83789Z" fill="#182D78"/>
</svg>
