<svg width="125" height="13" viewBox="0 0 125 13" fill="none" xmlns="http://www.w3.org/2000/svg">
<path d="M5.66699 11.5H0.232422V10.7275L4.32031 4.88965H0.485352V4.00781H5.56445V4.88965L1.53125 10.6182H5.66699V11.5ZM12.0312 11.5L11.8057 10.4336H11.751C11.3773 10.903 11.0036 11.222 10.6299 11.3906C10.2607 11.5547 9.79818 11.6367 9.24219 11.6367C8.49935 11.6367 7.91602 11.4453 7.49219 11.0625C7.07292 10.6797 6.86328 10.1351 6.86328 9.42871C6.86328 7.91569 8.07324 7.12272 10.4932 7.0498L11.7646 7.00879V6.54395C11.7646 5.95605 11.637 5.52311 11.3818 5.24512C11.1312 4.96257 10.7279 4.82129 10.1719 4.82129C9.54753 4.82129 8.84115 5.0127 8.05273 5.39551L7.7041 4.52734C8.07324 4.32682 8.47656 4.1696 8.91406 4.05566C9.35612 3.94173 9.79818 3.88477 10.2402 3.88477C11.1335 3.88477 11.7943 4.08301 12.2227 4.47949C12.6556 4.87598 12.8721 5.51172 12.8721 6.38672V11.5H12.0312ZM9.46777 10.7002C10.1742 10.7002 10.7279 10.5065 11.1289 10.1191C11.5345 9.73177 11.7373 9.18945 11.7373 8.49219V7.81543L10.6025 7.86328C9.7002 7.89518 9.0485 8.03646 8.64746 8.28711C8.25098 8.5332 8.05273 8.91829 8.05273 9.44238C8.05273 9.85254 8.17578 10.1647 8.42188 10.3789C8.67253 10.5931 9.02116 10.7002 9.46777 10.7002ZM16.3379 7.66504C16.5339 7.38704 16.8324 7.02246 17.2334 6.57129L19.6533 4.00781H21L17.9648 7.2002L21.2119 11.5H19.8379L17.1924 7.95898L16.3379 8.69727V11.5H15.2168V0.863281H16.3379V6.50293C16.3379 6.75358 16.3197 7.14095 16.2832 7.66504H16.3379ZM27.1797 11.5L26.9541 10.4336H26.8994C26.5257 10.903 26.152 11.222 25.7783 11.3906C25.4092 11.5547 24.9466 11.6367 24.3906 11.6367C23.6478 11.6367 23.0645 11.4453 22.6406 11.0625C22.2214 10.6797 22.0117 10.1351 22.0117 9.42871C22.0117 7.91569 23.2217 7.12272 25.6416 7.0498L26.9131 7.00879V6.54395C26.9131 5.95605 26.7855 5.52311 26.5303 5.24512C26.2796 4.96257 25.8763 4.82129 25.3203 4.82129C24.696 4.82129 23.9896 5.0127 23.2012 5.39551L22.8525 4.52734C23.2217 4.32682 23.625 4.1696 24.0625 4.05566C24.5046 3.94173 24.9466 3.88477 25.3887 3.88477C26.2819 3.88477 26.9427 4.08301 27.3711 4.47949C27.804 4.87598 28.0205 5.51172 28.0205 6.38672V11.5H27.1797ZM24.6162 10.7002C25.3226 10.7002 25.8763 10.5065 26.2773 10.1191C26.6829 9.73177 26.8857 9.18945 26.8857 8.49219V7.81543L25.751 7.86328C24.8486 7.89518 24.1969 8.03646 23.7959 8.28711C23.3994 8.5332 23.2012 8.91829 23.2012 9.44238C23.2012 9.85254 23.3242 10.1647 23.5703 10.3789C23.821 10.5931 24.1696 10.7002 24.6162 10.7002ZM35.1572 11.5H29.7227V10.7275L33.8105 4.88965H29.9756V4.00781H35.0547V4.88965L31.0215 10.6182H35.1572V11.5ZM47.4688 6.5166C47.4688 7.16374 47.3685 7.75618 47.168 8.29395C46.9674 8.83171 46.6849 9.2487 46.3203 9.54492C45.9557 9.84115 45.5365 9.98926 45.0625 9.98926C44.6706 9.98926 44.3402 9.87077 44.0713 9.63379C43.8024 9.39681 43.6429 9.09375 43.5928 8.72461H43.5381C43.3558 9.12109 43.0938 9.43099 42.752 9.6543C42.4147 9.8776 42.0137 9.98926 41.5488 9.98926C40.8652 9.98926 40.3298 9.75684 39.9424 9.29199C39.5596 8.82259 39.3682 8.18685 39.3682 7.38477C39.3682 6.45508 39.637 5.70085 40.1748 5.12207C40.7126 4.53874 41.4189 4.24707 42.2939 4.24707C42.6038 4.24707 42.9548 4.27669 43.3467 4.33594C43.7386 4.39062 44.0918 4.4681 44.4062 4.56836L44.2354 7.78125V7.93164C44.2354 8.74284 44.5384 9.14844 45.1445 9.14844C45.5592 9.14844 45.8965 8.90462 46.1562 8.41699C46.416 7.9248 46.5459 7.28678 46.5459 6.50293C46.5459 5.67806 46.3773 4.95573 46.04 4.33594C45.7028 3.71615 45.222 3.23991 44.5977 2.90723C43.9779 2.56999 43.2646 2.40137 42.458 2.40137C41.4417 2.40137 40.5576 2.61328 39.8057 3.03711C39.0537 3.45638 38.4795 4.05794 38.083 4.8418C37.6865 5.62109 37.4883 6.52344 37.4883 7.54883C37.4883 8.9388 37.8551 10.0075 38.5889 10.7549C39.3226 11.5023 40.3799 11.876 41.7607 11.876C42.7178 11.876 43.7113 11.68 44.7412 11.2881V12.1973C43.8662 12.5801 42.8727 12.7715 41.7607 12.7715C40.1064 12.7715 38.8213 12.318 37.9053 11.4111C36.9938 10.4997 36.5381 9.22819 36.5381 7.59668C36.5381 6.41178 36.7819 5.35677 37.2695 4.43164C37.7572 3.50651 38.4521 2.79102 39.3545 2.28516C40.2568 1.77474 41.2913 1.51953 42.458 1.51953C43.4378 1.51953 44.3083 1.72689 45.0693 2.1416C45.835 2.55176 46.4251 3.13737 46.8398 3.89844C47.2591 4.65495 47.4688 5.52767 47.4688 6.5166ZM40.4004 7.41211C40.4004 8.56966 40.8447 9.14844 41.7334 9.14844C42.6768 9.14844 43.1895 8.43522 43.2715 7.00879L43.3672 5.22461C43.0391 5.13346 42.6813 5.08789 42.2939 5.08789C41.7015 5.08789 41.2367 5.29297 40.8994 5.70312C40.5667 6.11328 40.4004 6.68294 40.4004 7.41211ZM59.0557 11.5V6.62598C59.0557 6.02897 58.9281 5.58236 58.6729 5.28613C58.4176 4.98535 58.0212 4.83496 57.4834 4.83496C56.777 4.83496 56.2552 5.03776 55.918 5.44336C55.5807 5.84896 55.4121 6.47331 55.4121 7.31641V11.5H54.2773V6.62598C54.2773 6.02897 54.1497 5.58236 53.8945 5.28613C53.6393 4.98535 53.2406 4.83496 52.6982 4.83496C51.9873 4.83496 51.4655 5.04915 51.1328 5.47754C50.8047 5.90137 50.6406 6.59863 50.6406 7.56934V11.5H49.5059V4.00781H50.4287L50.6133 5.0332H50.668C50.8822 4.66862 51.1829 4.38379 51.5703 4.17871C51.9622 3.97363 52.3997 3.87109 52.8828 3.87109C54.054 3.87109 54.8197 4.29492 55.1797 5.14258H55.2344C55.4577 4.75065 55.7812 4.44076 56.2051 4.21289C56.6289 3.98503 57.112 3.87109 57.6543 3.87109C58.502 3.87109 59.1354 4.08984 59.5547 4.52734C59.9785 4.96029 60.1904 5.65527 60.1904 6.6123V11.5H59.0557ZM65.7002 11.6367C64.5928 11.6367 63.7178 11.2995 63.0752 10.625C62.4372 9.95052 62.1182 9.014 62.1182 7.81543C62.1182 6.60775 62.4144 5.64844 63.0068 4.9375C63.6038 4.22656 64.4036 3.87109 65.4062 3.87109C66.3451 3.87109 67.0879 4.18099 67.6348 4.80078C68.1816 5.41602 68.4551 6.22949 68.4551 7.24121V7.95898H63.2939C63.3167 8.83854 63.5378 9.50618 63.957 9.96191C64.3809 10.4176 64.9756 10.6455 65.7412 10.6455C66.5479 10.6455 67.3454 10.4769 68.1338 10.1396V11.1514C67.7327 11.3245 67.3522 11.4476 66.9922 11.5205C66.6367 11.598 66.2061 11.6367 65.7002 11.6367ZM65.3926 4.82129C64.791 4.82129 64.3102 5.01725 63.9502 5.40918C63.5947 5.80111 63.3851 6.34342 63.3213 7.03613H67.2383C67.2383 6.32064 67.0788 5.77376 66.7598 5.39551C66.4408 5.0127 65.985 4.82129 65.3926 4.82129ZM72.8164 10.7002C73.0169 10.7002 73.2106 10.6865 73.3975 10.6592C73.5843 10.6273 73.7324 10.5954 73.8418 10.5635V11.4316C73.7188 11.4909 73.5365 11.5387 73.2949 11.5752C73.0579 11.6162 72.8438 11.6367 72.6523 11.6367C71.2031 11.6367 70.4785 10.8734 70.4785 9.34668V4.88965H69.4053V4.34277L70.4785 3.87109L70.957 2.27148H71.6133V4.00781H73.7871V4.88965H71.6133V9.29883C71.6133 9.75 71.7204 10.0964 71.9346 10.3379C72.1488 10.5794 72.4427 10.7002 72.8164 10.7002ZM75.1816 10.7754C75.1816 10.4701 75.25 10.2399 75.3867 10.085C75.528 9.92546 75.7285 9.8457 75.9883 9.8457C76.2526 9.8457 76.4577 9.92546 76.6035 10.085C76.7539 10.2399 76.8291 10.4701 76.8291 10.7754C76.8291 11.0716 76.7539 11.2995 76.6035 11.459C76.4531 11.6185 76.248 11.6982 75.9883 11.6982C75.7559 11.6982 75.5622 11.6276 75.4072 11.4863C75.2568 11.3405 75.1816 11.1035 75.1816 10.7754ZM88.6279 11.5V6.62598C88.6279 6.02897 88.5003 5.58236 88.2451 5.28613C87.9899 4.98535 87.5934 4.83496 87.0557 4.83496C86.3493 4.83496 85.8275 5.03776 85.4902 5.44336C85.153 5.84896 84.9844 6.47331 84.9844 7.31641V11.5H83.8496V6.62598C83.8496 6.02897 83.722 5.58236 83.4668 5.28613C83.2116 4.98535 82.8128 4.83496 82.2705 4.83496C81.5596 4.83496 81.0378 5.04915 80.7051 5.47754C80.377 5.90137 80.2129 6.59863 80.2129 7.56934V11.5H79.0781V4.00781H80.001L80.1855 5.0332H80.2402C80.4544 4.66862 80.7552 4.38379 81.1426 4.17871C81.5345 3.97363 81.972 3.87109 82.4551 3.87109C83.6263 3.87109 84.3919 4.29492 84.752 5.14258H84.8066C85.0299 4.75065 85.3535 4.44076 85.7773 4.21289C86.2012 3.98503 86.6842 3.87109 87.2266 3.87109C88.0742 3.87109 88.7077 4.08984 89.127 4.52734C89.5508 4.96029 89.7627 5.65527 89.7627 6.6123V11.5H88.6279ZM96.7148 11.5L96.4893 10.4336H96.4346C96.0609 10.903 95.6872 11.222 95.3135 11.3906C94.9443 11.5547 94.4818 11.6367 93.9258 11.6367C93.1829 11.6367 92.5996 11.4453 92.1758 11.0625C91.7565 10.6797 91.5469 10.1351 91.5469 9.42871C91.5469 7.91569 92.7568 7.12272 95.1768 7.0498L96.4482 7.00879V6.54395C96.4482 5.95605 96.3206 5.52311 96.0654 5.24512C95.8148 4.96257 95.4115 4.82129 94.8555 4.82129C94.2311 4.82129 93.5247 5.0127 92.7363 5.39551L92.3877 4.52734C92.7568 4.32682 93.1602 4.1696 93.5977 4.05566C94.0397 3.94173 94.4818 3.88477 94.9238 3.88477C95.8171 3.88477 96.4779 4.08301 96.9062 4.47949C97.3392 4.87598 97.5557 5.51172 97.5557 6.38672V11.5H96.7148ZM94.1514 10.7002C94.8577 10.7002 95.4115 10.5065 95.8125 10.1191C96.2181 9.73177 96.4209 9.18945 96.4209 8.49219V7.81543L95.2861 7.86328C94.3838 7.89518 93.7321 8.03646 93.3311 8.28711C92.9346 8.5332 92.7363 8.91829 92.7363 9.44238C92.7363 9.85254 92.8594 10.1647 93.1055 10.3789C93.3561 10.5931 93.7048 10.7002 94.1514 10.7002ZM103.318 3.87109C103.651 3.87109 103.95 3.89844 104.214 3.95312L104.057 5.00586C103.747 4.9375 103.473 4.90332 103.236 4.90332C102.63 4.90332 102.111 5.14941 101.678 5.6416C101.249 6.13379 101.035 6.74674 101.035 7.48047V11.5H99.9004V4.00781H100.837L100.967 5.39551H101.021C101.299 4.90788 101.634 4.5319 102.026 4.26758C102.418 4.00326 102.849 3.87109 103.318 3.87109ZM106.736 7.66504C106.932 7.38704 107.231 7.02246 107.632 6.57129L110.052 4.00781H111.398L108.363 7.2002L111.61 11.5H110.236L107.591 7.95898L106.736 8.69727V11.5H105.615V0.863281H106.736V6.50293C106.736 6.75358 106.718 7.14095 106.682 7.66504H106.736ZM116.136 11.6367C115.028 11.6367 114.153 11.2995 113.511 10.625C112.873 9.95052 112.554 9.014 112.554 7.81543C112.554 6.60775 112.85 5.64844 113.442 4.9375C114.039 4.22656 114.839 3.87109 115.842 3.87109C116.781 3.87109 117.523 4.18099 118.07 4.80078C118.617 5.41602 118.891 6.22949 118.891 7.24121V7.95898H113.729C113.752 8.83854 113.973 9.50618 114.393 9.96191C114.816 10.4176 115.411 10.6455 116.177 10.6455C116.983 10.6455 117.781 10.4769 118.569 10.1396V11.1514C118.168 11.3245 117.788 11.4476 117.428 11.5205C117.072 11.598 116.642 11.6367 116.136 11.6367ZM115.828 4.82129C115.227 4.82129 114.746 5.01725 114.386 5.40918C114.03 5.80111 113.821 6.34342 113.757 7.03613H117.674C117.674 6.32064 117.514 5.77376 117.195 5.39551C116.876 5.0127 116.421 4.82129 115.828 4.82129ZM123.252 10.7002C123.452 10.7002 123.646 10.6865 123.833 10.6592C124.02 10.6273 124.168 10.5954 124.277 10.5635V11.4316C124.154 11.4909 123.972 11.5387 123.73 11.5752C123.493 11.6162 123.279 11.6367 123.088 11.6367C121.639 11.6367 120.914 10.8734 120.914 9.34668V4.88965H119.841V4.34277L120.914 3.87109L121.393 2.27148H122.049V4.00781H124.223V4.88965H122.049V9.29883C122.049 9.75 122.156 10.0964 122.37 10.3379C122.584 10.5794 122.878 10.7002 123.252 10.7002Z" fill="black"/>
</svg>
