<svg width="117" height="40" viewBox="0 0 117 40" fill="none" xmlns="http://www.w3.org/2000/svg">
<path d="M45.84 35.0002L42.4 23.8002H42.32C42.3333 24.0669 42.3533 24.4669 42.38 25.0002C42.4067 25.5335 42.4333 26.1069 42.46 26.7202C42.4867 27.3202 42.5 27.8669 42.5 28.3602V35.0002H39.8V20.7202H43.92L47.3 31.6402H47.36L50.94 20.7202H55.06V35.0002H52.24V28.2402C52.24 27.7869 52.2467 27.2669 52.26 26.6802C52.2867 26.0935 52.3067 25.5402 52.32 25.0202C52.3467 24.4869 52.3667 24.0869 52.38 23.8202H52.3L48.62 35.0002H45.84Z" fill="#182D78"/>
<path d="M62.9072 23.8602C64.3738 23.8602 65.4938 24.1802 66.2672 24.8202C67.0538 25.4469 67.4472 26.4135 67.4472 27.7202V35.0002H65.3672L64.7872 33.5202H64.7072C64.2405 34.1069 63.7472 34.5335 63.2272 34.8002C62.7072 35.0669 61.9938 35.2002 61.0872 35.2002C60.1138 35.2002 59.3072 34.9202 58.6672 34.3602C58.0272 33.7869 57.7072 32.9135 57.7072 31.7402C57.7072 30.5802 58.1138 29.7269 58.9272 29.1802C59.7405 28.6202 60.9605 28.3135 62.5872 28.2602L64.4872 28.2002V27.7202C64.4872 27.1469 64.3338 26.7269 64.0272 26.4602C63.7338 26.1935 63.3205 26.0602 62.7872 26.0602C62.2538 26.0602 61.7338 26.1402 61.2272 26.3002C60.7205 26.4469 60.2138 26.6335 59.7072 26.8602L58.7272 24.8402C59.3138 24.5335 59.9605 24.2935 60.6672 24.1202C61.3872 23.9469 62.1338 23.8602 62.9072 23.8602ZM63.3272 29.9802C62.3672 30.0069 61.7005 30.1802 61.3272 30.5002C60.9538 30.8202 60.7672 31.2402 60.7672 31.7602C60.7672 32.2135 60.9005 32.5402 61.1672 32.7402C61.4338 32.9269 61.7805 33.0202 62.2072 33.0202C62.8472 33.0202 63.3872 32.8335 63.8272 32.4602C64.2672 32.0735 64.4872 31.5335 64.4872 30.8402V29.9402L63.3272 29.9802Z" fill="#182D78"/>
<path d="M76.5775 23.8802C77.8042 23.8802 78.7975 24.3602 79.5575 25.3202C80.3175 26.2669 80.6975 27.6669 80.6975 29.5202C80.6975 31.3735 80.3042 32.7869 79.5175 33.7602C78.7308 34.7202 77.7242 35.2002 76.4975 35.2002C75.7108 35.2002 75.0842 35.0602 74.6175 34.7802C74.1508 34.4869 73.7708 34.1602 73.4775 33.8002H73.3175C73.4242 34.3602 73.4775 34.8935 73.4775 35.4002V39.8002H70.4975V24.0802H72.9175L73.3375 25.5002H73.4775C73.7708 25.0602 74.1642 24.6802 74.6575 24.3602C75.1508 24.0402 75.7908 23.8802 76.5775 23.8802ZM75.6175 26.2602C74.8442 26.2602 74.2975 26.5002 73.9775 26.9802C73.6708 27.4602 73.5042 28.1935 73.4775 29.1802V29.5002C73.4775 30.5535 73.6308 31.3669 73.9375 31.9402C74.2575 32.5002 74.8308 32.7802 75.6575 32.7802C76.3375 32.7802 76.8375 32.5002 77.1575 31.9402C77.4908 31.3669 77.6575 30.5469 77.6575 29.4802C77.6575 27.3335 76.9775 26.2602 75.6175 26.2602Z" fill="#182D78"/>
<path d="M90.3137 24.0802H93.5937L89.2737 29.3202L93.9737 35.0002H90.5937L86.1337 29.4602V35.0002H83.1537V24.0802H86.1337V29.3802L90.3137 24.0802Z" fill="#182D78"/>
<path d="M99.6459 23.8802C101.153 23.8802 102.346 24.3135 103.226 25.1802C104.106 26.0335 104.546 27.2535 104.546 28.8402V30.2802H97.5059C97.5326 31.1202 97.7793 31.7802 98.2459 32.2602C98.7259 32.7402 99.3859 32.9802 100.226 32.9802C100.933 32.9802 101.573 32.9135 102.146 32.7802C102.719 32.6335 103.313 32.4135 103.926 32.1202V34.4202C103.393 34.6869 102.826 34.8802 102.226 35.0002C101.639 35.1335 100.926 35.2002 100.086 35.2002C98.9926 35.2002 98.0259 35.0002 97.1859 34.6002C96.3459 34.1869 95.6859 33.5669 95.2059 32.7402C94.7259 31.9135 94.4859 30.8735 94.4859 29.6202C94.4859 28.3402 94.6993 27.2802 95.1259 26.4402C95.5659 25.5869 96.1726 24.9469 96.9459 24.5202C97.7193 24.0935 98.6193 23.8802 99.6459 23.8802ZM99.6659 26.0002C99.0926 26.0002 98.6126 26.1869 98.2259 26.5602C97.8526 26.9335 97.6326 27.5135 97.5659 28.3002H101.746C101.733 27.6335 101.559 27.0869 101.226 26.6602C100.893 26.2202 100.373 26.0002 99.6659 26.0002Z" fill="#182D78"/>
<path d="M116.002 26.3202H112.422V35.0002H109.442V26.3202H105.862V24.0802H116.002V26.3202Z" fill="#182D78"/>
<path d="M45.84 15.0002L42.4 3.80022H42.32C42.3333 4.06688 42.3533 4.46688 42.38 5.00022C42.4067 5.53355 42.4333 6.10688 42.46 6.72021C42.4867 7.32022 42.5 7.86688 42.5 8.36022V15.0002H39.8V0.720215H43.92L47.3 11.6402H47.36L50.94 0.720215H55.06V15.0002H52.24V8.24022C52.24 7.78688 52.2467 7.26688 52.26 6.68022C52.2867 6.09355 52.3067 5.54022 52.32 5.02022C52.3467 4.48688 52.3667 4.08688 52.38 3.82022H52.3L48.62 15.0002H45.84Z" fill="#E30037"/>
<path d="M66.8872 15.0002H58.6672V0.720215H66.8872V3.20021H61.6872V6.34021H66.5272V8.82022H61.6872V12.5002H66.8872V15.0002Z" fill="#E30037"/>
<path d="M75.3586 15.0002H72.3386V3.24022H68.4586V0.720215H79.2386V3.24022H75.3586V15.0002Z" fill="#E30037"/>
<path d="M34 1V4.70076L28.2385 10.516L20.8305 17.9931L17.1301 21.728L13.4289 17.9931L5.7624 10.2551V35H0V1H3.99441L5.7624 2.78448L17.1301 14.2582L28.2385 3.04533L30.2649 1H34Z" fill="#E30037"/>
<path d="M34 8.01172V35.0001H28.3892V21.6829L21.1547 28.9849L17.1877 32.9898L7.96051 23.6766V15.6676L17.1877 24.9808L28.3892 13.6749L34 8.01172Z" fill="#172D78"/>
</svg>
