<svg width="178" height="46" viewBox="0 0 178 46" fill="none" xmlns="http://www.w3.org/2000/svg">
<path d="M75.368 21L70.38 4.76001H70.264C70.2833 5.14667 70.3123 5.72667 70.351 6.50001C70.3897 7.27334 70.4283 8.10467 70.467 8.99401C70.5057 9.86401 70.525 10.6567 70.525 11.372V21H66.61V0.294006H72.584L77.485 16.128H77.572L82.763 0.294006H88.737V21H84.648V11.198C84.648 10.5407 84.6577 9.78667 84.677 8.93601C84.7157 8.08534 84.7447 7.28301 84.764 6.52901C84.8027 5.75567 84.8317 5.17567 84.851 4.78901H84.735L79.399 21H75.368Z" fill="#182D78"/>
<path d="M100.115 4.84701C102.242 4.84701 103.866 5.31101 104.987 6.23901C106.128 7.14767 106.698 8.54934 106.698 10.444V21H103.682L102.841 18.854H102.725C102.049 19.7047 101.333 20.3233 100.579 20.71C99.8254 21.0967 98.7911 21.29 97.4764 21.29C96.0651 21.29 94.8954 20.884 93.9674 20.072C93.0394 19.2407 92.5754 17.9743 92.5754 16.273C92.5754 14.591 93.1651 13.3537 94.3444 12.561C95.5237 11.749 97.2927 11.3043 99.6514 11.227L102.406 11.14V10.444C102.406 9.61267 102.184 9.00367 101.739 8.61701C101.314 8.23034 100.715 8.03701 99.9414 8.03701C99.1681 8.03701 98.4141 8.15301 97.6794 8.38501C96.9447 8.59767 96.2101 8.86834 95.4754 9.19701L94.0544 6.26801C94.9051 5.82334 95.8427 5.47534 96.8674 5.22401C97.9114 4.97267 98.9941 4.84701 100.115 4.84701ZM100.724 13.721C99.3324 13.7597 98.3657 14.011 97.8244 14.475C97.2831 14.939 97.0124 15.548 97.0124 16.302C97.0124 16.9593 97.2057 17.433 97.5924 17.723C97.9791 17.9937 98.4817 18.129 99.1004 18.129C100.028 18.129 100.811 17.8583 101.449 17.317C102.087 16.7563 102.406 15.9733 102.406 14.968V13.663L100.724 13.721Z" fill="#182D78"/>
<path d="M119.937 4.87601C121.716 4.87601 123.156 5.57201 124.258 6.96401C125.36 8.33667 125.911 10.3667 125.911 13.054C125.911 15.7413 125.341 17.7907 124.2 19.202C123.06 20.594 121.6 21.29 119.821 21.29C118.681 21.29 117.772 21.087 117.095 20.681C116.419 20.2557 115.868 19.782 115.442 19.26H115.21C115.365 20.072 115.442 20.8453 115.442 21.58V27.96H111.121V5.16601H114.63L115.239 7.22501H115.442C115.868 6.58701 116.438 6.03601 117.153 5.57201C117.869 5.10801 118.797 4.87601 119.937 4.87601ZM118.545 8.32701C117.424 8.32701 116.631 8.67501 116.167 9.37101C115.723 10.067 115.481 11.1303 115.442 12.561V13.025C115.442 14.5523 115.665 15.7317 116.109 16.563C116.573 17.375 117.405 17.781 118.603 17.781C119.589 17.781 120.314 17.375 120.778 16.563C121.262 15.7317 121.503 14.5427 121.503 12.996C121.503 9.88334 120.517 8.32701 118.545 8.32701Z" fill="#182D78"/>
<path d="M139.855 5.16601H144.611L138.347 12.764L145.162 21H140.261L133.794 12.967V21H129.473V5.16601H133.794V12.851L139.855 5.16601Z" fill="#182D78"/>
<path d="M153.387 4.87601C155.571 4.87601 157.302 5.50434 158.578 6.76101C159.854 7.99834 160.492 9.76734 160.492 12.068V14.156H150.284C150.322 15.374 150.68 16.331 151.357 17.027C152.053 17.723 153.01 18.071 154.228 18.071C155.252 18.071 156.18 17.9743 157.012 17.781C157.843 17.5683 158.703 17.2493 159.593 16.824V20.159C158.819 20.5457 157.998 20.826 157.128 21C156.277 21.1933 155.243 21.29 154.025 21.29C152.439 21.29 151.038 21 149.82 20.42C148.602 19.8207 147.645 18.9217 146.949 17.723C146.253 16.5243 145.905 15.0163 145.905 13.199C145.905 11.343 146.214 9.80601 146.833 8.58801C147.471 7.35067 148.35 6.42267 149.472 5.80401C150.593 5.18534 151.898 4.87601 153.387 4.87601ZM153.416 7.95001C152.584 7.95001 151.888 8.22067 151.328 8.76201C150.786 9.30334 150.467 10.1443 150.371 11.285H156.432C156.412 10.3183 156.161 9.52567 155.678 8.90701C155.194 8.26901 154.44 7.95001 153.416 7.95001Z" fill="#182D78"/>
<path d="M177.103 8.41401H171.912V21H167.591V8.41401H162.4V5.16601H177.103V8.41401Z" fill="#182D78"/>
<path d="M5.50999 40.31C5.50999 41.1967 5.28332 41.8833 4.82999 42.37C4.38332 42.8567 3.77665 43.1 3.00999 43.1C2.53665 43.1 2.11332 42.9933 1.73999 42.78C1.37332 42.56 1.08332 42.2433 0.869988 41.83C0.656655 41.41 0.549988 40.9033 0.549988 40.31C0.549988 39.4233 0.773321 38.74 1.21999 38.26C1.66665 37.78 2.27332 37.54 3.03999 37.54C3.52665 37.54 3.95332 37.65 4.31999 37.87C4.69332 38.0833 4.98332 38.3967 5.18999 38.81C5.40332 39.2167 5.50999 39.7167 5.50999 40.31ZM1.45999 40.31C1.45999 40.9433 1.58332 41.4467 1.82999 41.82C2.08332 42.1867 2.48332 42.37 3.02999 42.37C3.56999 42.37 3.96665 42.1867 4.21999 41.82C4.47332 41.4467 4.59999 40.9433 4.59999 40.31C4.59999 39.6767 4.47332 39.18 4.21999 38.82C3.96665 38.46 3.56665 38.28 3.01999 38.28C2.47332 38.28 2.07665 38.46 1.82999 38.82C1.58332 39.18 1.45999 39.6767 1.45999 40.31Z" fill="#182D78"/>
<path d="M11.7347 37.64V43H10.8547V38.39H8.08468V43H7.20468V37.64H11.7347Z" fill="#182D78"/>
<path d="M17.4449 38.38H15.6949V43H14.8249V38.38H13.0949V37.64H17.4449V38.38Z" fill="#182D78"/>
<path d="M23.3631 40.31C23.3631 41.1967 23.1364 41.8833 22.6831 42.37C22.2364 42.8567 21.6298 43.1 20.8631 43.1C20.3898 43.1 19.9664 42.9933 19.5931 42.78C19.2264 42.56 18.9364 42.2433 18.7231 41.83C18.5098 41.41 18.4031 40.9033 18.4031 40.31C18.4031 39.4233 18.6264 38.74 19.0731 38.26C19.5198 37.78 20.1264 37.54 20.8931 37.54C21.3798 37.54 21.8064 37.65 22.1731 37.87C22.5464 38.0833 22.8364 38.3967 23.0431 38.81C23.2564 39.2167 23.3631 39.7167 23.3631 40.31ZM19.3131 40.31C19.3131 40.9433 19.4364 41.4467 19.6831 41.82C19.9364 42.1867 20.3364 42.37 20.8831 42.37C21.4231 42.37 21.8198 42.1867 22.0731 41.82C22.3264 41.4467 22.4531 40.9433 22.4531 40.31C22.4531 39.6767 22.3264 39.18 22.0731 38.82C21.8198 38.46 21.4198 38.28 20.8731 38.28C20.3264 38.28 19.9298 38.46 19.6831 38.82C19.4364 39.18 19.3131 39.6767 19.3131 40.31Z" fill="#182D78"/>
<path d="M29.3678 38.99C29.3678 39.3233 29.2678 39.5833 29.0678 39.77C28.8678 39.9567 28.6111 40.0833 28.2978 40.15V40.19C28.6311 40.2367 28.9211 40.3567 29.1678 40.55C29.4145 40.7367 29.5378 41.03 29.5378 41.43C29.5378 41.8833 29.3678 42.26 29.0278 42.56C28.6945 42.8533 28.1411 43 27.3678 43H25.0578V37.64H27.3578C27.7378 37.64 28.0778 37.6833 28.3778 37.77C28.6845 37.85 28.9245 37.99 29.0978 38.19C29.2778 38.3833 29.3678 38.65 29.3678 38.99ZM28.4778 39.1C28.4778 38.8467 28.3845 38.6633 28.1978 38.55C28.0178 38.43 27.7211 38.37 27.3078 38.37H25.9378V39.84H27.1478C28.0345 39.84 28.4778 39.5933 28.4778 39.1ZM28.6278 41.43C28.6278 41.1233 28.5111 40.9033 28.2778 40.77C28.0445 40.6367 27.7011 40.57 27.2478 40.57H25.9378V42.29H27.2678C27.7078 42.29 28.0445 42.2267 28.2778 42.1C28.5111 41.9667 28.6278 41.7433 28.6278 41.43Z" fill="#182D78"/>
<path d="M31.1195 43V37.64H31.9995V39.84H33.3895C34.0829 39.84 34.5962 39.9667 34.9295 40.22C35.2629 40.4733 35.4295 40.8533 35.4295 41.36C35.4295 41.86 35.2662 42.26 34.9395 42.56C34.6129 42.8533 34.0829 43 33.3495 43H31.1195ZM36.3195 43V37.64H37.1995V43H36.3195ZM33.2695 42.29C33.6495 42.29 33.9595 42.2267 34.1995 42.1C34.4395 41.9667 34.5595 41.7367 34.5595 41.41C34.5595 41.0833 34.4495 40.8633 34.2295 40.75C34.0095 40.63 33.6929 40.57 33.2795 40.57H31.9995V42.29H33.2695Z" fill="#182D78"/>
<path d="M41.2727 37.54C41.7327 37.54 42.1261 37.64 42.4527 37.84C42.7861 38.04 43.0394 38.3233 43.2127 38.69C43.3927 39.05 43.4827 39.4733 43.4827 39.96V40.49H39.8127C39.8261 41.0967 39.9794 41.56 40.2727 41.88C40.5727 42.1933 40.9894 42.35 41.5227 42.35C41.8627 42.35 42.1627 42.32 42.4227 42.26C42.6894 42.1933 42.9627 42.1 43.2427 41.98V42.75C42.9694 42.87 42.6994 42.9567 42.4327 43.01C42.1661 43.07 41.8494 43.1 41.4827 43.1C40.9761 43.1 40.5261 42.9967 40.1327 42.79C39.7461 42.5833 39.4427 42.2767 39.2227 41.87C39.0094 41.4567 38.9027 40.9533 38.9027 40.36C38.9027 39.7733 38.9994 39.27 39.1927 38.85C39.3927 38.43 39.6694 38.1067 40.0227 37.88C40.3827 37.6533 40.7994 37.54 41.2727 37.54ZM41.2627 38.26C40.8427 38.26 40.5094 38.3967 40.2627 38.67C40.0227 38.9367 39.8794 39.31 39.8327 39.79H42.5627C42.5561 39.3367 42.4494 38.97 42.2427 38.69C42.0361 38.4033 41.7094 38.26 41.2627 38.26Z" fill="#182D78"/>
<path d="M53.3349 44.86H52.4749V43H48.0449V37.64H48.9249V42.26H51.6949V37.64H52.5749V42.27H53.3349V44.86Z" fill="#182D78"/>
<path d="M56.7333 37.54C57.1933 37.54 57.5866 37.64 57.9133 37.84C58.2466 38.04 58.4999 38.3233 58.6733 38.69C58.8533 39.05 58.9433 39.4733 58.9433 39.96V40.49H55.2733C55.2866 41.0967 55.4399 41.56 55.7333 41.88C56.0333 42.1933 56.4499 42.35 56.9833 42.35C57.3233 42.35 57.6233 42.32 57.8833 42.26C58.1499 42.1933 58.4233 42.1 58.7033 41.98V42.75C58.4299 42.87 58.1599 42.9567 57.8933 43.01C57.6266 43.07 57.3099 43.1 56.9433 43.1C56.4366 43.1 55.9866 42.9967 55.5933 42.79C55.2066 42.5833 54.9033 42.2767 54.6833 41.87C54.4699 41.4567 54.3633 40.9533 54.3633 40.36C54.3633 39.7733 54.4599 39.27 54.6533 38.85C54.8533 38.43 55.1299 38.1067 55.4833 37.88C55.8433 37.6533 56.2599 37.54 56.7333 37.54ZM56.7233 38.26C56.3033 38.26 55.9699 38.3967 55.7233 38.67C55.4833 38.9367 55.3399 39.31 55.2933 39.79H58.0233C58.0166 39.3367 57.9099 38.97 57.7033 38.69C57.4966 38.4033 57.1699 38.26 56.7233 38.26Z" fill="#182D78"/>
<path d="M61.4878 37.64V39.87H64.3978V37.64H65.2778V43H64.3978V40.61H61.4878V43H60.6078V37.64H61.4878Z" fill="#182D78"/>
<path d="M67.275 43V37.64H68.155V39.84H69.545C70.2383 39.84 70.7517 39.9667 71.085 40.22C71.4183 40.4733 71.585 40.8533 71.585 41.36C71.585 41.86 71.4217 42.26 71.095 42.56C70.7683 42.8533 70.2383 43 69.505 43H67.275ZM72.475 43V37.64H73.355V43H72.475ZM69.425 42.29C69.805 42.29 70.115 42.2267 70.355 42.1C70.595 41.9667 70.715 41.7367 70.715 41.41C70.715 41.0833 70.605 40.8633 70.385 40.75C70.165 40.63 69.8483 40.57 69.435 40.57H68.155V42.29H69.425Z" fill="#182D78"/>
<path d="M82.9158 40.31C82.9158 41.1967 82.6892 41.8833 82.2358 42.37C81.7892 42.8567 81.1825 43.1 80.4158 43.1C79.9425 43.1 79.5192 42.9933 79.1458 42.78C78.7792 42.56 78.4892 42.2433 78.2758 41.83C78.0625 41.41 77.9558 40.9033 77.9558 40.31C77.9558 39.4233 78.1792 38.74 78.6258 38.26C79.0725 37.78 79.6792 37.54 80.4458 37.54C80.9325 37.54 81.3592 37.65 81.7258 37.87C82.0992 38.0833 82.3892 38.3967 82.5958 38.81C82.8092 39.2167 82.9158 39.7167 82.9158 40.31ZM78.8658 40.31C78.8658 40.9433 78.9892 41.4467 79.2358 41.82C79.4892 42.1867 79.8892 42.37 80.4358 42.37C80.9758 42.37 81.3725 42.1867 81.6258 41.82C81.8792 41.4467 82.0058 40.9433 82.0058 40.31C82.0058 39.6767 81.8792 39.18 81.6258 38.82C81.3725 38.46 80.9725 38.28 80.4258 38.28C79.8792 38.28 79.4825 38.46 79.2358 38.82C78.9892 39.18 78.8658 39.6767 78.8658 40.31Z" fill="#182D78"/>
<path d="M88.2129 38.38H86.4629V43H85.5929V38.38H83.8629V37.64H88.2129V38.38Z" fill="#182D78"/>
<path d="M96.9964 37.64V43H96.1164V38.39H93.3464V43H92.4664V37.64H96.9964Z" fill="#182D78"/>
<path d="M101.557 37.54C102.217 37.54 102.747 37.77 103.147 38.23C103.553 38.69 103.757 39.3833 103.757 40.31C103.757 41.2233 103.553 41.9167 103.147 42.39C102.747 42.8633 102.213 43.1 101.547 43.1C101.133 43.1 100.79 43.0233 100.517 42.87C100.25 42.71 100.04 42.5267 99.8866 42.32H99.8266C99.84 42.4333 99.8533 42.5767 99.8666 42.75C99.88 42.9233 99.8866 43.0733 99.8866 43.2V45.4H99.0066V37.64H99.7266L99.8466 38.37H99.8866C100.047 38.1367 100.257 37.94 100.517 37.78C100.777 37.62 101.123 37.54 101.557 37.54ZM101.397 38.28C100.85 38.28 100.463 38.4333 100.237 38.74C100.017 39.0467 99.9 39.5133 99.8866 40.14V40.31C99.8866 40.97 99.9933 41.48 100.207 41.84C100.427 42.1933 100.83 42.37 101.417 42.37C101.743 42.37 102.01 42.28 102.217 42.1C102.43 41.92 102.587 41.6767 102.687 41.37C102.793 41.0567 102.847 40.7 102.847 40.3C102.847 39.6867 102.727 39.1967 102.487 38.83C102.253 38.4633 101.89 38.28 101.397 38.28Z" fill="#182D78"/>
<path d="M110.119 40.31C110.119 41.1967 109.892 41.8833 109.439 42.37C108.992 42.8567 108.386 43.1 107.619 43.1C107.146 43.1 106.722 42.9933 106.349 42.78C105.982 42.56 105.692 42.2433 105.479 41.83C105.266 41.41 105.159 40.9033 105.159 40.31C105.159 39.4233 105.382 38.74 105.829 38.26C106.276 37.78 106.882 37.54 107.649 37.54C108.136 37.54 108.562 37.65 108.929 37.87C109.302 38.0833 109.592 38.3967 109.799 38.81C110.012 39.2167 110.119 39.7167 110.119 40.31ZM106.069 40.31C106.069 40.9433 106.192 41.4467 106.439 41.82C106.692 42.1867 107.092 42.37 107.639 42.37C108.179 42.37 108.576 42.1867 108.829 41.82C109.082 41.4467 109.209 40.9433 109.209 40.31C109.209 39.6767 109.082 39.18 108.829 38.82C108.576 38.46 108.176 38.28 107.629 38.28C107.082 38.28 106.686 38.46 106.439 38.82C106.192 39.18 106.069 39.6767 106.069 40.31Z" fill="#182D78"/>
<path d="M112.644 40.91C112.644 40.99 112.64 41.11 112.634 41.27C112.627 41.43 112.617 41.59 112.604 41.75C112.597 41.91 112.59 42.0367 112.584 42.13L115.454 37.64H116.534V43H115.714V39.84C115.714 39.7333 115.714 39.5933 115.714 39.42C115.72 39.2467 115.727 39.0767 115.734 38.91C115.74 38.7367 115.747 38.6067 115.754 38.52L112.904 43H111.814V37.64H112.644V40.91Z" fill="#182D78"/>
<path d="M119.949 37.54C120.563 37.54 121.049 37.6633 121.409 37.91C121.776 38.15 121.959 38.4967 121.959 38.95C121.959 39.2767 121.869 39.5367 121.689 39.73C121.509 39.9167 121.263 40.0533 120.949 40.14V40.18C121.163 40.24 121.359 40.3233 121.539 40.43C121.719 40.5367 121.863 40.6767 121.969 40.85C122.083 41.0233 122.139 41.2467 122.139 41.52C122.139 41.9667 121.953 42.3433 121.579 42.65C121.213 42.95 120.636 43.1 119.849 43.1C119.463 43.1 119.113 43.0667 118.799 43C118.486 42.94 118.226 42.8567 118.019 42.75V41.96C118.246 42.0667 118.513 42.1633 118.819 42.25C119.133 42.3367 119.473 42.38 119.839 42.38C120.239 42.38 120.576 42.3133 120.849 42.18C121.129 42.04 121.269 41.8033 121.269 41.47C121.269 40.87 120.759 40.57 119.739 40.57H119.019V39.85H119.599C120.059 39.85 120.426 39.79 120.699 39.67C120.979 39.5433 121.119 39.33 121.119 39.03C121.119 38.7767 121.013 38.5867 120.799 38.46C120.593 38.3333 120.293 38.27 119.899 38.27C119.606 38.27 119.346 38.3 119.119 38.36C118.899 38.4133 118.656 38.4967 118.389 38.61L118.079 37.91C118.639 37.6633 119.263 37.54 119.949 37.54Z" fill="#182D78"/>
<path d="M128.052 38.99C128.052 39.3233 127.952 39.5833 127.752 39.77C127.552 39.9567 127.295 40.0833 126.982 40.15V40.19C127.315 40.2367 127.605 40.3567 127.852 40.55C128.098 40.7367 128.222 41.03 128.222 41.43C128.222 41.8833 128.052 42.26 127.712 42.56C127.378 42.8533 126.825 43 126.052 43H123.742V37.64H126.042C126.422 37.64 126.762 37.6833 127.062 37.77C127.368 37.85 127.608 37.99 127.782 38.19C127.962 38.3833 128.052 38.65 128.052 38.99ZM127.162 39.1C127.162 38.8467 127.068 38.6633 126.882 38.55C126.702 38.43 126.405 38.37 125.992 38.37H124.622V39.84H125.832C126.718 39.84 127.162 39.5933 127.162 39.1ZM127.312 41.43C127.312 41.1233 127.195 40.9033 126.962 40.77C126.728 40.6367 126.385 40.57 125.932 40.57H124.622V42.29H125.952C126.392 42.29 126.728 42.2267 126.962 42.1C127.195 41.9667 127.312 41.7433 127.312 41.43Z" fill="#182D78"/>
<path d="M134.464 40.31C134.464 41.1967 134.237 41.8833 133.784 42.37C133.337 42.8567 132.73 43.1 131.964 43.1C131.49 43.1 131.067 42.9933 130.694 42.78C130.327 42.56 130.037 42.2433 129.824 41.83C129.61 41.41 129.504 40.9033 129.504 40.31C129.504 39.4233 129.727 38.74 130.174 38.26C130.62 37.78 131.227 37.54 131.993 37.54C132.48 37.54 132.907 37.65 133.274 37.87C133.647 38.0833 133.937 38.3967 134.144 38.81C134.357 39.2167 134.464 39.7167 134.464 40.31ZM130.414 40.31C130.414 40.9433 130.537 41.4467 130.784 41.82C131.037 42.1867 131.437 42.37 131.984 42.37C132.524 42.37 132.92 42.1867 133.174 41.82C133.427 41.4467 133.554 40.9433 133.554 40.31C133.554 39.6767 133.427 39.18 133.174 38.82C132.92 38.46 132.52 38.28 131.974 38.28C131.427 38.28 131.03 38.46 130.784 38.82C130.537 39.18 130.414 39.6767 130.414 40.31Z" fill="#182D78"/>
<path d="M140.138 37.64V42.26H140.918V44.86H140.068V43H136.338V44.86H135.498V42.26H135.928C136.388 41.6267 136.732 40.9067 136.958 40.1C137.192 39.2867 137.312 38.4667 137.318 37.64H140.138ZM138.098 38.33C138.072 38.7833 138.002 39.2533 137.888 39.74C137.775 40.22 137.628 40.68 137.448 41.12C137.275 41.56 137.072 41.94 136.838 42.26H139.288V38.33H138.098Z" fill="#182D78"/>
<path d="M143.099 40.91C143.099 40.99 143.095 41.11 143.089 41.27C143.082 41.43 143.072 41.59 143.059 41.75C143.052 41.91 143.045 42.0367 143.039 42.13L145.909 37.64H146.989V43H146.169V39.84C146.169 39.7333 146.169 39.5933 146.169 39.42C146.175 39.2467 146.182 39.0767 146.189 38.91C146.195 38.7367 146.202 38.6067 146.209 38.52L143.359 43H142.269V37.64H143.099V40.91Z" fill="#182D78"/>
<path d="M152.695 38.38H150.945V43H150.075V38.38H148.345V37.64H152.695V38.38Z" fill="#182D78"/>
<path d="M156.023 37.54C156.483 37.54 156.876 37.64 157.203 37.84C157.536 38.04 157.789 38.3233 157.963 38.69C158.143 39.05 158.233 39.4733 158.233 39.96V40.49H154.563C154.576 41.0967 154.729 41.56 155.023 41.88C155.323 42.1933 155.739 42.35 156.273 42.35C156.613 42.35 156.913 42.32 157.173 42.26C157.439 42.1933 157.713 42.1 157.993 41.98V42.75C157.719 42.87 157.449 42.9567 157.183 43.01C156.916 43.07 156.599 43.1 156.233 43.1C155.726 43.1 155.276 42.9967 154.883 42.79C154.496 42.5833 154.193 42.2767 153.973 41.87C153.759 41.4567 153.653 40.9533 153.653 40.36C153.653 39.7733 153.749 39.27 153.943 38.85C154.143 38.43 154.419 38.1067 154.773 37.88C155.133 37.6533 155.549 37.54 156.023 37.54ZM156.013 38.26C155.593 38.26 155.259 38.3967 155.013 38.67C154.773 38.9367 154.629 39.31 154.583 39.79H157.313C157.306 39.3367 157.199 38.97 156.993 38.69C156.786 38.4033 156.459 38.26 156.013 38.26Z" fill="#182D78"/>
<path d="M163.977 43H163.087V38.37H161.507C161.421 39.4967 161.301 40.4067 161.147 41.1C160.994 41.7867 160.791 42.2867 160.537 42.6C160.284 42.9133 159.964 43.07 159.577 43.07C159.491 43.07 159.404 43.0633 159.317 43.05C159.237 43.0433 159.171 43.0267 159.117 43V42.34C159.157 42.3533 159.201 42.3633 159.247 42.37C159.294 42.3767 159.341 42.38 159.387 42.38C159.747 42.38 160.034 41.9967 160.247 41.23C160.467 40.4633 160.634 39.2667 160.747 37.64H163.977V43Z" fill="#182D78"/>
<path d="M168.048 37.54C168.508 37.54 168.902 37.64 169.229 37.84C169.562 38.04 169.815 38.3233 169.988 38.69C170.168 39.05 170.258 39.4733 170.258 39.96V40.49H166.589C166.602 41.0967 166.755 41.56 167.048 41.88C167.348 42.1933 167.765 42.35 168.298 42.35C168.638 42.35 168.939 42.32 169.199 42.26C169.465 42.1933 169.738 42.1 170.018 41.98V42.75C169.745 42.87 169.475 42.9567 169.208 43.01C168.942 43.07 168.625 43.1 168.258 43.1C167.752 43.1 167.302 42.9967 166.908 42.79C166.522 42.5833 166.218 42.2767 165.998 41.87C165.785 41.4567 165.678 40.9533 165.678 40.36C165.678 39.7733 165.775 39.27 165.968 38.85C166.168 38.43 166.445 38.1067 166.798 37.88C167.158 37.6533 167.575 37.54 168.048 37.54ZM168.038 38.26C167.618 38.26 167.285 38.3967 167.038 38.67C166.798 38.9367 166.655 39.31 166.608 39.79H169.339C169.332 39.3367 169.225 38.97 169.018 38.69C168.812 38.4033 168.485 38.26 168.038 38.26Z" fill="#182D78"/>
<path d="M176.263 35.42C176.216 35.92 176.046 36.3 175.753 36.56C175.466 36.8133 175.006 36.94 174.373 36.94C173.72 36.94 173.256 36.8133 172.983 36.56C172.716 36.3067 172.566 35.9267 172.533 35.42H173.353C173.386 35.78 173.48 36.0233 173.633 36.15C173.793 36.27 174.046 36.33 174.393 36.33C174.7 36.33 174.94 36.2667 175.113 36.14C175.293 36.0067 175.4 35.7667 175.433 35.42H176.263ZM172.753 40.91C172.753 40.99 172.75 41.11 172.743 41.27C172.736 41.43 172.726 41.59 172.713 41.75C172.706 41.91 172.7 42.0367 172.693 42.13L175.563 37.64H176.643V43H175.823V39.84C175.823 39.7333 175.823 39.5933 175.823 39.42C175.83 39.2467 175.836 39.0767 175.843 38.91C175.85 38.7367 175.856 38.6067 175.863 38.52L173.013 43H171.923V37.64H172.753V40.91Z" fill="#182D78"/>
<path d="M9.36799 21L4.37999 4.76001H4.26399C4.28332 5.14667 4.31232 5.72667 4.35099 6.50001C4.38965 7.27334 4.42832 8.10467 4.46699 8.99401C4.50565 9.86401 4.52499 10.6567 4.52499 11.372V21H0.609985V0.294006H6.58398L11.485 16.128H11.572L16.763 0.294006H22.737V21H18.648V11.198C18.648 10.5407 18.6577 9.78667 18.677 8.93601C18.7157 8.08534 18.7447 7.28301 18.764 6.52901C18.8027 5.75567 18.8317 5.17567 18.851 4.78901H18.735L13.399 21H9.36799Z" fill="#E30037"/>
<path d="M39.8864 21H27.9674V0.294006H39.8864V3.89001H32.3464V8.44301H39.3644V12.039H32.3464V17.375H39.8864V21Z" fill="#E30037"/>
<path d="M52.1699 21H47.7909V3.94801H42.1649V0.294006H57.7959V3.94801H52.1699V21Z" fill="#E30037"/>
</svg>
