<svg width="227" height="48" viewBox="0 0 227 48" fill="none" xmlns="http://www.w3.org/2000/svg">
<path d="M56.056 31L52.96 20.92H52.888C52.9 21.16 52.918 21.52 52.942 22C52.966 22.48 52.99 22.996 53.014 23.548C53.038 24.088 53.05 24.58 53.05 25.024V31H50.62V18.148H54.328L57.37 27.976H57.424L60.646 18.148H64.354V31H61.816V24.916C61.816 24.508 61.822 24.04 61.834 23.512C61.858 22.984 61.876 22.486 61.888 22.018C61.912 21.538 61.93 21.178 61.942 20.938H61.87L58.558 31H56.056Z" fill="#182D78"/>
<path d="M71.4165 20.974C72.7365 20.974 73.7445 21.262 74.4405 21.838C75.1485 22.402 75.5025 23.272 75.5025 24.448V31H73.6305L73.1085 29.668H73.0365C72.6165 30.196 72.1725 30.58 71.7045 30.82C71.2365 31.06 70.5945 31.18 69.7785 31.18C68.9025 31.18 68.1765 30.928 67.6005 30.424C67.0245 29.908 66.7365 29.122 66.7365 28.066C66.7365 27.022 67.1025 26.254 67.8345 25.762C68.5665 25.258 69.6645 24.982 71.1285 24.934L72.8385 24.88V24.448C72.8385 23.932 72.7005 23.554 72.4245 23.314C72.1605 23.074 71.7885 22.954 71.3085 22.954C70.8285 22.954 70.3605 23.026 69.9045 23.17C69.4485 23.302 68.9925 23.47 68.5365 23.674L67.6545 21.856C68.1825 21.58 68.7645 21.364 69.4005 21.208C70.0485 21.052 70.7205 20.974 71.4165 20.974ZM71.7945 26.482C70.9305 26.506 70.3305 26.662 69.9945 26.95C69.6585 27.238 69.4905 27.616 69.4905 28.084C69.4905 28.492 69.6105 28.786 69.8505 28.966C70.0905 29.134 70.4025 29.218 70.7865 29.218C71.3625 29.218 71.8485 29.05 72.2445 28.714C72.6405 28.366 72.8385 27.88 72.8385 27.256V26.446L71.7945 26.482Z" fill="#182D78"/>
<path d="M83.7197 20.992C84.8237 20.992 85.7177 21.424 86.4017 22.288C87.0857 23.14 87.4277 24.4 87.4277 26.068C87.4277 27.736 87.0737 29.008 86.3657 29.884C85.6577 30.748 84.7517 31.18 83.6477 31.18C82.9397 31.18 82.3757 31.054 81.9557 30.802C81.5357 30.538 81.1937 30.244 80.9297 29.92H80.7857C80.8817 30.424 80.9297 30.904 80.9297 31.36V35.32H78.2477V21.172H80.4257L80.8037 22.45H80.9297C81.1937 22.054 81.5477 21.712 81.9917 21.424C82.4357 21.136 83.0117 20.992 83.7197 20.992ZM82.8557 23.134C82.1597 23.134 81.6677 23.35 81.3797 23.782C81.1037 24.214 80.9537 24.874 80.9297 25.762V26.05C80.9297 26.998 81.0677 27.73 81.3437 28.246C81.6317 28.75 82.1477 29.002 82.8917 29.002C83.5037 29.002 83.9537 28.75 84.2417 28.246C84.5417 27.73 84.6917 26.992 84.6917 26.032C84.6917 24.1 84.0797 23.134 82.8557 23.134Z" fill="#182D78"/>
<path d="M96.0824 21.172H99.0344L95.1464 25.888L99.3764 31H96.3344L92.3204 26.014V31H89.6384V21.172H92.3204V25.942L96.0824 21.172Z" fill="#182D78"/>
<path d="M104.481 20.992C105.837 20.992 106.911 21.382 107.703 22.162C108.495 22.93 108.891 24.028 108.891 25.456V26.752H102.555C102.579 27.508 102.801 28.102 103.221 28.534C103.653 28.966 104.247 29.182 105.003 29.182C105.639 29.182 106.215 29.122 106.731 29.002C107.247 28.87 107.781 28.672 108.333 28.408V30.478C107.853 30.718 107.343 30.892 106.803 31C106.275 31.12 105.633 31.18 104.877 31.18C103.893 31.18 103.023 31 102.267 30.64C101.511 30.268 100.917 29.71 100.485 28.966C100.053 28.222 99.8373 27.286 99.8373 26.158C99.8373 25.006 100.029 24.052 100.413 23.296C100.809 22.528 101.355 21.952 102.051 21.568C102.747 21.184 103.557 20.992 104.481 20.992ZM104.499 22.9C103.983 22.9 103.551 23.068 103.203 23.404C102.867 23.74 102.669 24.262 102.609 24.97H106.371C106.359 24.37 106.203 23.878 105.903 23.494C105.603 23.098 105.135 22.9 104.499 22.9Z" fill="#182D78"/>
<path d="M119.202 23.188H115.98V31H113.298V23.188H110.076V21.172H119.202V23.188Z" fill="#182D78"/>
<path d="M55.51 42.31C55.51 43.1966 55.2833 43.8833 54.83 44.37C54.3833 44.8566 53.7767 45.1 53.01 45.1C52.5367 45.1 52.1133 44.9933 51.74 44.78C51.3733 44.56 51.0833 44.2433 50.87 43.83C50.6567 43.41 50.55 42.9033 50.55 42.31C50.55 41.4233 50.7733 40.74 51.22 40.26C51.6667 39.78 52.2733 39.54 53.04 39.54C53.5267 39.54 53.9533 39.65 54.32 39.87C54.6933 40.0833 54.9833 40.3966 55.19 40.81C55.4033 41.2166 55.51 41.7166 55.51 42.31ZM51.46 42.31C51.46 42.9433 51.5833 43.4466 51.83 43.82C52.0833 44.1866 52.4833 44.37 53.03 44.37C53.57 44.37 53.9667 44.1866 54.22 43.82C54.4733 43.4466 54.6 42.9433 54.6 42.31C54.6 41.6766 54.4733 41.18 54.22 40.82C53.9667 40.46 53.5667 40.28 53.02 40.28C52.4733 40.28 52.0767 40.46 51.83 40.82C51.5833 41.18 51.46 41.6766 51.46 42.31Z" fill="#182D78"/>
<path d="M61.7347 39.64V45H60.8547V40.39H58.0847V45H57.2047V39.64H61.7347Z" fill="#182D78"/>
<path d="M67.4449 40.38H65.6949V45H64.8249V40.38H63.0949V39.64H67.4449V40.38Z" fill="#182D78"/>
<path d="M73.3631 42.31C73.3631 43.1966 73.1364 43.8833 72.6831 44.37C72.2364 44.8566 71.6298 45.1 70.8631 45.1C70.3898 45.1 69.9664 44.9933 69.5931 44.78C69.2264 44.56 68.9364 44.2433 68.7231 43.83C68.5098 43.41 68.4031 42.9033 68.4031 42.31C68.4031 41.4233 68.6264 40.74 69.0731 40.26C69.5198 39.78 70.1264 39.54 70.8931 39.54C71.3798 39.54 71.8064 39.65 72.1731 39.87C72.5464 40.0833 72.8364 40.3966 73.0431 40.81C73.2564 41.2166 73.3631 41.7166 73.3631 42.31ZM69.3131 42.31C69.3131 42.9433 69.4364 43.4466 69.6831 43.82C69.9364 44.1866 70.3364 44.37 70.8831 44.37C71.4231 44.37 71.8198 44.1866 72.0731 43.82C72.3264 43.4466 72.4531 42.9433 72.4531 42.31C72.4531 41.6766 72.3264 41.18 72.0731 40.82C71.8198 40.46 71.4198 40.28 70.8731 40.28C70.3264 40.28 69.9298 40.46 69.6831 40.82C69.4364 41.18 69.3131 41.6766 69.3131 42.31Z" fill="#182D78"/>
<path d="M79.3678 40.99C79.3678 41.3233 79.2678 41.5833 79.0678 41.77C78.8678 41.9566 78.6111 42.0833 78.2978 42.15V42.19C78.6311 42.2366 78.9211 42.3566 79.1678 42.55C79.4145 42.7366 79.5378 43.03 79.5378 43.43C79.5378 43.8833 79.3678 44.26 79.0278 44.56C78.6945 44.8533 78.1411 45 77.3678 45H75.0578V39.64H77.3578C77.7378 39.64 78.0778 39.6833 78.3778 39.77C78.6845 39.85 78.9245 39.99 79.0978 40.19C79.2778 40.3833 79.3678 40.65 79.3678 40.99ZM78.4778 41.1C78.4778 40.8466 78.3845 40.6633 78.1978 40.55C78.0178 40.43 77.7211 40.37 77.3078 40.37H75.9378V41.84H77.1478C78.0345 41.84 78.4778 41.5933 78.4778 41.1ZM78.6278 43.43C78.6278 43.1233 78.5111 42.9033 78.2778 42.77C78.0445 42.6366 77.7011 42.57 77.2478 42.57H75.9378V44.29H77.2678C77.7078 44.29 78.0445 44.2266 78.2778 44.1C78.5111 43.9666 78.6278 43.7433 78.6278 43.43Z" fill="#182D78"/>
<path d="M81.1195 45V39.64H81.9995V41.84H83.3895C84.0829 41.84 84.5962 41.9666 84.9295 42.22C85.2629 42.4733 85.4295 42.8533 85.4295 43.36C85.4295 43.86 85.2662 44.26 84.9395 44.56C84.6129 44.8533 84.0829 45 83.3495 45H81.1195ZM86.3195 45V39.64H87.1995V45H86.3195ZM83.2695 44.29C83.6495 44.29 83.9595 44.2266 84.1995 44.1C84.4395 43.9666 84.5595 43.7366 84.5595 43.41C84.5595 43.0833 84.4495 42.8633 84.2295 42.75C84.0095 42.63 83.6929 42.57 83.2795 42.57H81.9995V44.29H83.2695Z" fill="#182D78"/>
<path d="M91.2727 39.54C91.7327 39.54 92.1261 39.64 92.4527 39.84C92.7861 40.04 93.0394 40.3233 93.2127 40.69C93.3927 41.05 93.4827 41.4733 93.4827 41.96V42.49H89.8127C89.8261 43.0966 89.9794 43.56 90.2727 43.88C90.5727 44.1933 90.9894 44.35 91.5227 44.35C91.8627 44.35 92.1627 44.32 92.4227 44.26C92.6894 44.1933 92.9627 44.1 93.2427 43.98V44.75C92.9694 44.87 92.6994 44.9566 92.4327 45.01C92.1661 45.07 91.8494 45.1 91.4827 45.1C90.9761 45.1 90.5261 44.9966 90.1327 44.79C89.7461 44.5833 89.4427 44.2766 89.2227 43.87C89.0094 43.4566 88.9027 42.9533 88.9027 42.36C88.9027 41.7733 88.9994 41.27 89.1927 40.85C89.3927 40.43 89.6694 40.1066 90.0227 39.88C90.3827 39.6533 90.7994 39.54 91.2727 39.54ZM91.2627 40.26C90.8427 40.26 90.5094 40.3966 90.2627 40.67C90.0227 40.9366 89.8794 41.31 89.8327 41.79H92.5627C92.5561 41.3366 92.4494 40.97 92.2427 40.69C92.0361 40.4033 91.7094 40.26 91.2627 40.26Z" fill="#182D78"/>
<path d="M103.335 46.86H102.475V45H98.0449V39.64H98.9249V44.26H101.695V39.64H102.575V44.27H103.335V46.86Z" fill="#182D78"/>
<path d="M106.733 39.54C107.193 39.54 107.587 39.64 107.913 39.84C108.247 40.04 108.5 40.3233 108.673 40.69C108.853 41.05 108.943 41.4733 108.943 41.96V42.49H105.273C105.287 43.0966 105.44 43.56 105.733 43.88C106.033 44.1933 106.45 44.35 106.983 44.35C107.323 44.35 107.623 44.32 107.883 44.26C108.15 44.1933 108.423 44.1 108.703 43.98V44.75C108.43 44.87 108.16 44.9566 107.893 45.01C107.627 45.07 107.31 45.1 106.943 45.1C106.437 45.1 105.987 44.9966 105.593 44.79C105.207 44.5833 104.903 44.2766 104.683 43.87C104.47 43.4566 104.363 42.9533 104.363 42.36C104.363 41.7733 104.46 41.27 104.653 40.85C104.853 40.43 105.13 40.1066 105.483 39.88C105.843 39.6533 106.26 39.54 106.733 39.54ZM106.723 40.26C106.303 40.26 105.97 40.3966 105.723 40.67C105.483 40.9366 105.34 41.31 105.293 41.79H108.023C108.017 41.3366 107.91 40.97 107.703 40.69C107.497 40.4033 107.17 40.26 106.723 40.26Z" fill="#182D78"/>
<path d="M111.488 39.64V41.87H114.398V39.64H115.278V45H114.398V42.61H111.488V45H110.608V39.64H111.488Z" fill="#182D78"/>
<path d="M117.275 45V39.64H118.155V41.84H119.545C120.238 41.84 120.752 41.9666 121.085 42.22C121.418 42.4733 121.585 42.8533 121.585 43.36C121.585 43.86 121.422 44.26 121.095 44.56C120.768 44.8533 120.238 45 119.505 45H117.275ZM122.475 45V39.64H123.355V45H122.475ZM119.425 44.29C119.805 44.29 120.115 44.2266 120.355 44.1C120.595 43.9666 120.715 43.7366 120.715 43.41C120.715 43.0833 120.605 42.8633 120.385 42.75C120.165 42.63 119.848 42.57 119.435 42.57H118.155V44.29H119.425Z" fill="#182D78"/>
<path d="M132.916 42.31C132.916 43.1966 132.689 43.8833 132.236 44.37C131.789 44.8566 131.183 45.1 130.416 45.1C129.943 45.1 129.519 44.9933 129.146 44.78C128.779 44.56 128.489 44.2433 128.276 43.83C128.063 43.41 127.956 42.9033 127.956 42.31C127.956 41.4233 128.179 40.74 128.626 40.26C129.073 39.78 129.679 39.54 130.446 39.54C130.933 39.54 131.359 39.65 131.726 39.87C132.099 40.0833 132.389 40.3966 132.596 40.81C132.809 41.2166 132.916 41.7166 132.916 42.31ZM128.866 42.31C128.866 42.9433 128.989 43.4466 129.236 43.82C129.489 44.1866 129.889 44.37 130.436 44.37C130.976 44.37 131.373 44.1866 131.626 43.82C131.879 43.4466 132.006 42.9433 132.006 42.31C132.006 41.6766 131.879 41.18 131.626 40.82C131.373 40.46 130.973 40.28 130.426 40.28C129.879 40.28 129.483 40.46 129.236 40.82C128.989 41.18 128.866 41.6766 128.866 42.31Z" fill="#182D78"/>
<path d="M138.213 40.38H136.463V45H135.593V40.38H133.863V39.64H138.213V40.38Z" fill="#182D78"/>
<path d="M146.996 39.64V45H146.116V40.39H143.346V45H142.466V39.64H146.996Z" fill="#182D78"/>
<path d="M151.557 39.54C152.217 39.54 152.747 39.77 153.147 40.23C153.553 40.69 153.757 41.3833 153.757 42.31C153.757 43.2233 153.553 43.9166 153.147 44.39C152.747 44.8633 152.213 45.1 151.547 45.1C151.133 45.1 150.79 45.0233 150.517 44.87C150.25 44.71 150.04 44.5266 149.887 44.32H149.827C149.84 44.4333 149.853 44.5766 149.867 44.75C149.88 44.9233 149.887 45.0733 149.887 45.2V47.4H149.007V39.64H149.727L149.847 40.37H149.887C150.047 40.1366 150.257 39.94 150.517 39.78C150.777 39.62 151.123 39.54 151.557 39.54ZM151.397 40.28C150.85 40.28 150.463 40.4333 150.237 40.74C150.017 41.0466 149.9 41.5133 149.887 42.14V42.31C149.887 42.97 149.993 43.48 150.207 43.84C150.427 44.1933 150.83 44.37 151.417 44.37C151.743 44.37 152.01 44.28 152.217 44.1C152.43 43.92 152.587 43.6766 152.687 43.37C152.793 43.0566 152.847 42.7 152.847 42.3C152.847 41.6866 152.727 41.1966 152.487 40.83C152.253 40.4633 151.89 40.28 151.397 40.28Z" fill="#182D78"/>
<path d="M160.119 42.31C160.119 43.1966 159.892 43.8833 159.439 44.37C158.992 44.8566 158.386 45.1 157.619 45.1C157.146 45.1 156.722 44.9933 156.349 44.78C155.982 44.56 155.692 44.2433 155.479 43.83C155.266 43.41 155.159 42.9033 155.159 42.31C155.159 41.4233 155.382 40.74 155.829 40.26C156.276 39.78 156.882 39.54 157.649 39.54C158.136 39.54 158.562 39.65 158.929 39.87C159.302 40.0833 159.592 40.3966 159.799 40.81C160.012 41.2166 160.119 41.7166 160.119 42.31ZM156.069 42.31C156.069 42.9433 156.192 43.4466 156.439 43.82C156.692 44.1866 157.092 44.37 157.639 44.37C158.179 44.37 158.576 44.1866 158.829 43.82C159.082 43.4466 159.209 42.9433 159.209 42.31C159.209 41.6766 159.082 41.18 158.829 40.82C158.576 40.46 158.176 40.28 157.629 40.28C157.082 40.28 156.686 40.46 156.439 40.82C156.192 41.18 156.069 41.6766 156.069 42.31Z" fill="#182D78"/>
<path d="M162.644 42.91C162.644 42.99 162.64 43.11 162.634 43.27C162.627 43.43 162.617 43.59 162.604 43.75C162.597 43.91 162.59 44.0366 162.584 44.13L165.454 39.64H166.534V45H165.714V41.84C165.714 41.7333 165.714 41.5933 165.714 41.42C165.72 41.2466 165.727 41.0766 165.734 40.91C165.74 40.7366 165.747 40.6066 165.754 40.52L162.904 45H161.814V39.64H162.644V42.91Z" fill="#182D78"/>
<path d="M169.949 39.54C170.563 39.54 171.049 39.6633 171.409 39.91C171.776 40.15 171.959 40.4966 171.959 40.95C171.959 41.2766 171.869 41.5366 171.689 41.73C171.509 41.9166 171.263 42.0533 170.949 42.14V42.18C171.163 42.24 171.359 42.3233 171.539 42.43C171.719 42.5366 171.863 42.6766 171.969 42.85C172.083 43.0233 172.139 43.2466 172.139 43.52C172.139 43.9666 171.953 44.3433 171.579 44.65C171.213 44.95 170.636 45.1 169.849 45.1C169.463 45.1 169.113 45.0666 168.799 45C168.486 44.94 168.226 44.8566 168.019 44.75V43.96C168.246 44.0666 168.513 44.1633 168.819 44.25C169.133 44.3366 169.473 44.38 169.839 44.38C170.239 44.38 170.576 44.3133 170.849 44.18C171.129 44.04 171.269 43.8033 171.269 43.47C171.269 42.87 170.759 42.57 169.739 42.57H169.019V41.85H169.599C170.059 41.85 170.426 41.79 170.699 41.67C170.979 41.5433 171.119 41.33 171.119 41.03C171.119 40.7766 171.013 40.5866 170.799 40.46C170.593 40.3333 170.293 40.27 169.899 40.27C169.606 40.27 169.346 40.3 169.119 40.36C168.899 40.4133 168.656 40.4966 168.389 40.61L168.079 39.91C168.639 39.6633 169.263 39.54 169.949 39.54Z" fill="#182D78"/>
<path d="M178.052 40.99C178.052 41.3233 177.952 41.5833 177.752 41.77C177.552 41.9566 177.295 42.0833 176.982 42.15V42.19C177.315 42.2366 177.605 42.3566 177.852 42.55C178.098 42.7366 178.222 43.03 178.222 43.43C178.222 43.8833 178.052 44.26 177.712 44.56C177.378 44.8533 176.825 45 176.052 45H173.742V39.64H176.042C176.422 39.64 176.762 39.6833 177.062 39.77C177.368 39.85 177.608 39.99 177.782 40.19C177.962 40.3833 178.052 40.65 178.052 40.99ZM177.162 41.1C177.162 40.8466 177.068 40.6633 176.882 40.55C176.702 40.43 176.405 40.37 175.992 40.37H174.622V41.84H175.832C176.718 41.84 177.162 41.5933 177.162 41.1ZM177.312 43.43C177.312 43.1233 177.195 42.9033 176.962 42.77C176.728 42.6366 176.385 42.57 175.932 42.57H174.622V44.29H175.952C176.392 44.29 176.728 44.2266 176.962 44.1C177.195 43.9666 177.312 43.7433 177.312 43.43Z" fill="#182D78"/>
<path d="M184.464 42.31C184.464 43.1966 184.237 43.8833 183.784 44.37C183.337 44.8566 182.73 45.1 181.964 45.1C181.49 45.1 181.067 44.9933 180.694 44.78C180.327 44.56 180.037 44.2433 179.824 43.83C179.61 43.41 179.504 42.9033 179.504 42.31C179.504 41.4233 179.727 40.74 180.174 40.26C180.62 39.78 181.227 39.54 181.993 39.54C182.48 39.54 182.907 39.65 183.274 39.87C183.647 40.0833 183.937 40.3966 184.144 40.81C184.357 41.2166 184.464 41.7166 184.464 42.31ZM180.414 42.31C180.414 42.9433 180.537 43.4466 180.784 43.82C181.037 44.1866 181.437 44.37 181.984 44.37C182.524 44.37 182.92 44.1866 183.174 43.82C183.427 43.4466 183.554 42.9433 183.554 42.31C183.554 41.6766 183.427 41.18 183.174 40.82C182.92 40.46 182.52 40.28 181.974 40.28C181.427 40.28 181.03 40.46 180.784 40.82C180.537 41.18 180.414 41.6766 180.414 42.31Z" fill="#182D78"/>
<path d="M190.138 39.64V44.26H190.918V46.86H190.068V45H186.338V46.86H185.498V44.26H185.928C186.388 43.6266 186.732 42.9066 186.958 42.1C187.192 41.2866 187.312 40.4666 187.318 39.64H190.138ZM188.098 40.33C188.072 40.7833 188.002 41.2533 187.888 41.74C187.775 42.22 187.628 42.68 187.448 43.12C187.275 43.56 187.072 43.94 186.838 44.26H189.288V40.33H188.098Z" fill="#182D78"/>
<path d="M193.099 42.91C193.099 42.99 193.095 43.11 193.089 43.27C193.082 43.43 193.072 43.59 193.059 43.75C193.052 43.91 193.045 44.0366 193.039 44.13L195.909 39.64H196.989V45H196.169V41.84C196.169 41.7333 196.169 41.5933 196.169 41.42C196.175 41.2466 196.182 41.0766 196.189 40.91C196.195 40.7366 196.202 40.6066 196.209 40.52L193.359 45H192.269V39.64H193.099V42.91Z" fill="#182D78"/>
<path d="M202.695 40.38H200.945V45H200.075V40.38H198.345V39.64H202.695V40.38Z" fill="#182D78"/>
<path d="M206.023 39.54C206.483 39.54 206.876 39.64 207.203 39.84C207.536 40.04 207.789 40.3233 207.963 40.69C208.143 41.05 208.233 41.4733 208.233 41.96V42.49H204.563C204.576 43.0966 204.729 43.56 205.023 43.88C205.323 44.1933 205.739 44.35 206.273 44.35C206.613 44.35 206.913 44.32 207.173 44.26C207.439 44.1933 207.713 44.1 207.993 43.98V44.75C207.719 44.87 207.449 44.9566 207.183 45.01C206.916 45.07 206.599 45.1 206.233 45.1C205.726 45.1 205.276 44.9966 204.883 44.79C204.496 44.5833 204.193 44.2766 203.973 43.87C203.759 43.4566 203.653 42.9533 203.653 42.36C203.653 41.7733 203.749 41.27 203.943 40.85C204.143 40.43 204.419 40.1066 204.773 39.88C205.133 39.6533 205.549 39.54 206.023 39.54ZM206.013 40.26C205.593 40.26 205.259 40.3966 205.013 40.67C204.773 40.9366 204.629 41.31 204.583 41.79H207.313C207.306 41.3366 207.199 40.97 206.993 40.69C206.786 40.4033 206.459 40.26 206.013 40.26Z" fill="#182D78"/>
<path d="M213.977 45H213.087V40.37H211.507C211.421 41.4966 211.301 42.4066 211.147 43.1C210.994 43.7866 210.791 44.2866 210.537 44.6C210.284 44.9133 209.964 45.07 209.577 45.07C209.491 45.07 209.404 45.0633 209.317 45.05C209.237 45.0433 209.171 45.0266 209.117 45V44.34C209.157 44.3533 209.201 44.3633 209.247 44.37C209.294 44.3766 209.341 44.38 209.387 44.38C209.747 44.38 210.034 43.9966 210.247 43.23C210.467 42.4633 210.634 41.2666 210.747 39.64H213.977V45Z" fill="#182D78"/>
<path d="M218.048 39.54C218.508 39.54 218.902 39.64 219.229 39.84C219.562 40.04 219.815 40.3233 219.988 40.69C220.168 41.05 220.258 41.4733 220.258 41.96V42.49H216.589C216.602 43.0966 216.755 43.56 217.048 43.88C217.348 44.1933 217.765 44.35 218.298 44.35C218.638 44.35 218.939 44.32 219.199 44.26C219.465 44.1933 219.738 44.1 220.018 43.98V44.75C219.745 44.87 219.475 44.9566 219.208 45.01C218.942 45.07 218.625 45.1 218.258 45.1C217.752 45.1 217.302 44.9966 216.908 44.79C216.522 44.5833 216.218 44.2766 215.998 43.87C215.785 43.4566 215.678 42.9533 215.678 42.36C215.678 41.7733 215.775 41.27 215.968 40.85C216.168 40.43 216.445 40.1066 216.798 39.88C217.158 39.6533 217.575 39.54 218.048 39.54ZM218.038 40.26C217.618 40.26 217.285 40.3966 217.038 40.67C216.798 40.9366 216.655 41.31 216.608 41.79H219.339C219.332 41.3366 219.225 40.97 219.018 40.69C218.812 40.4033 218.485 40.26 218.038 40.26Z" fill="#182D78"/>
<path d="M226.263 37.42C226.216 37.92 226.046 38.3 225.753 38.56C225.466 38.8133 225.006 38.94 224.373 38.94C223.72 38.94 223.256 38.8133 222.983 38.56C222.716 38.3066 222.566 37.9266 222.533 37.42H223.353C223.386 37.78 223.48 38.0233 223.633 38.15C223.793 38.27 224.046 38.33 224.393 38.33C224.7 38.33 224.94 38.2666 225.113 38.14C225.293 38.0066 225.4 37.7666 225.433 37.42H226.263ZM222.753 42.91C222.753 42.99 222.75 43.11 222.743 43.27C222.736 43.43 222.726 43.59 222.713 43.75C222.706 43.91 222.7 44.0366 222.693 44.13L225.563 39.64H226.643V45H225.823V41.84C225.823 41.7333 225.823 41.5933 225.823 41.42C225.83 41.2466 225.836 41.0766 225.843 40.91C225.85 40.7366 225.856 40.6066 225.863 40.52L223.013 45H221.923V39.64H222.753V42.91Z" fill="#182D78"/>
<path d="M56.056 13L52.96 2.92001H52.888C52.9 3.16001 52.918 3.52001 52.942 4.00001C52.966 4.48001 52.99 4.99601 53.014 5.54801C53.038 6.08801 53.05 6.58001 53.05 7.02401V13H50.62V0.14801H54.328L57.37 9.97601H57.424L60.646 0.14801H64.354V13H61.816V6.91601C61.816 6.50801 61.822 6.04001 61.834 5.51201C61.858 4.98401 61.876 4.48601 61.888 4.01801C61.912 3.53801 61.93 3.17801 61.942 2.93801H61.87L58.558 13H56.056Z" fill="#E30037"/>
<path d="M74.9985 13H67.6005V0.14801H74.9985V2.38001H70.3185V5.20601H74.6745V7.43801H70.3185V10.75H74.9985V13Z" fill="#E30037"/>
<path d="M82.6227 13H79.9047V2.41601H76.4127V0.14801H86.1147V2.41601H82.6227V13Z" fill="#E30037"/>
<path d="M45 0V4.89807L37.3745 12.5947L27.5698 22.4909L22.6722 27.4341L17.7735 22.4909L7.62671 12.2494V45H0V0H5.28672L7.62671 2.36181L22.6722 17.5476L37.3745 2.70705L40.0565 0H45Z" fill="#E30037"/>
<path d="M45 9.28006V45H37.574V27.3742L27.9989 37.0386L22.7484 42.3393L10.536 30.013V19.4129L22.7484 31.7392L37.574 16.7754L45 9.28006Z" fill="#172D78"/>
</svg>
